Yantramanav-Light.ufo
<glyph name="quotedbl" format="1">
  <advance width="727"/>
  <unicode hex="0022"/>
  <outline>
    <contour>
      <point x="322" y="1214" type="line"/>
      <point x="258" y="979" type="line"/>
      <point x="195" y="979" type="line"/>
      <point x="218" y="1209" type="line"/>
      <point x="218" y="1404" type="line"/>
      <point x="322" y="1404" type="line"/>
    </contour>
    <contour>
      <point x="534" y="1214" type="line"/>
      <point x="469" y="979" type="line"/>
      <point x="407" y="979" type="line"/>
      <point x="431" y="1212" type="line"/>
      <point x="431" y="1404" type="line"/>
      <point x="534" y="1404" type="line"/>
    </contour>
  </outline>
</glyph>
<glyph name="numbersign" format="1">
  <advance width="1142"/>
  <unicode hex="0023"/>
  <outline>
    <contour>
      <point x="663" y="369" type="line"/>
      <point x="378" y="369" type="line"/>
      <point x="309" y="0" type="line"/>
      <point x="222" y="0" type="line"/>
      <point x="291" y="369" type="line"/>
      <point x="60" y="369" type="line"/>
      <point x="60" y="450" type="line"/>
      <point x="307" y="450" type="line"/>
      <point x="382" y="853" type="line"/>
      <point x="129" y="853" type="line"/>
      <point x="129" y="936" type="line"/>
      <point x="398" y="936" type="line"/>
      <point x="468" y="1310" type="line"/>
      <point x="555" y="1310" type="line"/>
      <point x="484" y="936" type="line"/>
      <point x="770" y="936" type="line"/>
      <point x="841" y="1310" type="line"/>
      <point x="928" y="1310" type="line"/>
      <point x="857" y="936" type="line"/>
      <point x="1065" y="936" type="line"/>
      <point x="1065" y="853" type="line"/>
      <point x="842" y="853" type="line"/>
      <point x="766" y="450" type="line"/>
      <point x="997" y="450" type="line"/>
      <point x="997" y="369" type="line"/>
      <point x="751" y="369" type="line"/>
      <point x="681" y="0" type="line"/>
      <point x="594" y="0" type="line"/>
    </contour>
    <contour>
      <point x="393" y="450" type="line"/>
      <point x="679" y="450" type="line"/>
      <point x="755" y="853" type="line"/>
      <point x="468" y="853" type="line"/>
    </contour>
  </outline>
</glyph>
<glyph name="dollar" format="1">
  <advance width="1021"/>
  <unicode hex="0024"/>
  <outline>
    <contour>
      <point x="816" y="297" type="qcurve" smooth="yes"/>
      <point x="816" y="404"/>
      <point x="690" y="528"/>
      <point x="520" y="590" type="qcurve" smooth="yes"/>
      <point x="323" y="658"/>
      <point x="145" y="816"/>
      <point x="145" y="970" type="qcurve" smooth="yes"/>
      <point x="145" y="1116"/>
      <point x="337" y="1298"/>
      <point x="499" y="1307" type="qcurve"/>
      <point x="499" y="1480" type="line"/>
      <point x="568" y="1480" type="line"/>
      <point x="568" y="1307" type="line"/>
      <point x="731" y="1295"/>
      <point x="913" y="1091"/>
      <point x="910" y="918" type="qcurve"/>
      <point x="908" y="914" type="line"/>
      <point x="812" y="914" type="line"/>
      <point x="812" y="1052"/>
      <point x="661" y="1222"/>
      <point x="528" y="1222" type="qcurve" smooth="yes"/>
      <point x="391" y="1222"/>
      <point x="248" y="1075"/>
      <point x="248" y="971" type="qcurve" smooth="yes"/>
      <point x="248" y="865"/>
      <point x="366" y="740"/>
      <point x="544" y="679" type="qcurve" smooth="yes"/>
      <point x="737" y="608"/>
      <point x="919" y="450"/>
      <point x="919" y="299" type="qcurve" smooth="yes"/>
      <point x="919" y="151"/>
      <point x="730" y="-28"/>
      <point x="572" y="-39" type="qcurve"/>
      <point x="572" y="-210" type="line"/>
      <point x="502" y="-210" type="line"/>
      <point x="502" y="-39" type="line"/>
      <point x="331" y="-31"/>
      <point x="103" y="158"/>
      <point x="107" y="353" type="qcurve"/>
      <point x="109" y="358" type="line"/>
      <point x="205" y="358" type="line"/>
      <point x="205" y="193"/>
      <point x="397" y="46"/>
      <point x="533" y="46" type="qcurve" smooth="yes"/>
      <point x="662" y="46"/>
      <point x="816" y="193"/>
    </contour>
  </outline>
</glyph>
<glyph name="percent" format="1">
  <advance width="1363"/>
  <unicode hex="0025"/>
  <outline>
    <contour>
      <point x="99" y="1058" type="line"/>
      <point x="99" y="1172"/>
      <point x="240" y="1329"/>
      <point x="354" y="1329" type="qcurve"/>
      <point x="468" y="1329"/>
      <point x="610" y="1173"/>
      <point x="610" y="1058" type="qcurve"/>
      <point x="610" y="989" type="line"/>
      <point x="610" y="876"/>
      <point x="469" y="720"/>
      <point x="356" y="720" type="qcurve"/>
      <point x="240" y="720"/>
      <point x="99" y="876"/>
      <point x="99" y="989" type="qcurve"/>
    </contour>
    <contour>
      <point x="183" y="989" type="line"/>
      <point x="183" y="909"/>
      <point x="273" y="795"/>
      <point x="356" y="795" type="qcurve"/>
      <point x="437" y="795"/>
      <point x="526" y="909"/>
      <point x="526" y="989" type="qcurve"/>
      <point x="526" y="1058" type="line"/>
      <point x="526" y="1138"/>
      <point x="436" y="1254"/>
      <point x="354" y="1254" type="qcurve"/>
      <point x="273" y="1254"/>
      <point x="183" y="1138"/>
      <point x="183" y="1058" type="qcurve"/>
    </contour>
    <contour>
      <point x="760" y="321" type="line"/>
      <point x="760" y="435"/>
      <point x="901" y="591"/>
      <point x="1015" y="591" type="qcurve"/>
      <point x="1129" y="591"/>
      <point x="1271" y="435"/>
      <point x="1271" y="321" type="qcurve"/>
      <point x="1271" y="251" type="line"/>
      <point x="1271" y="137"/>
      <point x="1130" y="-19"/>
      <point x="1017" y="-19" type="qcurve"/>
      <point x="902" y="-19"/>
      <point x="760" y="137"/>
      <point x="760" y="251" type="qcurve"/>
    </contour>
    <contour>
      <point x="843" y="251" type="line"/>
      <point x="843" y="170"/>
      <point x="933" y="57"/>
      <point x="1017" y="57" type="qcurve"/>
      <point x="1098" y="57"/>
      <point x="1186" y="170"/>
      <point x="1186" y="251" type="qcurve"/>
      <point x="1186" y="321" type="line"/>
      <point x="1186" y="405"/>
      <point x="1097" y="516"/>
      <point x="1015" y="516" type="qcurve"/>
      <point x="933" y="516"/>
      <point x="843" y="404"/>
      <point x="843" y="321" type="qcurve"/>
    </contour>
    <contour>
      <point x="414" y="110" type="line"/>
      <point x="349" y="152" type="line"/>
      <point x="989" y="1176" type="line"/>
      <point x="1054" y="1134" type="line"/>
    </contour>
  </outline>
</glyph>
<glyph name="parenleft" format="1">
  <advance width="761"/>
  <unicode hex="0028"/>
  <outline>
    <contour>
      <point x="201" y="529" type="line"/>
      <point x="201" y="855"/>
      <point x="448" y="1373"/>
      <point x="602" y="1462" type="qcurve"/>
      <point x="608" y="1461" type="line"/>
      <point x="631" y="1399" type="line"/>
      <point x="499" y="1306"/>
      <point x="305" y="828"/>
      <point x="305" y="532" type="qcurve"/>
      <point x="305" y="514" type="line"/>
      <point x="305" y="217"/>
      <point x="499" y="-260"/>
      <point x="631" y="-357" type="qcurve"/>
      <point x="608" y="-417" type="line"/>
      <point x="602" y="-417" type="line"/>
      <point x="447" y="-327"/>
      <point x="201" y="182"/>
      <point x="201" y="515" type="qcurve"/>
    </contour>
  </outline>
</glyph>
<glyph name="parenright" format="1">
  <advance width="770"/>
  <unicode hex="0029"/>
  <outline>
    <contour>
      <point x="561" y="515" type="line"/>
      <point x="561" y="182"/>
      <point x="315" y="-327"/>
      <point x="159" y="-417" type="qcurve"/>
      <point x="154" y="-417" type="line"/>
      <point x="131" y="-357" type="line"/>
      <point x="261" y="-264"/>
      <point x="457" y="216"/>
      <point x="457" y="514" type="qcurve"/>
      <point x="457" y="532" type="line"/>
      <point x="457" y="826"/>
      <point x="259" y="1308"/>
      <point x="131" y="1402" type="qcurve"/>
      <point x="154" y="1462" type="line"/>
      <point x="159" y="1462" type="line"/>
      <point x="313" y="1373"/>
      <point x="561" y="855"/>
      <point x="561" y="529" type="qcurve"/>
    </contour>
  </outline>
</glyph>
<glyph name="asterisk" format="1">
  <advance width="781"/>
  <unicode hex="002A"/>
  <outline>
    <contour>
      <point x="328" y="902" type="line"/>
      <point x="26" y="1000" type="line"/>
      <point x="54" y="1086" type="line"/>
      <point x="355" y="976" type="line"/>
      <point x="352" y="1310" type="line"/>
      <point x="442" y="1310" type="line"/>
      <point x="435" y="973" type="line"/>
      <point x="729" y="1089" type="line"/>
      <point x="758" y="1002" type="line"/>
      <point x="456" y="897" type="line"/>
      <point x="658" y="630" type="line"/>
      <point x="584" y="576" type="line"/>
      <point x="390" y="852" type="line"/>
      <point x="204" y="577" type="line"/>
      <point x="130" y="630" type="line"/>
    </contour>
  </outline>
</glyph>
<glyph name="plus" format="1">
  <advance width="1040"/>
  <unicode hex="002B"/>
  <outline>
    <contour>
      <point x="564" y="663" type="line"/>
      <point x="966" y="663" type="line"/>
      <point x="966" y="567" type="line"/>
      <point x="564" y="567" type="line"/>
      <point x="564" y="131" type="line"/>
      <point x="460" y="131" type="line"/>
      <point x="460" y="567" type="line"/>
      <point x="68" y="567" type="line"/>
      <point x="68" y="663" type="line"/>
      <point x="460" y="663" type="line"/>
      <point x="460" y="1085" type="line"/>
      <point x="564" y="1085" type="line"/>
    </contour>
  </outline>
</glyph>
<glyph name="comma" format="1">
  <advance width="353"/>
  <unicode hex="002C"/>
  <outline>
    <contour>
      <point x="243" y="-12" type="line"/>
      <point x="149" y="-258" type="line"/>
      <point x="78" y="-258" type="line"/>
      <point x="139" y="-10" type="line"/>
      <point x="139" y="141" type="line"/>
      <point x="243" y="141" type="line"/>
    </contour>
  </outline>
</glyph>
<glyph name="hyphen" format="1">
  <advance width="529"/>
  <unicode hex="002D"/>
  <outline>
    <contour>
      <point x="475" y="516" type="line"/>
      <point x="45" y="516" type="line"/>
      <point x="45" y="603" type="line"/>
      <point x="475" y="603" type="line"/>
    </contour>
  </outline>
</glyph>
<glyph name="period" format="1">
  <advance width="437"/>
  <unicode hex="002E"/>
  <outline>
    <contour>
      <point x="271" y="0" type="line"/>
      <point x="151" y="0" type="line"/>
      <point x="151" y="145" type="line"/>
      <point x="271" y="145" type="line"/>
    </contour>
  </outline>
</glyph>
<glyph name="slash" format="1">
  <advance width="730"/>
  <unicode hex="002F"/>
  <outline>
    <contour>
      <point x="123" y="-125" type="line"/>
      <point x="28" y="-125" type="line"/>
      <point x="575" y="1298" type="line"/>
      <point x="669" y="1298" type="line"/>
    </contour>
  </outline>
</glyph>
<glyph name="zero" format="1">
  <advance width="1045"/>
  <unicode hex="0030"/>
  <outline>
    <contour>
      <point x="929" y="507" type="line"/>
      <point x="929" y="253"/>
      <point x="715" y="-21"/>
      <point x="524" y="-21" type="qcurve" smooth="yes"/>
      <point x="333" y="-21"/>
      <point x="116" y="254"/>
      <point x="116" y="507" type="qcurve" smooth="yes"/>
      <point x="116" y="799" type="line"/>
      <point x="116" y="1052"/>
      <point x="331" y="1327"/>
      <point x="522" y="1327" type="qcurve" smooth="yes"/>
      <point x="714" y="1327"/>
      <point x="929" y="1052"/>
      <point x="929" y="799" type="qcurve" smooth="yes"/>
    </contour>
    <contour>
      <point x="826" y="815" type="line"/>
      <point x="826" y="1018"/>
      <point x="670" y="1240"/>
      <point x="522" y="1240" type="qcurve" smooth="yes"/>
      <point x="374" y="1240"/>
      <point x="219" y="1018"/>
      <point x="219" y="815" type="qcurve" smooth="yes"/>
      <point x="219" y="493" type="line"/>
      <point x="219" y="290"/>
      <point x="376" y="66"/>
      <point x="524" y="66" type="qcurve" smooth="yes"/>
      <point x="672" y="66"/>
      <point x="826" y="289"/>
      <point x="826" y="493" type="qcurve" smooth="yes"/>
    </contour>
  </outline>
</glyph>
<glyph name="one" format="1">
  <advance width="1021"/>
  <unicode hex="0031"/>
  <outline>
    <contour>
      <point x="602" y="-7" type="line"/>
      <point x="499" y="-7" type="line"/>
      <point x="499" y="1214" type="line"/>
      <point x="178" y="1171" type="line"/>
      <point x="178" y="1250" type="line"/>
      <point x="602" y="1313" type="line"/>
    </contour>
  </outline>
</glyph>
<glyph name="two" format="1">
  <advance width="1021"/>
  <unicode hex="0032"/>
  <outline>
    <contour>
      <point x="936" y="0" type="line"/>
      <point x="124" y="0" type="line"/>
      <point x="124" y="80" type="line"/>
      <point x="554" y="567" type="line"/>
      <point x="673" y="703"/>
      <point x="773" y="885"/>
      <point x="773" y="969" type="qcurve" smooth="yes"/>
      <point x="773" y="1093"/>
      <point x="633" y="1242"/>
      <point x="505" y="1242" type="qcurve" smooth="yes"/>
      <point x="355" y="1242"/>
      <point x="199" y="1074"/>
      <point x="199" y="934" type="qcurve"/>
      <point x="103" y="934" type="line"/>
      <point x="101" y="940" type="line"/>
      <point x="96" y="1103"/>
      <point x="316" y="1329"/>
      <point x="505" y="1329" type="qcurve" smooth="yes"/>
      <point x="674" y="1329"/>
      <point x="876" y="1136"/>
      <point x="876" y="971" type="qcurve" smooth="yes"/>
      <point x="876" y="864"/>
      <point x="741" y="642"/>
      <point x="618" y="502" type="qcurve" smooth="yes"/>
      <point x="256" y="91" type="line"/>
      <point x="258" y="87" type="line"/>
      <point x="936" y="87" type="line"/>
    </contour>
  </outline>
</glyph>
<glyph name="three" format="1">
  <advance width="1021"/>
  <unicode hex="0033"/>
  <outline>
    <contour>
      <point x="364" y="712" type="line"/>
      <point x="487" y="712" type="line"/>
      <point x="632" y="712"/>
      <point x="783" y="857"/>
      <point x="783" y="970" type="qcurve"/>
      <point x="783" y="1094"/>
      <point x="641" y="1242"/>
      <point x="504" y="1242" type="qcurve"/>
      <point x="376" y="1242"/>
      <point x="212" y="1092"/>
      <point x="212" y="967" type="qcurve"/>
      <point x="117" y="967" type="line"/>
      <point x="115" y="973" type="line"/>
      <point x="110" y="1127"/>
      <point x="333" y="1329"/>
      <point x="504" y="1329" type="qcurve"/>
      <point x="679" y="1329"/>
      <point x="886" y="1137"/>
      <point x="886" y="967" type="qcurve"/>
      <point x="886" y="873"/>
      <point x="769" y="710"/>
      <point x="664" y="671" type="qcurve"/>
      <point x="787" y="637"/>
      <point x="911" y="471"/>
      <point x="911" y="355" type="qcurve"/>
      <point x="911" y="180"/>
      <point x="685" y="-19"/>
      <point x="509" y="-19" type="qcurve"/>
      <point x="337" y="-19"/>
      <point x="90" y="177"/>
      <point x="95" y="351" type="qcurve"/>
      <point x="97" y="356" type="line"/>
      <point x="192" y="356" type="line"/>
      <point x="192" y="229"/>
      <point x="369" y="68"/>
      <point x="509" y="68" type="qcurve"/>
      <point x="650" y="68"/>
      <point x="808" y="216"/>
      <point x="808" y="352" type="qcurve"/>
      <point x="808" y="491"/>
      <point x="641" y="624"/>
      <point x="487" y="624" type="qcurve"/>
      <point x="364" y="624" type="line"/>
    </contour>
  </outline>
</glyph>
<glyph name="four" format="1">
  <advance width="1021"/>
  <unicode hex="0034"/>
  <outline>
    <contour>
      <point x="782" y="421" type="line"/>
      <point x="989" y="421" type="line"/>
      <point x="989" y="334" type="line"/>
      <point x="782" y="334" type="line"/>
      <point x="782" y="0" type="line"/>
      <point x="679" y="0" type="line"/>
      <point x="679" y="334" type="line"/>
      <point x="64" y="334" type="line"/>
      <point x="64" y="392" type="line"/>
      <point x="668" y="1310" type="line"/>
      <point x="782" y="1310" type="line"/>
    </contour>
    <contour>
      <point x="187" y="421" type="line"/>
      <point x="679" y="421" type="line"/>
      <point x="679" y="1163" type="line"/>
      <point x="674" y="1165" type="line"/>
      <point x="626" y="1079" type="line"/>
    </contour>
  </outline>
</glyph>
<glyph name="five" format="1">
  <advance width="1021"/>
  <unicode hex="0035"/>
  <outline>
    <contour>
      <point x="171" y="592" type="line"/>
      <point x="243" y="1308" type="line"/>
      <point x="879" y="1308" type="line"/>
      <point x="879" y="1214" type="line"/>
      <point x="332" y="1214" type="line"/>
      <point x="283" y="738" type="line"/>
      <point x="333" y="783"/>
      <point x="453" y="834"/>
      <point x="557" y="836" type="qcurve" smooth="yes"/>
      <point x="724" y="840"/>
      <point x="929" y="610"/>
      <point x="929" y="416" type="qcurve" smooth="yes"/>
      <point x="929" y="216"/>
      <point x="730" y="-21"/>
      <point x="531" y="-21" type="qcurve" smooth="yes"/>
      <point x="368" y="-21"/>
      <point x="153" y="160"/>
      <point x="157" y="337" type="qcurve"/>
      <point x="159" y="343" type="line"/>
      <point x="251" y="343" type="line"/>
      <point x="251" y="208"/>
      <point x="403" y="66"/>
      <point x="531" y="66" type="qcurve" smooth="yes"/>
      <point x="678" y="66"/>
      <point x="825" y="244"/>
      <point x="825" y="414" type="qcurve" smooth="yes"/>
      <point x="825" y="562"/>
      <point x="678" y="741"/>
      <point x="547" y="741" type="qcurve" smooth="yes"/>
      <point x="419" y="741"/>
      <point x="285" y="659"/>
      <point x="255" y="577" type="qcurve"/>
    </contour>
  </outline>
</glyph>
<glyph name="six" format="1">
  <advance width="1021"/>
  <unicode hex="0036"/>
  <outline>
    <contour>
      <point x="581" y="1329" type="qcurve"/>
      <point x="649" y="1329"/>
      <point x="780" y="1300"/>
      <point x="831" y="1270" type="qcurve"/>
      <point x="804" y="1186" type="line"/>
      <point x="752" y="1215"/>
      <point x="652" y="1242"/>
      <point x="581" y="1242" type="qcurve"/>
      <point x="434" y="1242"/>
      <point x="242" y="1015"/>
      <point x="242" y="831" type="qcurve"/>
      <point x="242" y="689" type="line"/>
      <point x="290" y="767"/>
      <point x="460" y="865"/>
      <point x="567" y="865" type="qcurve"/>
      <point x="744" y="865"/>
      <point x="948" y="621"/>
      <point x="948" y="425" type="qcurve"/>
      <point x="948" y="232"/>
      <point x="728" y="-19"/>
      <point x="552" y="-19" type="qcurve"/>
      <point x="372" y="-19"/>
      <point x="139" y="250"/>
      <point x="139" y="484" type="qcurve"/>
      <point x="139" y="822" type="line"/>
      <point x="139" y="1046"/>
      <point x="394" y="1329"/>
    </contour>
    <contour>
      <point x="546" y="781" type="qcurve"/>
      <point x="429" y="781"/>
      <point x="256" y="643"/>
      <point x="242" y="544" type="qcurve"/>
      <point x="242" y="477" type="line"/>
      <point x="242" y="288"/>
      <point x="416" y="68"/>
      <point x="552" y="68" type="qcurve"/>
      <point x="685" y="68"/>
      <point x="845" y="276"/>
      <point x="845" y="425" type="qcurve"/>
      <point x="845" y="585"/>
      <point x="690" y="781"/>
    </contour>
  </outline>
</glyph>
<glyph name="seven" format="1">
  <advance width="1021"/>
  <unicode hex="0037"/>
  <outline>
    <contour>
      <point x="927" y="1223" type="line"/>
      <point x="715" y="974"/>
      <point x="489" y="457"/>
      <point x="449" y="107" type="qcurve" smooth="yes"/>
      <point x="440" y="0" type="line"/>
      <point x="337" y="0" type="line"/>
      <point x="347" y="107" type="line"/>
      <point x="385" y="443"/>
      <point x="622" y="987"/>
      <point x="820" y="1223" type="qcurve"/>
      <point x="69" y="1223" type="line"/>
      <point x="69" y="1310" type="line"/>
      <point x="927" y="1310" type="line"/>
    </contour>
  </outline>
</glyph>
<glyph name="eight" format="1">
  <advance width="1021"/>
  <unicode hex="0038"/>
  <outline>
    <contour>
      <point x="896" y="971" type="qcurve" smooth="yes"/>
      <point x="896" y="865"/>
      <point x="770" y="705"/>
      <point x="666" y="670" type="qcurve"/>
      <point x="785" y="633"/>
      <point x="932" y="460"/>
      <point x="932" y="345" type="qcurve" smooth="yes"/>
      <point x="932" y="168"/>
      <point x="697" y="-21"/>
      <point x="512" y="-21" type="qcurve" smooth="yes"/>
      <point x="324" y="-21"/>
      <point x="90" y="168"/>
      <point x="90" y="345" type="qcurve" smooth="yes"/>
      <point x="90" y="461"/>
      <point x="234" y="634"/>
      <point x="354" y="670" type="qcurve"/>
      <point x="250" y="705"/>
      <point x="127" y="865"/>
      <point x="127" y="971" type="qcurve" smooth="yes"/>
      <point x="127" y="1140"/>
      <point x="340" y="1327"/>
      <point x="511" y="1327" type="qcurve" smooth="yes"/>
      <point x="679" y="1327"/>
      <point x="896" y="1140"/>
    </contour>
    <contour>
      <point x="829" y="344" type="qcurve" smooth="yes"/>
      <point x="829" y="469"/>
      <point x="647" y="627"/>
      <point x="511" y="627" type="qcurve" smooth="yes"/>
      <point x="372" y="627"/>
      <point x="193" y="469"/>
      <point x="193" y="344" type="qcurve" smooth="yes"/>
      <point x="193" y="213"/>
      <point x="370" y="66"/>
      <point x="512" y="66" type="qcurve" smooth="yes"/>
      <point x="650" y="66"/>
      <point x="829" y="214"/>
    </contour>
    <contour>
      <point x="792" y="973" type="qcurve" smooth="yes"/>
      <point x="792" y="1088"/>
      <point x="630" y="1240"/>
      <point x="511" y="1240" type="qcurve" smooth="yes"/>
      <point x="387" y="1240"/>
      <point x="230" y="1094"/>
      <point x="230" y="973" type="qcurve" smooth="yes"/>
      <point x="230" y="854"/>
      <point x="388" y="714"/>
      <point x="512" y="714" type="qcurve" smooth="yes"/>
      <point x="633" y="714"/>
      <point x="792" y="855"/>
    </contour>
  </outline>
</glyph>
<glyph name="nine" format="1">
  <advance width="1021"/>
  <unicode hex="0039"/>
  <outline>
    <contour>
      <point x="461" y="68" type="qcurve"/>
      <point x="611" y="68"/>
      <point x="788" y="268"/>
      <point x="788" y="453" type="qcurve"/>
      <point x="788" y="625" type="line"/>
      <point x="740" y="542"/>
      <point x="578" y="449"/>
      <point x="478" y="449" type="qcurve"/>
      <point x="300" y="449"/>
      <point x="81" y="692"/>
      <point x="81" y="880" type="qcurve"/>
      <point x="81" y="1071"/>
      <point x="309" y="1329"/>
      <point x="479" y="1329" type="qcurve"/>
      <point x="668" y="1329"/>
      <point x="896" y="1083"/>
      <point x="896" y="848" type="qcurve"/>
      <point x="896" y="455" type="line"/>
      <point x="896" y="230"/>
      <point x="656" y="-19"/>
      <point x="461" y="-19" type="qcurve"/>
      <point x="391" y="-19"/>
      <point x="249" y="9"/>
      <point x="184" y="36" type="qcurve"/>
      <point x="204" y="123" type="line"/>
      <point x="265" y="94"/>
      <point x="384" y="68"/>
    </contour>
    <contour>
      <point x="478" y="536" type="qcurve"/>
      <point x="596" y="536"/>
      <point x="755" y="660"/>
      <point x="788" y="750" type="qcurve"/>
      <point x="788" y="855" type="line"/>
      <point x="788" y="1043"/>
      <point x="624" y="1242"/>
      <point x="483" y="1242" type="qcurve"/>
      <point x="355" y="1242"/>
      <point x="188" y="1029"/>
      <point x="188" y="880" type="qcurve"/>
      <point x="188" y="735"/>
      <point x="346" y="536"/>
    </contour>
  </outline>
</glyph>
<glyph name="less" format="1">
  <advance width="943"/>
  <unicode hex="003C"/>
  <outline>
    <contour>
      <point x="259" y="512" type="line"/>
      <point x="165" y="486" type="line"/>
      <point x="165" y="481" type="line"/>
      <point x="259" y="455" type="line"/>
      <point x="815" y="211" type="line"/>
      <point x="815" y="103" type="line"/>
      <point x="70" y="444" type="line"/>
      <point x="70" y="527" type="line"/>
      <point x="815" y="868" type="line"/>
      <point x="815" y="761" type="line"/>
    </contour>
  </outline>
</glyph>
<glyph name="equal" format="1">
  <advance width="1032"/>
  <unicode hex="003D"/>
  <outline>
    <contour>
      <point x="885" y="751" type="line"/>
      <point x="134" y="751" type="line"/>
      <point x="134" y="841" type="line"/>
      <point x="885" y="841" type="line"/>
    </contour>
    <contour>
      <point x="885" y="381" type="line"/>
      <point x="134" y="381" type="line"/>
      <point x="134" y="472" type="line"/>
      <point x="885" y="472" type="line"/>
    </contour>
  </outline>
</glyph>
<glyph name="greater" format="1">
  <advance width="955"/>
  <unicode hex="003E"/>
  <outline>
    <contour>
      <point x="111" y="775" type="line"/>
      <point x="111" y="880" type="line"/>
      <point x="871" y="540" type="line"/>
      <point x="871" y="457" type="line"/>
      <point x="111" y="116" type="line"/>
      <point x="111" y="221" type="line"/>
      <point x="682" y="471" type="line"/>
      <point x="775" y="496" type="line"/>
      <point x="775" y="501" type="line"/>
      <point x="682" y="529" type="line"/>
    </contour>
  </outline>
</glyph>
<glyph name="question" format="1">
  <advance width="1022"/>
  <unicode hex="003F"/>
  <outline>
    <contour>
      <point x="441" y="364" type="line"/>
      <point x="442" y="479"/>
      <point x="481" y="573"/>
      <point x="564" y="649" type="qcurve"/>
      <point x="665" y="753"/>
      <point x="751" y="886"/>
      <point x="751" y="993" type="qcurve"/>
      <point x="751" y="1109"/>
      <point x="628" y="1239"/>
      <point x="513" y="1239" type="qcurve"/>
      <point x="405" y="1239"/>
      <point x="276" y="1113"/>
      <point x="274" y="1004" type="qcurve"/>
      <point x="179" y="1004" type="line"/>
      <point x="176" y="1010" type="line"/>
      <point x="173" y="1160"/>
      <point x="365" y="1329"/>
      <point x="513" y="1329" type="qcurve"/>
      <point x="674" y="1329"/>
      <point x="855" y="1147"/>
      <point x="855" y="993" type="qcurve"/>
      <point x="855" y="871"/>
      <point x="736" y="684"/>
      <point x="626" y="582" type="qcurve"/>
      <point x="569" y="533"/>
      <point x="545" y="450"/>
      <point x="545" y="364" type="qcurve"/>
    </contour>
    <contour>
      <point x="560" y="0" type="line"/>
      <point x="439" y="0" type="line"/>
      <point x="439" y="134" type="line"/>
      <point x="560" y="134" type="line"/>
    </contour>
  </outline>
</glyph>
<glyph name="A" format="1">
  <advance width="1206"/>
  <unicode hex="0041"/>
  <outline>
    <contour>
      <point x="914" y="386" type="line"/>
      <point x="287" y="386" type="line"/>
      <point x="134" y="0" type="line"/>
      <point x="25" y="0" type="line"/>
      <point x="580" y="1310" type="line"/>
      <point x="632" y="1310" type="line"/>
      <point x="1172" y="0" type="line"/>
      <point x="1065" y="0" type="line"/>
    </contour>
    <contour>
      <point x="334" y="484" type="line"/>
      <point x="869" y="484" type="line"/>
      <point x="608" y="1155" type="line"/>
      <point x="603" y="1155" type="line"/>
    </contour>
  </outline>
</glyph>
<glyph name="B" format="1">
  <advance width="1140"/>
  <unicode hex="0042"/>
  <outline>
    <contour>
      <point x="172" y="0" type="line"/>
      <point x="172" y="1310" type="line"/>
      <point x="553" y="1310" type="line"/>
      <point x="756" y="1310"/>
      <point x="984" y="1139"/>
      <point x="984" y="967" type="qcurve" smooth="yes"/>
      <point x="984" y="863"/>
      <point x="868" y="712"/>
      <point x="766" y="687" type="qcurve"/>
      <point x="887" y="666"/>
      <point x="1041" y="485"/>
      <point x="1041" y="365" type="qcurve" smooth="yes"/>
      <point x="1041" y="189"/>
      <point x="814" y="0"/>
      <point x="624" y="0" type="qcurve" smooth="yes"/>
    </contour>
    <contour>
      <point x="276" y="633" type="line"/>
      <point x="276" y="87" type="line"/>
      <point x="624" y="87" type="line"/>
      <point x="770" y="87"/>
      <point x="938" y="232"/>
      <point x="938" y="363" type="qcurve" smooth="yes"/>
      <point x="938" y="481"/>
      <point x="784" y="633"/>
      <point x="640" y="633" type="qcurve" smooth="yes"/>
    </contour>
    <contour>
      <point x="276" y="720" type="line"/>
      <point x="578" y="720" type="line"/>
      <point x="723" y="720"/>
      <point x="881" y="846"/>
      <point x="881" y="970" type="qcurve" smooth="yes"/>
      <point x="881" y="1096"/>
      <point x="714" y="1223"/>
      <point x="553" y="1223" type="qcurve" smooth="yes"/>
      <point x="276" y="1223" type="line"/>
    </contour>
  </outline>
</glyph>
<glyph name="C" format="1">
  <advance width="1183"/>
  <unicode hex="0043"/>
  <outline>
    <contour>
      <point x="1069" y="409" type="line"/>
      <point x="1071" y="404" type="line"/>
      <point x="1074" y="209"/>
      <point x="817" y="-19"/>
      <point x="606" y="-19" type="qcurve"/>
      <point x="388" y="-19"/>
      <point x="120" y="298"/>
      <point x="120" y="549" type="qcurve"/>
      <point x="120" y="761" type="line"/>
      <point x="120" y="1012"/>
      <point x="388" y="1329"/>
      <point x="606" y="1329" type="qcurve"/>
      <point x="818" y="1329"/>
      <point x="1074" y="1106"/>
      <point x="1071" y="908" type="qcurve"/>
      <point x="1069" y="903" type="line"/>
      <point x="973" y="903" type="line"/>
      <point x="973" y="1063"/>
      <point x="777" y="1242"/>
      <point x="606" y="1242" type="qcurve"/>
      <point x="432" y="1242"/>
      <point x="223" y="974"/>
      <point x="223" y="763" type="qcurve"/>
      <point x="223" y="549" type="line"/>
      <point x="223" y="336"/>
      <point x="432" y="68"/>
      <point x="606" y="68" type="qcurve"/>
      <point x="777" y="68"/>
      <point x="973" y="242"/>
      <point x="973" y="409" type="qcurve"/>
    </contour>
  </outline>
</glyph>
<glyph name="D" format="1">
  <advance width="1209"/>
  <unicode hex="0044"/>
  <outline>
    <contour>
      <point x="172" y="0" type="line"/>
      <point x="172" y="1310" type="line"/>
      <point x="552" y="1310" type="line"/>
      <point x="792" y="1310"/>
      <point x="1105" y="989"/>
      <point x="1105" y="739" type="qcurve"/>
      <point x="1105" y="571" type="line"/>
      <point x="1105" y="319"/>
      <point x="792" y="0"/>
      <point x="552" y="0" type="qcurve"/>
    </contour>
    <contour>
      <point x="276" y="1223" type="line"/>
      <point x="276" y="87" type="line"/>
      <point x="552" y="87" type="line"/>
      <point x="747" y="87"/>
      <point x="1001" y="360"/>
      <point x="1001" y="571" type="qcurve"/>
      <point x="1001" y="741" type="line"/>
      <point x="1001" y="949"/>
      <point x="747" y="1223"/>
      <point x="552" y="1223" type="qcurve"/>
    </contour>
  </outline>
</glyph>
<glyph name="E" format="1">
  <advance width="1061"/>
  <unicode hex="0045"/>
  <outline>
    <contour>
      <point x="909" y="637" type="line"/>
      <point x="276" y="637" type="line"/>
      <point x="276" y="87" type="line"/>
      <point x="1000" y="87" type="line"/>
      <point x="1000" y="0" type="line"/>
      <point x="172" y="0" type="line"/>
      <point x="172" y="1310" type="line"/>
      <point x="996" y="1310" type="line"/>
      <point x="996" y="1223" type="line"/>
      <point x="276" y="1223" type="line"/>
      <point x="276" y="724" type="line"/>
      <point x="909" y="724" type="line"/>
    </contour>
  </outline>
</glyph>
<glyph name="F" format="1">
  <advance width="1063"/>
  <unicode hex="0046"/>
  <outline>
    <contour>
      <point x="916" y="617" type="line"/>
      <point x="276" y="617" type="line"/>
      <point x="276" y="0" type="line"/>
      <point x="172" y="0" type="line"/>
      <point x="172" y="1310" type="line"/>
      <point x="1008" y="1310" type="line"/>
      <point x="1008" y="1223" type="line"/>
      <point x="276" y="1223" type="line"/>
      <point x="276" y="705" type="line"/>
      <point x="916" y="705" type="line"/>
    </contour>
  </outline>
</glyph>
<glyph name="G" format="1">
  <advance width="1261"/>
  <unicode hex="0047"/>
  <outline>
    <contour>
      <point x="1106" y="154" type="line"/>
      <point x="1063" y="91"/>
      <point x="830" y="-19"/>
      <point x="653" y="-19" type="qcurve"/>
      <point x="424" y="-19"/>
      <point x="133" y="293"/>
      <point x="133" y="542" type="qcurve"/>
      <point x="133" y="780" type="line"/>
      <point x="133" y="1023"/>
      <point x="411" y="1329"/>
      <point x="632" y="1329" type="qcurve"/>
      <point x="847" y="1329"/>
      <point x="1097" y="1111"/>
      <point x="1099" y="939" type="qcurve"/>
      <point x="1097" y="934" type="line"/>
      <point x="1002" y="934" type="line"/>
      <point x="995" y="1070"/>
      <point x="808" y="1242"/>
      <point x="632" y="1242" type="qcurve"/>
      <point x="454" y="1242"/>
      <point x="237" y="983"/>
      <point x="237" y="782" type="qcurve"/>
      <point x="237" y="542" type="line"/>
      <point x="237" y="333"/>
      <point x="467" y="68"/>
      <point x="653" y="68" type="qcurve"/>
      <point x="784" y="68"/>
      <point x="970" y="142"/>
      <point x="1004" y="186" type="qcurve"/>
      <point x="1004" y="532" type="line"/>
      <point x="651" y="532" type="line"/>
      <point x="651" y="620" type="line"/>
      <point x="1106" y="620" type="line"/>
    </contour>
  </outline>
</glyph>
<glyph name="H" format="1">
  <advance width="1303"/>
  <unicode hex="0048"/>
  <outline>
    <contour>
      <point x="1131" y="0" type="line"/>
      <point x="1028" y="0" type="line"/>
      <point x="1028" y="606" type="line"/>
      <point x="276" y="606" type="line"/>
      <point x="276" y="0" type="line"/>
      <point x="172" y="0" type="line"/>
      <point x="172" y="1310" type="line"/>
      <point x="276" y="1310" type="line"/>
      <point x="276" y="693" type="line"/>
      <point x="1028" y="693" type="line"/>
      <point x="1028" y="1310" type="line"/>
      <point x="1131" y="1310" type="line"/>
    </contour>
  </outline>
</glyph>
<glyph name="I" format="1">
  <advance width="498"/>
  <unicode hex="0049"/>
  <outline>
    <contour>
      <point x="301" y="0" type="line"/>
      <point x="197" y="0" type="line"/>
      <point x="197" y="1310" type="line"/>
      <point x="301" y="1310" type="line"/>
    </contour>
  </outline>
</glyph>
<glyph name="J" format="1">
  <advance width="1015"/>
  <unicode hex="004A"/>
  <outline>
    <contour>
      <point x="746" y="1308" type="line"/>
      <point x="850" y="1308" type="line"/>
      <point x="850" y="371" type="line"/>
      <point x="850" y="191"/>
      <point x="637" y="-21"/>
      <point x="468" y="-21" type="qcurve" smooth="yes"/>
      <point x="284" y="-21"/>
      <point x="71" y="170"/>
      <point x="75" y="353" type="qcurve"/>
      <point x="77" y="359" type="line"/>
      <point x="173" y="359" type="line"/>
      <point x="173" y="215"/>
      <point x="326" y="66"/>
      <point x="468" y="66" type="qcurve" smooth="yes"/>
      <point x="589" y="66"/>
      <point x="746" y="231"/>
      <point x="746" y="371" type="qcurve" smooth="yes"/>
    </contour>
  </outline>
</glyph>
<glyph name="K" format="1">
  <advance width="1176"/>
  <unicode hex="004B"/>
  <outline>
    <contour>
      <point x="456" y="619" type="line"/>
      <point x="276" y="619" type="line"/>
      <point x="276" y="0" type="line"/>
      <point x="172" y="0" type="line"/>
      <point x="172" y="1310" type="line"/>
      <point x="276" y="1310" type="line"/>
      <point x="276" y="706" type="line"/>
      <point x="457" y="706" type="line"/>
      <point x="976" y="1310" type="line"/>
      <point x="1093" y="1310" type="line"/>
      <point x="1095" y="1306" type="line"/>
      <point x="548" y="666" type="line"/>
      <point x="1134" y="5" type="line"/>
      <point x="1131" y="0" type="line"/>
      <point x="1009" y="0" type="line"/>
    </contour>
  </outline>
</glyph>
<glyph name="L" format="1">
  <advance width="970"/>
  <unicode hex="004C"/>
  <outline>
    <contour>
      <point x="276" y="87" type="line"/>
      <point x="926" y="87" type="line"/>
      <point x="926" y="0" type="line"/>
      <point x="172" y="0" type="line"/>
      <point x="172" y="1310" type="line"/>
      <point x="276" y="1310" type="line"/>
    </contour>
  </outline>
</glyph>
<glyph name="M" format="1">
  <advance width="1629"/>
  <unicode hex="004D"/>
  <outline>
    <contour>
      <point x="324" y="1310" type="line"/>
      <point x="812" y="161" type="line"/>
      <point x="818" y="161" type="line"/>
      <point x="1304" y="1310" type="line"/>
      <point x="1431" y="1310" type="line"/>
      <point x="1431" y="0" type="line"/>
      <point x="1328" y="0" type="line"/>
      <point x="1328" y="629" type="line"/>
      <point x="1340" y="1125" type="line"/>
      <point x="1335" y="1126" type="line"/>
      <point x="848" y="0" type="line"/>
      <point x="780" y="0" type="line"/>
      <point x="294" y="1125" type="line"/>
      <point x="289" y="1126" type="line"/>
      <point x="299" y="629" type="line"/>
      <point x="299" y="0" type="line"/>
      <point x="196" y="0" type="line"/>
      <point x="196" y="1310" type="line"/>
    </contour>
  </outline>
</glyph>
<glyph name="N" format="1">
  <advance width="1309"/>
  <unicode hex="004E"/>
  <outline>
    <contour>
      <point x="1136" y="0" type="line"/>
      <point x="1034" y="0" type="line"/>
      <point x="282" y="1132" type="line"/>
      <point x="276" y="1131" type="line"/>
      <point x="276" y="0" type="line"/>
      <point x="172" y="0" type="line"/>
      <point x="172" y="1310" type="line"/>
      <point x="276" y="1310" type="line"/>
      <point x="1028" y="181" type="line"/>
      <point x="1034" y="183" type="line"/>
      <point x="1034" y="1310" type="line"/>
      <point x="1136" y="1310" type="line"/>
    </contour>
  </outline>
</glyph>
<glyph name="O" format="1">
  <advance width="1240"/>
  <unicode hex="004F"/>
  <outline>
    <contour>
      <point x="1128" y="549" type="line"/>
      <point x="1128" y="295"/>
      <point x="850" y="-19"/>
      <point x="616" y="-19" type="qcurve"/>
      <point x="386" y="-19"/>
      <point x="112" y="295"/>
      <point x="112" y="549" type="qcurve"/>
      <point x="112" y="761" type="line"/>
      <point x="112" y="1015"/>
      <point x="385" y="1329"/>
      <point x="615" y="1329" type="qcurve"/>
      <point x="849" y="1329"/>
      <point x="1128" y="1015"/>
      <point x="1128" y="761" type="qcurve"/>
    </contour>
    <contour>
      <point x="1024" y="763" type="line"/>
      <point x="1024" y="978"/>
      <point x="808" y="1239"/>
      <point x="615" y="1239" type="qcurve"/>
      <point x="427" y="1239"/>
      <point x="216" y="978"/>
      <point x="216" y="763" type="qcurve"/>
      <point x="216" y="549" type="line"/>
      <point x="216" y="332"/>
      <point x="427" y="71"/>
      <point x="616" y="71" type="qcurve"/>
      <point x="809" y="71"/>
      <point x="1024" y="331"/>
      <point x="1024" y="549" type="qcurve"/>
    </contour>
  </outline>
</glyph>
<glyph name="P" format="1">
  <advance width="1138"/>
  <unicode hex="0050"/>
  <outline>
    <contour>
      <point x="276" y="547" type="line"/>
      <point x="276" y="0" type="line"/>
      <point x="172" y="0" type="line"/>
      <point x="172" y="1310" type="line"/>
      <point x="621" y="1310" type="line"/>
      <point x="827" y="1310"/>
      <point x="1052" y="1101"/>
      <point x="1052" y="929" type="qcurve" smooth="yes"/>
      <point x="1052" y="755"/>
      <point x="828" y="547"/>
      <point x="621" y="547" type="qcurve" smooth="yes"/>
    </contour>
    <contour>
      <point x="276" y="634" type="line"/>
      <point x="621" y="634" type="line"/>
      <point x="785" y="634"/>
      <point x="949" y="801"/>
      <point x="949" y="927" type="qcurve" smooth="yes"/>
      <point x="949" y="1055"/>
      <point x="785" y="1223"/>
      <point x="621" y="1223" type="qcurve" smooth="yes"/>
      <point x="276" y="1223" type="line"/>
    </contour>
  </outline>
</glyph>
<glyph name="Q" format="1">
  <advance width="1240"/>
  <unicode hex="0051"/>
  <outline>
    <contour>
      <point x="1128" y="549" type="line"/>
      <point x="1128" y="400"/>
      <point x="1030" y="165"/>
      <point x="940" y="91" type="qcurve"/>
      <point x="1166" y="-126" type="line"/>
      <point x="1094" y="-194" type="line"/>
      <point x="853" y="34" type="line"/>
      <point x="801" y="8"/>
      <point x="682" y="-19"/>
      <point x="616" y="-19" type="qcurve"/>
      <point x="386" y="-19"/>
      <point x="112" y="295"/>
      <point x="112" y="549" type="qcurve"/>
      <point x="112" y="761" type="line"/>
      <point x="112" y="1015"/>
      <point x="385" y="1329"/>
      <point x="615" y="1329" type="qcurve"/>
      <point x="849" y="1329"/>
      <point x="1128" y="1015"/>
      <point x="1128" y="761" type="qcurve"/>
    </contour>
    <contour>
      <point x="1024" y="763" type="line"/>
      <point x="1024" y="978"/>
      <point x="808" y="1239"/>
      <point x="615" y="1239" type="qcurve"/>
      <point x="427" y="1239"/>
      <point x="216" y="978"/>
      <point x="216" y="763" type="qcurve"/>
      <point x="216" y="549" type="line"/>
      <point x="216" y="332"/>
      <point x="427" y="71"/>
      <point x="616" y="71" type="qcurve"/>
      <point x="809" y="71"/>
      <point x="1024" y="331"/>
      <point x="1024" y="549" type="qcurve"/>
    </contour>
  </outline>
</glyph>
<glyph name="R" format="1">
  <advance width="1212"/>
  <unicode hex="0052"/>
  <outline>
    <contour>
      <point x="273" y="595" type="line"/>
      <point x="273" y="-1" type="line"/>
      <point x="169" y="-1" type="line"/>
      <point x="169" y="1309" type="line"/>
      <point x="611" y="1309" type="line"/>
      <point x="822" y="1309"/>
      <point x="1046" y="1125"/>
      <point x="1046" y="949" type="qcurve"/>
      <point x="1046" y="843"/>
      <point x="921" y="676"/>
      <point x="808" y="641" type="qcurve"/>
      <point x="935" y="612"/>
      <point x="1045" y="454"/>
      <point x="1045" y="334" type="qcurve"/>
      <point x="1045" y="211" type="line"/>
      <point x="1045" y="149"/>
      <point x="1074" y="52"/>
      <point x="1107" y="22" type="qcurve"/>
      <point x="1107" y="-1" type="line"/>
      <point x="1002" y="-1" type="line"/>
      <point x="969" y="34"/>
      <point x="942" y="147"/>
      <point x="942" y="212" type="qcurve"/>
      <point x="942" y="332" type="line"/>
      <point x="942" y="454"/>
      <point x="784" y="595"/>
      <point x="643" y="595" type="qcurve"/>
    </contour>
    <contour>
      <point x="273" y="682" type="line"/>
      <point x="598" y="682" type="line"/>
      <point x="778" y="682"/>
      <point x="944" y="828"/>
      <point x="944" y="950" type="qcurve"/>
      <point x="944" y="1081"/>
      <point x="778" y="1223"/>
      <point x="611" y="1223" type="qcurve"/>
      <point x="273" y="1223" type="line"/>
    </contour>
  </outline>
</glyph>
<glyph name="S" format="1">
  <advance width="1121"/>
  <unicode hex="0053"/>
  <outline>
    <contour>
      <point x="928" y="321" type="qcurve"/>
      <point x="928" y="430"/>
      <point x="767" y="567"/>
      <point x="565" y="619" type="qcurve"/>
      <point x="348" y="675"/>
      <point x="129" y="845"/>
      <point x="129" y="992" type="qcurve"/>
      <point x="129" y="1142"/>
      <point x="377" y="1329"/>
      <point x="571" y="1329" type="qcurve"/>
      <point x="773" y="1329"/>
      <point x="1020" y="1106"/>
      <point x="1016" y="943" type="qcurve"/>
      <point x="1014" y="937" type="line"/>
      <point x="919" y="937" type="line"/>
      <point x="919" y="1071"/>
      <point x="730" y="1242"/>
      <point x="571" y="1242" type="qcurve"/>
      <point x="412" y="1242"/>
      <point x="233" y="1099"/>
      <point x="233" y="995" type="qcurve"/>
      <point x="233" y="894"/>
      <point x="396" y="761"/>
      <point x="599" y="709" type="qcurve"/>
      <point x="812" y="654"/>
      <point x="1032" y="474"/>
      <point x="1032" y="323" type="qcurve"/>
      <point x="1032" y="166"/>
      <point x="776" y="-19"/>
      <point x="577" y="-19" type="qcurve"/>
      <point x="380" y="-19"/>
      <point x="89" y="177"/>
      <point x="93" y="367" type="qcurve"/>
      <point x="95" y="372" type="line"/>
      <point x="191" y="372" type="line"/>
      <point x="191" y="217"/>
      <point x="420" y="68"/>
      <point x="577" y="68" type="qcurve"/>
      <point x="733" y="68"/>
      <point x="928" y="207"/>
    </contour>
  </outline>
</glyph>
<glyph name="T" format="1">
  <advance width="1093"/>
  <unicode hex="0054"/>
  <outline>
    <contour>
      <point x="1051" y="1223" type="line"/>
      <point x="598" y="1223" type="line"/>
      <point x="598" y="0" type="line"/>
      <point x="495" y="0" type="line"/>
      <point x="495" y="1223" type="line"/>
      <point x="42" y="1223" type="line"/>
      <point x="42" y="1310" type="line"/>
      <point x="1051" y="1310" type="line"/>
    </contour>
  </outline>
</glyph>
<glyph name="U" format="1">
  <advance width="1237"/>
  <unicode hex="0055"/>
  <outline>
    <contour>
      <point x="1087" y="1308" type="line"/>
      <point x="1087" y="420" type="line"/>
      <point x="1087" y="206"/>
      <point x="826" y="-21"/>
      <point x="616" y="-21" type="qcurve" smooth="yes"/>
      <point x="408" y="-21"/>
      <point x="152" y="207"/>
      <point x="152" y="420" type="qcurve" smooth="yes"/>
      <point x="152" y="1308" type="line"/>
      <point x="255" y="1308" type="line"/>
      <point x="255" y="420" type="line"/>
      <point x="255" y="251"/>
      <point x="455" y="66"/>
      <point x="616" y="66" type="qcurve" smooth="yes"/>
      <point x="779" y="66"/>
      <point x="983" y="251"/>
      <point x="983" y="420" type="qcurve" smooth="yes"/>
      <point x="983" y="1308" type="line"/>
    </contour>
  </outline>
</glyph>
<glyph name="V" format="1">
  <advance width="1129"/>
  <unicode hex="0056"/>
  <outline>
    <contour>
      <point x="536" y="212" type="line"/>
      <point x="562" y="127" type="line"/>
      <point x="568" y="127" type="line"/>
      <point x="594" y="212" type="line"/>
      <point x="990" y="1310" type="line"/>
      <point x="1102" y="1310" type="line"/>
      <point x="614" y="0" type="line"/>
      <point x="515" y="0" type="line"/>
      <point x="27" y="1310" type="line"/>
      <point x="139" y="1310" type="line"/>
    </contour>
  </outline>
</glyph>
<glyph name="W" format="1">
  <advance width="1652"/>
  <unicode hex="0057"/>
  <outline>
    <contour>
      <point x="400" y="364" type="line"/>
      <point x="442" y="176" type="line"/>
      <point x="448" y="175" type="line"/>
      <point x="496" y="364" type="line"/>
      <point x="775" y="1310" type="line"/>
      <point x="873" y="1310" type="line"/>
      <point x="1153" y="364" type="line"/>
      <point x="1201" y="173" type="line"/>
      <point x="1206" y="173" type="line"/>
      <point x="1251" y="364" type="line"/>
      <point x="1489" y="1310" type="line"/>
      <point x="1595" y="1310" type="line"/>
      <point x="1258" y="0" type="line"/>
      <point x="1158" y="0" type="line"/>
      <point x="862" y="1015" type="line"/>
      <point x="827" y="1140" type="line"/>
      <point x="822" y="1140" type="line"/>
      <point x="788" y="1015" type="line"/>
      <point x="489" y="0" type="line"/>
      <point x="390" y="0" type="line"/>
      <point x="52" y="1310" type="line"/>
      <point x="158" y="1310" type="line"/>
    </contour>
  </outline>
</glyph>
<glyph name="X" format="1">
  <advance width="1129"/>
  <unicode hex="0058"/>
  <outline>
    <contour>
      <point x="564" y="746" type="line"/>
      <point x="938" y="1310" type="line"/>
      <point x="1064" y="1310" type="line"/>
      <point x="627" y="666" type="line"/>
      <point x="1078" y="0" type="line"/>
      <point x="954" y="0" type="line"/>
      <point x="566" y="584" type="line"/>
      <point x="178" y="0" type="line"/>
      <point x="53" y="0" type="line"/>
      <point x="504" y="666" type="line"/>
      <point x="67" y="1310" type="line"/>
      <point x="192" y="1310" type="line"/>
    </contour>
  </outline>
</glyph>
<glyph name="Y" format="1">
  <advance width="1111"/>
  <unicode hex="0059"/>
  <outline>
    <contour>
      <point x="0" y="0" type="line"/>
      <point x="1111" y="0" type="line"/>
      <point x="1111" y="20" type="line"/>
      <point x="0" y="20" type="line"/>
    </contour>
  </outline>
</glyph>
<glyph name="Z" format="1">
  <advance width="1102"/>
  <unicode hex="005A"/>
  <outline>
    <contour>
      <point x="209" y="87" type="line"/>
      <point x="1018" y="87" type="line"/>
      <point x="1018" y="0" type="line"/>
      <point x="86" y="0" type="line"/>
      <point x="86" y="79" type="line"/>
      <point x="864" y="1224" type="line"/>
      <point x="111" y="1224" type="line"/>
      <point x="111" y="1310" type="line"/>
      <point x="989" y="1310" type="line"/>
      <point x="989" y="1237" type="line"/>
    </contour>
  </outline>
</glyph>
<glyph name="bracketleft" format="1">
  <advance width="622"/>
  <unicode hex="005B"/>
  <outline>
    <contour>
      <point x="517" y="1410" type="line"/>
      <point x="326" y="1410" type="line"/>
      <point x="326" y="-193" type="line"/>
      <point x="517" y="-193" type="line"/>
      <point x="517" y="-281" type="line"/>
      <point x="223" y="-281" type="line"/>
      <point x="223" y="1498" type="line"/>
      <point x="517" y="1498" type="line"/>
    </contour>
  </outline>
</glyph>
<glyph name="backslash" format="1">
  <advance width="724"/>
  <unicode hex="005C"/>
  <outline>
    <contour>
      <point x="44" y="1298" type="line"/>
      <point x="146" y="1298" type="line"/>
      <point x="693" y="-125" type="line"/>
      <point x="592" y="-125" type="line"/>
    </contour>
  </outline>
</glyph>
<glyph name="asciicircum" format="1">
  <advance width="767"/>
  <unicode hex="005E"/>
  <outline>
    <contour>
      <point x="171" y="729" type="line"/>
      <point x="71" y="729" type="line"/>
      <point x="340" y="1383" type="line"/>
      <point x="418" y="1383" type="line"/>
      <point x="687" y="729" type="line"/>
      <point x="586" y="729" type="line"/>
      <point x="407" y="1170" type="line"/>
      <point x="380" y="1256" type="line"/>
      <point x="375" y="1256" type="line"/>
      <point x="346" y="1170" type="line"/>
    </contour>
  </outline>
</glyph>
<glyph name="underscore" format="1">
  <advance width="794"/>
  <unicode hex="005F"/>
  <outline>
    <contour>
      <point x="792" y="-97" type="line"/>
      <point x="1" y="-97" type="line"/>
      <point x="1" y="-9" type="line"/>
      <point x="792" y="-9" type="line"/>
    </contour>
  </outline>
</glyph>
<glyph name="grave" format="1">
  <advance width="549"/>
  <unicode hex="0060"/>
  <outline>
    <contour>
      <point x="368" y="1089" type="line"/>
      <point x="287" y="1089" type="line"/>
      <point x="78" y="1323" type="line"/>
      <point x="81" y="1328" type="line"/>
      <point x="227" y="1328" type="line"/>
    </contour>
  </outline>
</glyph>
<glyph name="a" format="1">
  <advance width="1034"/>
  <unicode hex="0061"/>
  <outline>
    <contour>
      <point x="774" y="-3" type="line"/>
      <point x="766" y="54"/>
      <point x="763" y="127"/>
      <point x="765" y="164" type="qcurve"/>
      <point x="713" y="88"/>
      <point x="533" y="-21"/>
      <point x="438" y="-21" type="qcurve" smooth="yes"/>
      <point x="279" y="-21"/>
      <point x="126" y="133"/>
      <point x="126" y="272" type="qcurve" smooth="yes"/>
      <point x="126" y="408"/>
      <point x="358" y="566"/>
      <point x="536" y="566" type="qcurve" smooth="yes"/>
      <point x="774" y="566" type="line"/>
      <point x="774" y="677" type="line"/>
      <point x="774" y="775"/>
      <point x="644" y="894"/>
      <point x="530" y="894" type="qcurve" smooth="yes"/>
      <point x="424" y="894"/>
      <point x="286" y="786"/>
      <point x="286" y="720" type="qcurve"/>
      <point x="189" y="719" type="line"/>
      <point x="187" y="724" type="line"/>
      <point x="182" y="814"/>
      <point x="380" y="990"/>
      <point x="534" y="990" type="qcurve" smooth="yes"/>
      <point x="690" y="990"/>
      <point x="879" y="827"/>
      <point x="879" y="675" type="qcurve" smooth="yes"/>
      <point x="879" y="147" type="line"/>
      <point x="879" y="110"/>
      <point x="882" y="34"/>
      <point x="889" y="-2" type="qcurve"/>
    </contour>
    <contour>
      <point x="426" y="89" type="qcurve" smooth="yes"/>
      <point x="551" y="89"/>
      <point x="752" y="224"/>
      <point x="774" y="307" type="qcurve"/>
      <point x="774" y="470" type="line"/>
      <point x="525" y="470" type="line"/>
      <point x="396" y="470"/>
      <point x="232" y="340"/>
      <point x="232" y="256" type="qcurve" smooth="yes"/>
      <point x="232" y="178"/>
      <point x="327" y="89"/>
    </contour>
  </outline>
</glyph>
<glyph name="b" format="1">
  <advance width="1026"/>
  <unicode hex="0062"/>
  <outline>
    <contour>
      <point x="925" y="459" type="line"/>
      <point x="925" y="240"/>
      <point x="728" y="-21"/>
      <point x="554" y="-21" type="qcurve" smooth="yes"/>
      <point x="447" y="-21"/>
      <point x="288" y="64"/>
      <point x="240" y="141" type="qcurve"/>
      <point x="228" y="-2" type="line"/>
      <point x="143" y="-2" type="line"/>
      <point x="143" y="1402" type="line"/>
      <point x="246" y="1402" type="line"/>
      <point x="246" y="823" type="line"/>
      <point x="293" y="901"/>
      <point x="448" y="990"/>
      <point x="552" y="990" type="qcurve" smooth="yes"/>
      <point x="727" y="990"/>
      <point x="925" y="711"/>
      <point x="925" y="478" type="qcurve" smooth="yes"/>
    </contour>
    <contour>
      <point x="821" y="478" type="line"/>
      <point x="821" y="665"/>
      <point x="676" y="901"/>
      <point x="533" y="901" type="qcurve" smooth="yes"/>
      <point x="418" y="901"/>
      <point x="279" y="785"/>
      <point x="246" y="696" type="qcurve"/>
      <point x="246" y="255" type="line"/>
      <point x="281" y="169"/>
      <point x="426" y="68"/>
      <point x="535" y="68" type="qcurve" smooth="yes"/>
      <point x="677" y="68"/>
      <point x="821" y="280"/>
      <point x="821" y="459" type="qcurve" smooth="yes"/>
    </contour>
  </outline>
</glyph>
<glyph name="c" format="1">
  <advance width="953"/>
  <unicode hex="0063"/>
  <outline>
    <contour>
      <point x="502" y="66" type="qcurve" smooth="yes"/>
      <point x="610" y="66"/>
      <point x="776" y="190"/>
      <point x="776" y="301" type="qcurve"/>
      <point x="867" y="301" type="line"/>
      <point x="869" y="295" type="line"/>
      <point x="873" y="160"/>
      <point x="650" y="-21"/>
      <point x="502" y="-21" type="qcurve" smooth="yes"/>
      <point x="305" y="-21"/>
      <point x="87" y="251"/>
      <point x="87" y="466" type="qcurve" smooth="yes"/>
      <point x="87" y="504" type="line"/>
      <point x="87" y="718"/>
      <point x="304" y="990"/>
      <point x="501" y="990" type="qcurve" smooth="yes"/>
      <point x="661" y="990"/>
      <point x="873" y="802"/>
      <point x="870" y="647" type="qcurve"/>
      <point x="868" y="642" type="line"/>
      <point x="776" y="642" type="line"/>
      <point x="776" y="762"/>
      <point x="617" y="902"/>
      <point x="501" y="902" type="qcurve" smooth="yes"/>
      <point x="343" y="902"/>
      <point x="191" y="676"/>
      <point x="191" y="504" type="qcurve" smooth="yes"/>
      <point x="191" y="466" type="line"/>
      <point x="191" y="291"/>
      <point x="343" y="66"/>
    </contour>
  </outline>
</glyph>
<glyph name="d" format="1">
  <advance width="1026"/>
  <unicode hex="0064"/>
  <outline>
    <contour>
      <point x="101" y="480" type="line"/>
      <point x="101" y="713"/>
      <point x="298" y="992"/>
      <point x="474" y="992" type="qcurve"/>
      <point x="576" y="992"/>
      <point x="728" y="906"/>
      <point x="776" y="829" type="qcurve"/>
      <point x="776" y="1404" type="line"/>
      <point x="880" y="1404" type="line"/>
      <point x="880" y="0" type="line"/>
      <point x="791" y="0" type="line"/>
      <point x="781" y="138" type="line"/>
      <point x="733" y="64"/>
      <point x="577" y="-19"/>
      <point x="472" y="-19" type="qcurve"/>
      <point x="297" y="-19"/>
      <point x="101" y="242"/>
      <point x="101" y="461" type="qcurve"/>
    </contour>
    <contour>
      <point x="205" y="461" type="line"/>
      <point x="205" y="282"/>
      <point x="347" y="70"/>
      <point x="491" y="70" type="qcurve"/>
      <point x="597" y="70"/>
      <point x="740" y="167"/>
      <point x="776" y="250" type="qcurve"/>
      <point x="776" y="705" type="line"/>
      <point x="741" y="791"/>
      <point x="605" y="903"/>
      <point x="493" y="903" type="qcurve"/>
      <point x="349" y="903"/>
      <point x="205" y="667"/>
      <point x="205" y="480" type="qcurve"/>
    </contour>
  </outline>
</glyph>
<glyph name="e" format="1">
  <advance width="975"/>
  <unicode hex="0065"/>
  <outline>
    <contour>
      <point x="534" y="-19" type="qcurve"/>
      <point x="336" y="-19"/>
      <point x="106" y="253"/>
      <point x="106" y="476" type="qcurve"/>
      <point x="106" y="519" type="line"/>
      <point x="106" y="717"/>
      <point x="363" y="991"/>
      <point x="504" y="992" type="qcurve"/>
      <point x="701" y="992"/>
      <point x="888" y="754"/>
      <point x="888" y="559" type="qcurve"/>
      <point x="888" y="476" type="line"/>
      <point x="214" y="476" type="line"/>
      <point x="210" y="473" type="line"/>
      <point x="209" y="295"/>
      <point x="364" y="65"/>
      <point x="511" y="65" type="qcurve"/>
      <point x="602" y="65"/>
      <point x="757" y="130"/>
      <point x="789" y="182" type="qcurve"/>
      <point x="856" y="107" type="line"/>
      <point x="811" y="52"/>
      <point x="658" y="-19"/>
    </contour>
    <contour>
      <point x="504" y="906" type="qcurve"/>
      <point x="401" y="906"/>
      <point x="241" y="724"/>
      <point x="221" y="591" type="qcurve"/>
      <point x="223" y="586" type="line"/>
      <point x="780" y="586" type="line"/>
      <point x="780" y="608" type="line"/>
      <point x="780" y="731"/>
      <point x="640" y="906"/>
    </contour>
  </outline>
</glyph>
<glyph name="f" format="1">
  <advance width="604"/>
  <unicode hex="0066"/>
  <outline>
    <contour>
      <point x="218" y="0" type="line"/>
      <point x="218" y="889" type="line"/>
      <point x="55" y="889" type="line"/>
      <point x="55" y="974" type="line"/>
      <point x="218" y="974" type="line"/>
      <point x="218" y="1118" type="line"/>
      <point x="218" y="1264"/>
      <point x="364" y="1423"/>
      <point x="495" y="1423" type="qcurve" smooth="yes"/>
      <point x="525" y="1423"/>
      <point x="586" y="1415"/>
      <point x="617" y="1406" type="qcurve"/>
      <point x="603" y="1322" type="line"/>
      <point x="580" y="1328"/>
      <point x="535" y="1333"/>
      <point x="505" y="1333" type="qcurve" smooth="yes"/>
      <point x="416" y="1333"/>
      <point x="321" y="1221"/>
      <point x="321" y="1118" type="qcurve" smooth="yes"/>
      <point x="321" y="974" type="line"/>
      <point x="555" y="974" type="line"/>
      <point x="555" y="889" type="line"/>
      <point x="321" y="889" type="line"/>
      <point x="321" y="0" type="line"/>
    </contour>
  </outline>
</glyph>
<glyph name="g" format="1">
  <advance width="1026"/>
  <unicode hex="0067"/>
  <outline>
    <contour>
      <point x="101" y="480" type="line"/>
      <point x="101" y="713"/>
      <point x="300" y="992"/>
      <point x="476" y="992" type="qcurve"/>
      <point x="581" y="992"/>
      <point x="737" y="901"/>
      <point x="785" y="819" type="qcurve"/>
      <point x="799" y="974" type="line"/>
      <point x="882" y="974" type="line"/>
      <point x="882" y="-5" type="line"/>
      <point x="882" y="-192"/>
      <point x="677" y="-393"/>
      <point x="491" y="-393" type="qcurve"/>
      <point x="420" y="-393"/>
      <point x="262" y="-360"/>
      <point x="203" y="-331" type="qcurve"/>
      <point x="230" y="-244" type="line"/>
      <point x="288" y="-273"/>
      <point x="416" y="-303"/>
      <point x="489" y="-303" type="qcurve"/>
      <point x="635" y="-303"/>
      <point x="778" y="-151"/>
      <point x="778" y="-5" type="qcurve"/>
      <point x="778" y="130" type="line"/>
      <point x="730" y="60"/>
      <point x="576" y="-19"/>
      <point x="474" y="-19" type="qcurve"/>
      <point x="299" y="-19"/>
      <point x="101" y="242"/>
      <point x="101" y="461" type="qcurve"/>
    </contour>
    <contour>
      <point x="204" y="461" type="line"/>
      <point x="204" y="282"/>
      <point x="350" y="70"/>
      <point x="492" y="70" type="qcurve"/>
      <point x="599" y="70"/>
      <point x="742" y="167"/>
      <point x="778" y="250" type="qcurve"/>
      <point x="778" y="706" type="line"/>
      <point x="743" y="792"/>
      <point x="607" y="903"/>
      <point x="494" y="903" type="qcurve"/>
      <point x="351" y="903"/>
      <point x="204" y="667"/>
      <point x="204" y="480" type="qcurve"/>
    </contour>
  </outline>
</glyph>
<glyph name="h" format="1">
  <advance width="1026"/>
  <unicode hex="0068"/>
  <outline>
    <contour>
      <point x="247" y="800" type="line"/>
      <point x="294" y="892"/>
      <point x="457" y="992"/>
      <point x="567" y="992" type="qcurve" smooth="yes"/>
      <point x="721" y="992"/>
      <point x="886" y="802"/>
      <point x="886" y="600" type="qcurve" smooth="yes"/>
      <point x="886" y="0" type="line"/>
      <point x="781" y="0" type="line"/>
      <point x="781" y="602" type="line"/>
      <point x="781" y="763"/>
      <point x="657" y="903"/>
      <point x="545" y="903" type="qcurve" smooth="yes"/>
      <point x="423" y="903"/>
      <point x="276" y="765"/>
      <point x="247" y="655" type="qcurve"/>
      <point x="247" y="0" type="line"/>
      <point x="144" y="0" type="line"/>
      <point x="144" y="1404" type="line"/>
      <point x="247" y="1404" type="line"/>
    </contour>
  </outline>
</glyph>
<glyph name="i" format="1">
  <advance width="416"/>
  <unicode hex="0069"/>
  <outline>
    <contour>
      <point x="260" y="0" type="line"/>
      <point x="156" y="0" type="line"/>
      <point x="156" y="974" type="line"/>
      <point x="260" y="974" type="line"/>
    </contour>
    <contour>
      <point x="260" y="1256" type="line"/>
      <point x="156" y="1256" type="line"/>
      <point x="156" y="1404" type="line"/>
      <point x="260" y="1404" type="line"/>
    </contour>
  </outline>
</glyph>
<glyph name="j" format="1">
  <advance width="433"/>
  <unicode hex="006A"/>
  <outline>
    <contour>
      <point x="266" y="930" type="line"/>
      <point x="266" y="-124" type="line"/>
      <point x="266" y="-274"/>
      <point x="122" y="-437"/>
      <point x="-6" y="-437" type="qcurve" smooth="yes"/>
      <point x="-33" y="-437"/>
      <point x="-79" y="-428"/>
      <point x="-106" y="-420" type="qcurve"/>
      <point x="-95" y="-333" type="line"/>
      <point x="-79" y="-339"/>
      <point x="-31" y="-347"/>
      <point x="-12" y="-347" type="qcurve" smooth="yes"/>
      <point x="70" y="-347"/>
      <point x="162" y="-234"/>
      <point x="162" y="-124" type="qcurve" smooth="yes"/>
      <point x="162" y="930" type="line"/>
    </contour>
    <contour>
      <point x="261" y="1216" type="line"/>
      <point x="157" y="1216" type="line"/>
      <point x="157" y="1360" type="line"/>
      <point x="261" y="1360" type="line"/>
    </contour>
  </outline>
</glyph>
<glyph name="k" format="1">
  <advance width="909"/>
  <unicode hex="006B"/>
  <outline>
    <contour>
      <point x="411" y="485" type="line"/>
      <point x="259" y="485" type="line"/>
      <point x="259" y="0" type="line"/>
      <point x="155" y="0" type="line"/>
      <point x="155" y="1404" type="line"/>
      <point x="259" y="1404" type="line"/>
      <point x="259" y="574" type="line"/>
      <point x="414" y="574" type="line"/>
      <point x="715" y="974" type="line"/>
      <point x="848" y="974" type="line"/>
      <point x="498" y="529" type="line"/>
      <point x="896" y="0" type="line"/>
      <point x="766" y="0" type="line"/>
    </contour>
  </outline>
</glyph>
<glyph name="l" format="1">
  <advance width="416"/>
  <unicode hex="006C"/>
  <outline>
    <contour>
      <point x="260" y="0" type="line"/>
      <point x="157" y="0" type="line"/>
      <point x="157" y="1404" type="line"/>
      <point x="260" y="1404" type="line"/>
    </contour>
  </outline>
</glyph>
<glyph name="m" format="1">
  <advance width="1638"/>
  <unicode hex="006D"/>
  <outline>
    <contour>
      <point x="227" y="974" type="line"/>
      <point x="234" y="788" type="line"/>
      <point x="279" y="885"/>
      <point x="438" y="992"/>
      <point x="551" y="992" type="qcurve" smooth="yes"/>
      <point x="670" y="992"/>
      <point x="822" y="874"/>
      <point x="852" y="751" type="qcurve"/>
      <point x="892" y="865"/>
      <point x="1060" y="993"/>
      <point x="1184" y="993" type="qcurve" smooth="yes"/>
      <point x="1341" y="993"/>
      <point x="1507" y="785"/>
      <point x="1507" y="564" type="qcurve" smooth="yes"/>
      <point x="1507" y="1" type="line"/>
      <point x="1404" y="1" type="line"/>
      <point x="1404" y="565" type="line"/>
      <point x="1404" y="753"/>
      <point x="1272" y="904"/>
      <point x="1161" y="904" type="qcurve" smooth="yes"/>
      <point x="1029" y="904"/>
      <point x="890" y="751"/>
      <point x="870" y="629" type="qcurve"/>
      <point x="870" y="611"/>
      <point x="871" y="586"/>
      <point x="871" y="574" type="qcurve" smooth="yes"/>
      <point x="871" y="0" type="line"/>
      <point x="768" y="0" type="line"/>
      <point x="768" y="565" type="line"/>
      <point x="768" y="753"/>
      <point x="637" y="904"/>
      <point x="524" y="904" type="qcurve" smooth="yes"/>
      <point x="396" y="904"/>
      <point x="258" y="758"/>
      <point x="236" y="641" type="qcurve"/>
      <point x="236" y="0" type="line"/>
      <point x="132" y="0" type="line"/>
      <point x="132" y="974" type="line"/>
    </contour>
  </outline>
</glyph>
<glyph name="n" format="1">
  <advance width="1026"/>
  <unicode hex="006E"/>
  <outline>
    <contour>
      <point x="235" y="974" type="line"/>
      <point x="244" y="797" type="line"/>
      <point x="290" y="890"/>
      <point x="450" y="992"/>
      <point x="561" y="992" type="qcurve" smooth="yes"/>
      <point x="719" y="992"/>
      <point x="885" y="798"/>
      <point x="885" y="591" type="qcurve" smooth="yes"/>
      <point x="885" y="0" type="line"/>
      <point x="781" y="0" type="line"/>
      <point x="781" y="590" type="line"/>
      <point x="781" y="762"/>
      <point x="654" y="903"/>
      <point x="539" y="903" type="qcurve" smooth="yes"/>
      <point x="415" y="903"/>
      <point x="273" y="763"/>
      <point x="247" y="651" type="qcurve"/>
      <point x="247" y="0" type="line"/>
      <point x="144" y="0" type="line"/>
      <point x="144" y="974" type="line"/>
    </contour>
  </outline>
</glyph>
<glyph name="o" format="1">
  <advance width="1026"/>
  <unicode hex="006F"/>
  <outline>
    <contour>
      <point x="82" y="502" type="line"/>
      <point x="82" y="717"/>
      <point x="318" y="992"/>
      <point x="512" y="992" type="qcurve"/>
      <point x="707" y="992"/>
      <point x="943" y="717"/>
      <point x="943" y="502" type="qcurve"/>
      <point x="943" y="471" type="line"/>
      <point x="943" y="255"/>
      <point x="707" y="-19"/>
      <point x="514" y="-19" type="qcurve"/>
      <point x="319" y="-19"/>
      <point x="82" y="256"/>
      <point x="82" y="471" type="qcurve"/>
    </contour>
    <contour>
      <point x="186" y="471" type="line"/>
      <point x="186" y="300"/>
      <point x="359" y="68"/>
      <point x="514" y="68" type="qcurve"/>
      <point x="666" y="68"/>
      <point x="840" y="300"/>
      <point x="840" y="471" type="qcurve"/>
      <point x="840" y="502" type="line"/>
      <point x="840" y="670"/>
      <point x="664" y="904"/>
      <point x="512" y="904" type="qcurve"/>
      <point x="359" y="904"/>
      <point x="186" y="670"/>
      <point x="186" y="502" type="qcurve"/>
    </contour>
  </outline>
</glyph>
<glyph name="p" format="1">
  <advance width="1026"/>
  <unicode hex="0070"/>
  <outline>
    <contour>
      <point x="924" y="461" type="line"/>
      <point x="924" y="242"/>
      <point x="727" y="-19"/>
      <point x="554" y="-19" type="qcurve"/>
      <point x="449" y="-19"/>
      <point x="294" y="59"/>
      <point x="246" y="130" type="qcurve"/>
      <point x="246" y="-374" type="line"/>
      <point x="143" y="-374" type="line"/>
      <point x="143" y="974" type="line"/>
      <point x="222" y="974" type="line"/>
      <point x="240" y="820" type="line"/>
      <point x="288" y="901"/>
      <point x="445" y="992"/>
      <point x="551" y="992" type="qcurve"/>
      <point x="727" y="992"/>
      <point x="924" y="713"/>
      <point x="924" y="480" type="qcurve"/>
    </contour>
    <contour>
      <point x="821" y="480" type="line"/>
      <point x="821" y="666"/>
      <point x="672" y="903"/>
      <point x="529" y="903" type="qcurve"/>
      <point x="415" y="903"/>
      <point x="279" y="791"/>
      <point x="246" y="706" type="qcurve"/>
      <point x="246" y="244" type="line"/>
      <point x="281" y="163"/>
      <point x="424" y="68"/>
      <point x="531" y="68" type="qcurve"/>
      <point x="673" y="68"/>
      <point x="821" y="283"/>
      <point x="821" y="461" type="qcurve"/>
    </contour>
  </outline>
</glyph>
<glyph name="q" format="1">
  <advance width="1026"/>
  <unicode hex="0071"/>
  <outline>
    <contour>
      <point x="101" y="438" type="line"/>
      <point x="101" y="671"/>
      <point x="298" y="950"/>
      <point x="474" y="950" type="qcurve" smooth="yes"/>
      <point x="577" y="950"/>
      <point x="731" y="863"/>
      <point x="779" y="784" type="qcurve"/>
      <point x="793" y="932" type="line"/>
      <point x="876" y="932" type="line"/>
      <point x="876" y="-416" type="line"/>
      <point x="772" y="-416" type="line"/>
      <point x="772" y="85" type="line"/>
      <point x="724" y="16"/>
      <point x="572" y="-60"/>
      <point x="472" y="-60" type="qcurve" smooth="yes"/>
      <point x="297" y="-60"/>
      <point x="101" y="200"/>
      <point x="101" y="419" type="qcurve" smooth="yes"/>
    </contour>
    <contour>
      <point x="205" y="419" type="line"/>
      <point x="205" y="241"/>
      <point x="348" y="26"/>
      <point x="491" y="26" type="qcurve" smooth="yes"/>
      <point x="595" y="26"/>
      <point x="736" y="120"/>
      <point x="772" y="200" type="qcurve"/>
      <point x="772" y="672" type="line"/>
      <point x="737" y="755"/>
      <point x="603" y="863"/>
      <point x="493" y="863" type="qcurve" smooth="yes"/>
      <point x="349" y="863"/>
      <point x="205" y="626"/>
      <point x="205" y="438" type="qcurve" smooth="yes"/>
    </contour>
  </outline>
</glyph>
<glyph name="r" format="1">
  <advance width="604"/>
  <unicode hex="0072"/>
  <outline>
    <contour>
      <point x="562" y="881" type="line"/>
      <point x="483" y="890" type="line"/>
      <point x="402" y="890"/>
      <point x="289" y="805"/>
      <point x="257" y="729" type="qcurve"/>
      <point x="257" y="0" type="line"/>
      <point x="154" y="0" type="line"/>
      <point x="154" y="974" type="line"/>
      <point x="238" y="974" type="line"/>
      <point x="259" y="833" type="line"/>
      <point x="307" y="907"/>
      <point x="439" y="992"/>
      <point x="525" y="992" type="qcurve"/>
      <point x="544" y="992"/>
      <point x="575" y="985"/>
      <point x="584" y="983" type="qcurve"/>
    </contour>
  </outline>
</glyph>
<glyph name="s" format="1">
  <advance width="937"/>
  <unicode hex="0073"/>
  <outline>
    <contour>
      <point x="727" y="247" type="qcurve"/>
      <point x="727" y="316"/>
      <point x="613" y="421"/>
      <point x="465" y="454" type="qcurve"/>
      <point x="291" y="492"/>
      <point x="125" y="615"/>
      <point x="125" y="729" type="qcurve"/>
      <point x="125" y="839"/>
      <point x="312" y="992"/>
      <point x="467" y="992" type="qcurve"/>
      <point x="632" y="992"/>
      <point x="823" y="831"/>
      <point x="819" y="708" type="qcurve"/>
      <point x="817" y="703" type="line"/>
      <point x="722" y="703" type="line"/>
      <point x="722" y="784"/>
      <point x="584" y="904"/>
      <point x="467" y="904" type="qcurve"/>
      <point x="348" y="904"/>
      <point x="228" y="801"/>
      <point x="228" y="732" type="qcurve"/>
      <point x="228" y="663"/>
      <point x="331" y="573"/>
      <point x="486" y="539" type="qcurve"/>
      <point x="658" y="500"/>
      <point x="831" y="368"/>
      <point x="831" y="252" type="qcurve"/>
      <point x="831" y="131"/>
      <point x="634" y="-19"/>
      <point x="473" y="-19" type="qcurve"/>
      <point x="296" y="-19"/>
      <point x="94" y="149"/>
      <point x="100" y="265" type="qcurve"/>
      <point x="102" y="270" type="line"/>
      <point x="196" y="270" type="line"/>
      <point x="202" y="164"/>
      <point x="364" y="68"/>
      <point x="473" y="68" type="qcurve"/>
      <point x="591" y="68"/>
      <point x="727" y="173"/>
    </contour>
  </outline>
</glyph>
<glyph name="t" format="1">
  <advance width="598"/>
  <unicode hex="0074"/>
  <outline>
    <contour>
      <point x="301" y="1223" type="line"/>
      <point x="301" y="972" type="line"/>
      <point x="517" y="972" type="line"/>
      <point x="517" y="887" type="line"/>
      <point x="301" y="887" type="line"/>
      <point x="301" y="249" type="line"/>
      <point x="301" y="151"/>
      <point x="372" y="69"/>
      <point x="430" y="69" type="qcurve" smooth="yes"/>
      <point x="451" y="69"/>
      <point x="488" y="74"/>
      <point x="513" y="79" type="qcurve"/>
      <point x="528" y="2" type="line"/>
      <point x="507" y="-9"/>
      <point x="447" y="-21"/>
      <point x="412" y="-21" type="qcurve" smooth="yes"/>
      <point x="310" y="-21"/>
      <point x="197" y="108"/>
      <point x="197" y="249" type="qcurve" smooth="yes"/>
      <point x="197" y="887" type="line"/>
      <point x="28" y="887" type="line"/>
      <point x="28" y="972" type="line"/>
      <point x="197" y="972" type="line"/>
      <point x="197" y="1223" type="line"/>
    </contour>
  </outline>
</glyph>
<glyph name="u" format="1">
  <advance width="1026"/>
  <unicode hex="0075"/>
  <outline>
    <contour>
      <point x="783" y="160" type="line"/>
      <point x="737" y="73"/>
      <point x="578" y="-21"/>
      <point x="468" y="-21" type="qcurve" smooth="yes"/>
      <point x="313" y="-21"/>
      <point x="140" y="188"/>
      <point x="140" y="408" type="qcurve" smooth="yes"/>
      <point x="140" y="972" type="line"/>
      <point x="243" y="972" type="line"/>
      <point x="243" y="407" type="line"/>
      <point x="243" y="227"/>
      <point x="366" y="68"/>
      <point x="479" y="68" type="qcurve" smooth="yes"/>
      <point x="607" y="68"/>
      <point x="753" y="187"/>
      <point x="779" y="287" type="qcurve"/>
      <point x="779" y="972" type="line"/>
      <point x="883" y="972" type="line"/>
      <point x="883" y="-2" type="line"/>
      <point x="792" y="-2" type="line"/>
    </contour>
  </outline>
</glyph>
<glyph name="v" format="1">
  <advance width="915"/>
  <unicode hex="0076"/>
  <outline>
    <contour>
      <point x="456" y="221" type="line"/>
      <point x="469" y="174" type="line"/>
      <point x="474" y="174" type="line"/>
      <point x="489" y="221" type="line"/>
      <point x="769" y="974" type="line"/>
      <point x="870" y="974" type="line"/>
      <point x="487" y="0" type="line"/>
      <point x="454" y="0" type="line"/>
      <point x="65" y="974" type="line"/>
      <point x="167" y="974" type="line"/>
    </contour>
  </outline>
</glyph>
<glyph name="w" format="1">
  <advance width="1395"/>
  <unicode hex="0077"/>
  <outline>
    <contour>
      <point x="350" y="313" type="line"/>
      <point x="388" y="148" type="line"/>
      <point x="393" y="147" type="line"/>
      <point x="441" y="313" type="line"/>
      <point x="649" y="974" type="line"/>
      <point x="738" y="974" type="line"/>
      <point x="946" y="313" type="line"/>
      <point x="994" y="141" type="line"/>
      <point x="1000" y="142" type="line"/>
      <point x="1041" y="313" type="line"/>
      <point x="1220" y="974" type="line"/>
      <point x="1327" y="974" type="line"/>
      <point x="1044" y="0" type="line"/>
      <point x="955" y="0" type="line"/>
      <point x="737" y="673" type="line"/>
      <point x="695" y="838" type="line"/>
      <point x="689" y="837" type="line"/>
      <point x="647" y="673" type="line"/>
      <point x="432" y="0" type="line"/>
      <point x="343" y="0" type="line"/>
      <point x="61" y="974" type="line"/>
      <point x="168" y="974" type="line"/>
    </contour>
  </outline>
</glyph>
<glyph name="x" format="1">
  <advance width="900"/>
  <unicode hex="0078"/>
  <outline>
    <contour>
      <point x="448" y="573" type="line"/>
      <point x="715" y="974" type="line"/>
      <point x="838" y="974" type="line"/>
      <point x="507" y="497" type="line"/>
      <point x="852" y="0" type="line"/>
      <point x="731" y="0" type="line"/>
      <point x="449" y="419" type="line"/>
      <point x="168" y="0" type="line"/>
      <point x="46" y="0" type="line"/>
      <point x="391" y="497" type="line"/>
      <point x="60" y="974" type="line"/>
      <point x="183" y="974" type="line"/>
    </contour>
  </outline>
</glyph>
<glyph name="y" format="1">
  <advance width="915"/>
  <unicode hex="0079"/>
  <outline>
    <contour>
      <point x="406" y="277" type="line"/>
      <point x="455" y="90" type="line"/>
      <point x="461" y="90" type="line"/>
      <point x="744" y="930" type="line"/>
      <point x="868" y="930" type="line"/>
      <point x="447" y="-195" type="line"/>
      <point x="415" y="-288"/>
      <point x="279" y="-437"/>
      <point x="184" y="-437" type="qcurve" smooth="yes"/>
      <point x="172" y="-437"/>
      <point x="97" y="-427"/>
      <point x="100" y="-428" type="qcurve"/>
      <point x="107" y="-332" type="line"/>
      <point x="90" y="-330"/>
      <point x="201" y="-337"/>
      <point x="211" y="-337" type="qcurve" smooth="yes"/>
      <point x="260" y="-337"/>
      <point x="335" y="-203"/>
      <point x="363" y="-131" type="qcurve" smooth="yes"/>
      <point x="415" y="-7" type="line"/>
      <point x="39" y="930" type="line"/>
      <point x="165" y="930" type="line"/>
    </contour>
  </outline>
</glyph>
<glyph name="z" format="1">
  <advance width="900"/>
  <unicode hex="007A"/>
  <outline>
    <contour>
      <point x="209" y="87" type="line"/>
      <point x="846" y="87" type="line"/>
      <point x="846" y="0" type="line"/>
      <point x="81" y="0" type="line"/>
      <point x="81" y="76" type="line"/>
      <point x="673" y="885" type="line"/>
      <point x="100" y="885" type="line"/>
      <point x="100" y="974" type="line"/>
      <point x="803" y="974" type="line"/>
      <point x="803" y="898" type="line"/>
    </contour>
  </outline>
</glyph>
<glyph name="braceright" format="1">
  <advance width="794"/>
  <unicode hex="007D"/>
  <outline>
    <contour>
      <point x="121" y="-299" type="line"/>
      <point x="237" y="-259"/>
      <point x="346" y="-81"/>
      <point x="346" y="49" type="qcurve"/>
      <point x="346" y="254" type="line"/>
      <point x="346" y="357"/>
      <point x="433" y="504"/>
      <point x="525" y="533" type="qcurve"/>
      <point x="433" y="562"/>
      <point x="346" y="708"/>
      <point x="346" y="812" type="qcurve"/>
      <point x="346" y="1019" type="line"/>
      <point x="346" y="1150"/>
      <point x="239" y="1332"/>
      <point x="123" y="1369" type="qcurve"/>
      <point x="147" y="1437" type="line"/>
      <point x="310" y="1388"/>
      <point x="449" y="1173"/>
      <point x="449" y="1019" type="qcurve"/>
      <point x="449" y="812" type="line"/>
      <point x="449" y="701"/>
      <point x="551" y="579"/>
      <point x="658" y="579" type="qcurve"/>
      <point x="658" y="489" type="line"/>
      <point x="551" y="489"/>
      <point x="449" y="365"/>
      <point x="449" y="254" type="qcurve"/>
      <point x="449" y="49" type="line"/>
      <point x="449" y="-105"/>
      <point x="310" y="-318"/>
      <point x="147" y="-368" type="qcurve"/>
    </contour>
  </outline>
</glyph>
<glyph name="asciitilde" format="1">
  <advance width="1263"/>
  <unicode hex="007E"/>
  <outline>
    <contour>
      <point x="1131" y="708" type="line"/>
      <point x="1131" y="593"/>
      <point x="986" y="425"/>
      <point x="878" y="425" type="qcurve" smooth="yes"/>
      <point x="799" y="425"/>
      <point x="668" y="489"/>
      <point x="588" y="561" type="qcurve" smooth="yes"/>
      <point x="531" y="610"/>
      <point x="432" y="658"/>
      <point x="381" y="658" type="qcurve" smooth="yes"/>
      <point x="310" y="658"/>
      <point x="214" y="548"/>
      <point x="214" y="456" type="qcurve"/>
      <point x="129" y="469" type="line"/>
      <point x="129" y="587"/>
      <point x="271" y="750"/>
      <point x="381" y="750" type="qcurve" smooth="yes"/>
      <point x="460" y="750"/>
      <point x="592" y="683"/>
      <point x="672" y="614" type="qcurve" smooth="yes"/>
      <point x="729" y="563"/>
      <point x="826" y="516"/>
      <point x="878" y="516" type="qcurve" smooth="yes"/>
      <point x="948" y="516"/>
      <point x="1046" y="633"/>
      <point x="1046" y="722" type="qcurve"/>
    </contour>
  </outline>
</glyph>
<glyph name="exclamdown" format="1">
  <advance width="401"/>
  <unicode hex="00A1"/>
  <outline>
    <contour>
      <point x="158" y="586" type="line"/>
      <point x="250" y="586" type="line"/>
      <point x="255" y="-359" type="line"/>
      <point x="153" y="-359" type="line"/>
    </contour>
    <contour>
      <point x="268" y="887" type="qcurve" smooth="yes"/>
      <point x="268" y="859"/>
      <point x="230" y="817"/>
      <point x="198" y="817" type="qcurve" smooth="yes" name="inserted"/>
      <point x="166" y="817"/>
      <point x="127" y="859"/>
      <point x="127" y="887" type="qcurve" smooth="yes" name="inserted"/>
      <point x="127" y="917"/>
      <point x="166" y="956"/>
      <point x="198" y="956" type="qcurve" smooth="yes" name="inserted"/>
      <point x="230" y="956"/>
      <point x="268" y="917"/>
    </contour>
  </outline>
</glyph>
<glyph name="cent" format="1">
  <advance width="1003"/>
  <unicode hex="00A2"/>
  <outline>
    <contour>
      <point x="522" y="43" type="qcurve" smooth="yes"/>
      <point x="637" y="43"/>
      <point x="792" y="170"/>
      <point x="800" y="276" type="qcurve"/>
      <point x="894" y="276" type="line"/>
      <point x="888" y="150"/>
      <point x="704" y="-25"/>
      <point x="569" y="-39" type="qcurve"/>
      <point x="569" y="-245" type="line"/>
      <point x="469" y="-245" type="line"/>
      <point x="469" y="-39" type="line"/>
      <point x="302" y="-21"/>
      <point x="110" y="238"/>
      <point x="110" y="449" type="qcurve" smooth="yes"/>
      <point x="110" y="481" type="line"/>
      <point x="110" y="686"/>
      <point x="302" y="945"/>
      <point x="469" y="963" type="qcurve"/>
      <point x="469" y="1162" type="line"/>
      <point x="569" y="1162" type="line"/>
      <point x="569" y="964" type="line"/>
      <point x="710" y="950"/>
      <point x="889" y="764"/>
      <point x="894" y="622" type="qcurve"/>
      <point x="800" y="622" type="line"/>
      <point x="793" y="738"/>
      <point x="640" y="882"/>
      <point x="521" y="882" type="qcurve" smooth="yes"/>
      <point x="374" y="882"/>
      <point x="208" y="669"/>
      <point x="208" y="475" type="qcurve" smooth="yes"/>
      <point x="208" y="444" type="line"/>
      <point x="208" y="254"/>
      <point x="375" y="43"/>
    </contour>
  </outline>
</glyph>
<glyph name="sterling" format="1">
  <advance width="1051"/>
  <unicode hex="00A3"/>
  <outline>
    <contour>
      <point x="315" y="592" type="line"/>
      <point x="324" y="338" type="line"/>
      <point x="324" y="259" name="inserted"/>
      <point x="294" y="130"/>
      <point x="267" y="82" type="qcurve"/>
      <point x="990" y="82" type="line"/>
      <point x="989" y="0" type="line"/>
      <point x="81" y="0" type="line"/>
      <point x="81" y="82" type="line"/>
      <point x="136" y="82" type="line"/>
      <point x="178" y="91"/>
      <point x="233" y="250"/>
      <point x="236" y="364" type="qcurve" smooth="yes"/>
      <point x="235" y="348" type="line"/>
      <point x="225" y="592" type="line"/>
      <point x="76" y="592" type="line"/>
      <point x="76" y="679" type="line"/>
      <point x="223" y="679" type="line"/>
      <point x="213" y="935" type="line"/>
      <point x="213" y="1111"/>
      <point x="433" y="1328"/>
      <point x="608" y="1328" type="qcurve" smooth="yes"/>
      <point x="762" y="1328"/>
      <point x="947" y="1148"/>
      <point x="947" y="998" type="qcurve"/>
      <point x="847" y="998" type="line"/>
      <point x="847" y="1110"/>
      <point x="702" y="1244"/>
      <point x="580" y="1244" type="qcurve" smooth="yes"/>
      <point x="458" y="1244"/>
      <point x="306" y="1069"/>
      <point x="306" y="935" type="qcurve" smooth="yes"/>
      <point x="314" y="679" type="line"/>
      <point x="608" y="679" type="line"/>
      <point x="608" y="592" type="line"/>
    </contour>
  </outline>
</glyph>
<glyph name="currency" format="1">
  <advance width="1336"/>
  <unicode hex="00A4"/>
  <outline>
    <contour>
      <point x="1022" y="121" type="line"/>
      <point x="949" y="53"/>
      <point x="769" y="-21"/>
      <point x="667" y="-21" type="qcurve" smooth="yes" name="inserted"/>
      <point x="565" y="-21"/>
      <point x="384" y="52"/>
      <point x="312" y="119" type="qcurve"/>
      <point x="170" y="-26" type="line"/>
      <point x="100" y="46" type="line"/>
      <point x="245" y="194" type="line"/>
      <point x="188" y="269" name="inserted"/>
      <point x="131" y="445"/>
      <point x="131" y="545" type="qcurve" smooth="yes"/>
      <point x="131" y="647" name="inserted"/>
      <point x="192" y="828"/>
      <point x="253" y="905" type="qcurve"/>
      <point x="100" y="1063" type="line"/>
      <point x="170" y="1135" type="line"/>
      <point x="323" y="978" type="line"/>
      <point x="398" y="1043" name="inserted"/>
      <point x="569" y="1108"/>
      <point x="667" y="1108" type="qcurve" smooth="yes"/>
      <point x="766" y="1108"/>
      <point x="939" y="1040"/>
      <point x="1011" y="977" type="qcurve"/>
      <point x="1167" y="1136" type="line"/>
      <point x="1239" y="1063" type="line"/>
      <point x="1081" y="902" type="line"/>
      <point x="1142" y="825" name="inserted"/>
      <point x="1202" y="646"/>
      <point x="1202" y="545" type="qcurve" smooth="yes"/>
      <point x="1202" y="446" name="inserted"/>
      <point x="1146" y="273"/>
      <point x="1089" y="197" type="qcurve"/>
      <point x="1239" y="46" type="line"/>
      <point x="1167" y="-27" type="line"/>
    </contour>
    <contour>
      <point x="225" y="545" type="qcurve" smooth="yes"/>
      <point x="225" y="418"/>
      <point x="344" y="198"/>
      <point x="447" y="135" type="qcurve" smooth="yes" name="inserted"/>
      <point x="517" y="92" name="inserted"/>
      <point x="673" y="72"/>
      <point x="748" y="96" type="qcurve" smooth="yes"/>
      <point x="859" y="119"/>
      <point x="1031" y="279"/>
      <point x="1069" y="396" type="qcurve" smooth="yes" name="inserted"/>
      <point x="1088" y="477" name="inserted"/>
      <point x="1065" y="632"/>
      <point x="1027" y="695" type="qcurve" smooth="yes"/>
      <point x="1008" y="786"/>
      <point x="893" y="935"/>
      <point x="806" y="974" type="qcurve" smooth="yes" name="inserted"/>
      <point x="698" y="1015"/>
      <point x="474" y="969"/>
      <point x="387" y="888" type="qcurve" smooth="yes" name="inserted"/>
      <point x="311" y="828"/>
      <point x="225" y="647"/>
    </contour>
  </outline>
</glyph>
<glyph name="yen" format="1">
  <advance width="1106"/>
  <unicode hex="00A5"/>
  <outline>
    <contour>
      <point x="543" y="653" type="line"/>
      <point x="936" y="1310" type="line"/>
      <point x="1051" y="1310" type="line"/>
      <point x="645" y="659" type="line"/>
      <point x="983" y="659" type="line"/>
      <point x="983" y="580" type="line"/>
      <point x="586" y="580" type="line"/>
      <point x="586" y="398" type="line"/>
      <point x="983" y="398" type="line"/>
      <point x="983" y="320" type="line"/>
      <point x="586" y="320" type="line"/>
      <point x="586" y="0" type="line"/>
      <point x="494" y="0" type="line"/>
      <point x="494" y="320" type="line"/>
      <point x="122" y="320" type="line"/>
      <point x="122" y="398" type="line"/>
      <point x="494" y="398" type="line"/>
      <point x="494" y="580" type="line"/>
      <point x="122" y="580" type="line"/>
      <point x="122" y="659" type="line"/>
      <point x="441" y="659" type="line"/>
      <point x="36" y="1310" type="line"/>
      <point x="151" y="1310" type="line"/>
    </contour>
  </outline>
</glyph>
<glyph name="brokenbar" format="1">
  <advance width="394"/>
  <unicode hex="00A6"/>
  <outline>
    <contour>
      <point x="145" y="-270" type="line"/>
      <point x="145" y="422" type="line"/>
      <point x="244" y="422" type="line"/>
      <point x="244" y="-270" type="line"/>
    </contour>
    <contour>
      <point x="244" y="601" type="line"/>
      <point x="145" y="601" type="line"/>
      <point x="145" y="1283" type="line"/>
      <point x="244" y="1283" type="line"/>
    </contour>
  </outline>
</glyph>
<glyph name="dieresis" format="1">
  <advance width="796"/>
  <unicode hex="00A8"/>
  <outline>
    <contour>
      <point x="135" y="1392" type="qcurve" smooth="yes"/>
      <point x="135" y="1421"/>
      <point x="171" y="1462"/>
      <point x="204" y="1462" type="qcurve" smooth="yes" name="inserted"/>
      <point x="237" y="1462"/>
      <point x="276" y="1421"/>
      <point x="276" y="1392" type="qcurve" smooth="yes" name="inserted"/>
      <point x="276" y="1363"/>
      <point x="237" y="1324"/>
      <point x="204" y="1324" type="qcurve" smooth="yes" name="inserted"/>
      <point x="171" y="1324"/>
      <point x="135" y="1363"/>
    </contour>
    <contour>
      <point x="529" y="1392" type="qcurve" smooth="yes"/>
      <point x="529" y="1420"/>
      <point x="567" y="1461"/>
      <point x="599" y="1461" type="qcurve" smooth="yes" name="inserted"/>
      <point x="632" y="1461"/>
      <point x="670" y="1420"/>
      <point x="670" y="1392" type="qcurve" smooth="yes" name="inserted"/>
      <point x="670" y="1362"/>
      <point x="632" y="1323"/>
      <point x="599" y="1323" type="qcurve" smooth="yes" name="inserted"/>
      <point x="567" y="1323"/>
      <point x="529" y="1362"/>
    </contour>
  </outline>
</glyph>
<glyph name="copyright" format="1">
  <advance width="1476"/>
  <unicode hex="00A9"/>
  <outline>
    <contour>
      <point x="1002" y="536" type="line"/>
      <point x="1005" y="531" type="line"/>
      <point x="1008" y="396"/>
      <point x="859" y="254"/>
      <point x="727" y="254" type="qcurve"/>
      <point x="592" y="254"/>
      <point x="428" y="446"/>
      <point x="428" y="602" type="qcurve"/>
      <point x="428" y="709" type="line"/>
      <point x="428" y="864"/>
      <point x="592" y="1057"/>
      <point x="727" y="1057" type="qcurve"/>
      <point x="859" y="1057"/>
      <point x="1009" y="914"/>
      <point x="1006" y="781" type="qcurve"/>
      <point x="1003" y="776" type="line"/>
      <point x="925" y="776" type="line"/>
      <point x="925" y="879"/>
      <point x="823" y="980"/>
      <point x="727" y="980" type="qcurve"/>
      <point x="628" y="980"/>
      <point x="515" y="828"/>
      <point x="515" y="710" type="qcurve"/>
      <point x="515" y="602" type="line"/>
      <point x="515" y="483"/>
      <point x="627" y="332"/>
      <point x="727" y="332" type="qcurve"/>
      <point x="824" y="332"/>
      <point x="924" y="431"/>
      <point x="924" y="536" type="qcurve"/>
    </contour>
    <contour>
      <point x="172" y="656" type="qcurve"/>
      <point x="172" y="405"/>
      <point x="502" y="56"/>
      <point x="736" y="56" type="qcurve"/>
      <point x="969" y="56"/>
      <point x="1300" y="405"/>
      <point x="1300" y="656" type="qcurve"/>
      <point x="1300" y="906"/>
      <point x="970" y="1254"/>
      <point x="736" y="1254" type="qcurve"/>
      <point x="502" y="1254"/>
      <point x="172" y="906"/>
    </contour>
    <contour>
      <point x="97" y="656" type="qcurve"/>
      <point x="97" y="940"/>
      <point x="470" y="1328"/>
      <point x="736" y="1328" type="qcurve"/>
      <point x="1002" y="1328"/>
      <point x="1375" y="940"/>
      <point x="1375" y="656" type="qcurve"/>
      <point x="1375" y="372"/>
      <point x="1001" y="-19"/>
      <point x="736" y="-19" type="qcurve"/>
      <point x="470" y="-19"/>
      <point x="97" y="372"/>
    </contour>
  </outline>
</glyph>
<glyph name="ordfeminine" format="1">
  <advance width="815"/>
  <unicode hex="00AA"/>
  <outline>
    <contour>
      <point x="588" y="704" type="line"/>
      <point x="581" y="724" name="inserted"/>
      <point x="572" y="768"/>
      <point x="570" y="792" type="qcurve"/>
      <point x="535" y="745"/>
      <point x="428" y="691"/>
      <point x="367" y="691" type="qcurve" smooth="yes"/>
      <point x="259" y="691"/>
      <point x="143" y="798"/>
      <point x="143" y="886" type="qcurve" smooth="yes"/>
      <point x="143" y="985"/>
      <point x="294" y="1094"/>
      <point x="438" y="1094" type="qcurve" smooth="yes"/>
      <point x="567" y="1094" type="line"/>
      <point x="567" y="1150" type="line"/>
      <point x="567" y="1230"/>
      <point x="492" y="1316"/>
      <point x="417" y="1316" type="qcurve" smooth="yes"/>
      <point x="334" y="1316"/>
      <point x="238" y="1250"/>
      <point x="238" y="1183" type="qcurve"/>
      <point x="148" y="1188" type="line"/>
      <point x="148" y="1280"/>
      <point x="298" y="1398"/>
      <point x="417" y="1398" type="qcurve" smooth="yes"/>
      <point x="528" y="1398"/>
      <point x="658" y="1268"/>
      <point x="658" y="1149" type="qcurve" smooth="yes"/>
      <point x="658" y="865" type="line"/>
      <point x="658" y="822" name="inserted"/>
      <point x="670" y="742"/>
      <point x="681" y="704" type="qcurve"/>
    </contour>
    <contour>
      <point x="383" y="772" type="qcurve" smooth="yes"/>
      <point x="435" y="772"/>
      <point x="546" y="836"/>
      <point x="567" y="877" type="qcurve"/>
      <point x="567" y="1023" type="line"/>
      <point x="438" y="1023" type="line"/>
      <point x="337" y="1023" name="inserted"/>
      <point x="234" y="954"/>
      <point x="234" y="890" type="qcurve" smooth="yes"/>
      <point x="234" y="831" name="inserted"/>
      <point x="308" y="772"/>
    </contour>
  </outline>
</glyph>
<glyph name="logicalnot" format="1">
  <advance width="1004"/>
  <unicode hex="00AC"/>
  <outline>
    <contour>
      <point x="840" y="387" type="line"/>
      <point x="741" y="387" type="line"/>
      <point x="741" y="646" type="line"/>
      <point x="112" y="646" type="line"/>
      <point x="112" y="734" type="line"/>
      <point x="840" y="734" type="line"/>
    </contour>
  </outline>
</glyph>
<glyph name="registered" format="1">
  <advance width="1482"/>
  <unicode hex="00AE"/>
  <outline>
    <contour>
      <point x="0" y="0" type="line"/>
      <point x="1482" y="0" type="line"/>
      <point x="1482" y="20" type="line"/>
      <point x="0" y="20" type="line"/>
    </contour>
  </outline>
</glyph>
<glyph name="macron" format="1">
  <advance width="778"/>
  <unicode hex="00AF"/>
  <outline>
    <contour>
      <point x="691" y="1365" type="line"/>
      <point x="94" y="1365" type="line"/>
      <point x="94" y="1447" type="line"/>
      <point x="691" y="1447" type="line"/>
    </contour>
  </outline>
</glyph>
<glyph name="degree" format="1">
  <advance width="698"/>
  <unicode hex="00B0"/>
  <outline>
    <contour>
      <point x="130" y="1203" type="qcurve" smooth="yes"/>
      <point x="130" y="1293"/>
      <point x="259" y="1426"/>
      <point x="350" y="1426" type="qcurve" smooth="yes"/>
      <point x="439" y="1426"/>
      <point x="566" y="1294"/>
      <point x="566" y="1203" type="qcurve" smooth="yes"/>
      <point x="566" y="1112"/>
      <point x="439" y="982"/>
      <point x="350" y="982" type="qcurve" smooth="yes"/>
      <point x="259" y="982"/>
      <point x="130" y="1111"/>
    </contour>
    <contour>
      <point x="257" y="1154" type="qcurve" smooth="yes"/>
      <point x="277" y="1114"/>
      <point x="359" y="1087"/>
      <point x="399" y="1109" type="qcurve" smooth="yes"/>
      <point x="438" y="1131"/>
      <point x="462" y="1212"/>
      <point x="441" y="1254" type="qcurve" smooth="yes"/>
      <point x="420" y="1296"/>
      <point x="339" y="1320"/>
      <point x="301" y="1299" type="qcurve" smooth="yes"/>
      <point x="260" y="1278"/>
      <point x="235" y="1195"/>
    </contour>
  </outline>
</glyph>
<glyph name="plusminus" format="1">
  <advance width="976"/>
  <unicode hex="00B1"/>
  <outline>
    <contour>
      <point x="543" y="743" type="line"/>
      <point x="899" y="743" type="line"/>
      <point x="899" y="658" type="line"/>
      <point x="543" y="658" type="line"/>
      <point x="543" y="260" type="line"/>
      <point x="451" y="260" type="line"/>
      <point x="451" y="658" type="line"/>
      <point x="74" y="658" type="line"/>
      <point x="74" y="743" type="line"/>
      <point x="451" y="743" type="line"/>
      <point x="451" y="1140" type="line"/>
      <point x="543" y="1140" type="line"/>
    </contour>
    <contour>
      <point x="866" y="-1" type="line"/>
      <point x="115" y="-1" type="line"/>
      <point x="115" y="86" type="line"/>
      <point x="866" y="86" type="line"/>
    </contour>
  </outline>
</glyph>
<glyph name="acute" format="1">
  <advance width="510"/>
  <unicode hex="00B4"/>
  <outline>
    <contour>
      <point x="284" y="1496" type="line"/>
      <point x="404" y="1496" type="line"/>
      <point x="200" y="1246" type="line"/>
      <point x="112" y="1246" type="line"/>
    </contour>
  </outline>
</glyph>
<glyph name="uni00B5" format="1">
  <advance width="1024"/>
  <unicode hex="00B5"/>
  <outline>
    <contour>
      <point x="245" y="932" type="line"/>
      <point x="245" y="348" type="line"/>
      <point x="247" y="188"/>
      <point x="366" y="26"/>
      <point x="487" y="26" type="qcurve" smooth="yes"/>
      <point x="617" y="26"/>
      <point x="759" y="149"/>
      <point x="779" y="280" type="qcurve"/>
      <point x="779" y="932" type="line"/>
      <point x="878" y="932" type="line"/>
      <point x="878" y="-42" type="line"/>
      <point x="788" y="-42" type="line"/>
      <point x="783" y="107" type="line"/>
      <point x="740" y="24" name="inserted"/>
      <point x="596" y="-60"/>
      <point x="495" y="-60" type="qcurve" smooth="yes"/>
      <point x="408" y="-60"/>
      <point x="283" y="6"/>
      <point x="245" y="67" type="qcurve"/>
      <point x="245" y="-416" type="line"/>
      <point x="148" y="-416" type="line"/>
      <point x="148" y="932" type="line"/>
    </contour>
  </outline>
</glyph>
<glyph name="paragraph" format="1">
  <advance width="901"/>
  <unicode hex="00B6"/>
  <outline>
    <contour>
      <point x="575" y="0" type="line"/>
      <point x="575" y="468" type="line"/>
      <point x="499" y="468" type="line"/>
      <point x="292" y="468"/>
      <point x="52" y="697"/>
      <point x="52" y="889" type="qcurve" smooth="yes"/>
      <point x="52" y="1081"/>
      <point x="293" y="1310"/>
      <point x="500" y="1310" type="qcurve" smooth="yes"/>
      <point x="721" y="1310" type="line"/>
      <point x="721" y="0" type="line"/>
    </contour>
  </outline>
</glyph>
<glyph name="periodcentered" format="1">
  <advance width="449"/>
  <unicode hex="00B7"/>
  <outline>
    <contour>
      <point x="149" y="708" type="qcurve" smooth="yes"/>
      <point x="149" y="738"/>
      <point x="187" y="780"/>
      <point x="221" y="780" type="qcurve" smooth="yes" name="inserted"/>
      <point x="254" y="780"/>
      <point x="294" y="738"/>
      <point x="294" y="708" type="qcurve" smooth="yes" name="inserted"/>
      <point x="294" y="678"/>
      <point x="254" y="637"/>
      <point x="221" y="637" type="qcurve" smooth="yes" name="inserted"/>
      <point x="187" y="637"/>
      <point x="149" y="678"/>
    </contour>
  </outline>
</glyph>
<glyph name="cedilla" format="1">
  <advance width="447"/>
  <unicode hex="00B8"/>
  <outline>
    <contour>
      <point x="216" y="-44" type="line"/>
      <point x="206" y="-103" type="line"/>
      <point x="281" y="-112" name="inserted"/>
      <point x="356" y="-189"/>
      <point x="356" y="-256" type="qcurve" smooth="yes"/>
      <point x="356" y="-338"/>
      <point x="216" y="-435"/>
      <point x="93" y="-435" type="qcurve"/>
      <point x="86" y="-369" type="line"/>
      <point x="169" y="-369"/>
      <point x="272" y="-308"/>
      <point x="272" y="-258" type="qcurve" smooth="yes"/>
      <point x="272" y="-212"/>
      <point x="208" y="-167"/>
      <point x="113" y="-157" type="qcurve"/>
      <point x="138" y="-44" type="line"/>
    </contour>
  </outline>
</glyph>
<glyph name="ordmasculine" format="1">
  <advance width="829"/>
  <unicode hex="00BA"/>
  <outline>
    <contour>
      <point x="123" y="1089" type="line"/>
      <point x="123" y="1227"/>
      <point x="282" y="1397"/>
      <point x="412" y="1397" type="qcurve" smooth="yes" name="inserted"/>
      <point x="541" y="1397"/>
      <point x="700" y="1229"/>
      <point x="700" y="1084" type="qcurve" smooth="yes"/>
      <point x="700" y="998" type="line"/>
      <point x="700" y="859"/>
      <point x="542" y="690"/>
      <point x="413" y="690" type="qcurve" smooth="yes"/>
      <point x="283" y="690"/>
      <point x="123" y="859"/>
      <point x="123" y="1003" type="qcurve" smooth="yes"/>
    </contour>
    <contour>
      <point x="214" y="998" type="line"/>
      <point x="214" y="892"/>
      <point x="320" y="771"/>
      <point x="413" y="771" type="qcurve" smooth="yes"/>
      <point x="505" y="771"/>
      <point x="611" y="894"/>
      <point x="611" y="1001" type="qcurve" smooth="yes"/>
      <point x="611" y="1089" type="line"/>
      <point x="611" y="1193"/>
      <point x="502" y="1316"/>
      <point x="412" y="1316" type="qcurve" smooth="yes"/>
      <point x="321" y="1316"/>
      <point x="214" y="1195"/>
      <point x="214" y="1088" type="qcurve" smooth="yes"/>
    </contour>
  </outline>
</glyph>
<glyph name="questiondown" format="1">
  <advance width="843"/>
  <unicode hex="00BF"/>
  <outline>
    <contour>
      <point x="0" y="0" type="line"/>
      <point x="843" y="0" type="line"/>
      <point x="843" y="20" type="line"/>
      <point x="0" y="20" type="line"/>
    </contour>
  </outline>
</glyph>
<glyph name="AE" format="1">
  <advance width="1672"/>
  <unicode hex="00C6"/>
  <outline>
    <contour>
      <point x="1634" y="0" type="line"/>
      <point x="906" y="0" type="line"/>
      <point x="892" y="355" type="line"/>
      <point x="351" y="355" type="line"/>
      <point x="141" y="0" type="line"/>
      <point x="20" y="0" type="line"/>
      <point x="813" y="1310" type="line"/>
      <point x="1578" y="1310" type="line"/>
      <point x="1578" y="1225" type="line"/>
      <point x="954" y="1225" type="line"/>
      <point x="975" y="725" type="line"/>
      <point x="1505" y="725" type="line"/>
      <point x="1505" y="640" type="line"/>
      <point x="978" y="640" type="line"/>
      <point x="1001" y="86" type="line"/>
      <point x="1634" y="86" type="line"/>
    </contour>
    <contour>
      <point x="407" y="449" type="line"/>
      <point x="888" y="449" type="line"/>
      <point x="856" y="1205" type="line"/>
    </contour>
  </outline>
</glyph>
<glyph name="Eth" format="1">
  <advance width="1246"/>
  <unicode hex="00D0"/>
  <outline>
    <contour>
      <point x="209" y="0" type="line"/>
      <point x="209" y="615" type="line"/>
      <point x="68" y="615" type="line"/>
      <point x="68" y="730" type="line"/>
      <point x="209" y="730" type="line"/>
      <point x="209" y="1310" type="line"/>
      <point x="550" y="1310" type="line"/>
      <point x="719" y="1310"/>
      <point x="974" y="1162"/>
      <point x="1041" y="1026" type="qcurve" smooth="yes" name="inserted"/>
      <point x="1075" y="957" name="inserted"/>
      <point x="1109" y="797"/>
      <point x="1110" y="705" type="qcurve" smooth="yes"/>
      <point x="1110" y="610" type="line"/>
      <point x="1110" y="420"/>
      <point x="973" y="145"/>
      <point x="843" y="75" type="qcurve" smooth="yes" name="inserted"/>
      <point x="779" y="38" name="inserted"/>
      <point x="623" y="2"/>
      <point x="533" y="0" type="qcurve" smooth="yes"/>
    </contour>
    <contour>
      <point x="592" y="615" type="line"/>
      <point x="300" y="615" type="line"/>
      <point x="300" y="82" type="line"/>
      <point x="522" y="82" type="line"/>
      <point x="759" y="82"/>
      <point x="1025" y="360"/>
      <point x="1027" y="603" type="qcurve" smooth="yes"/>
      <point x="1027" y="703" type="line"/>
      <point x="1027" y="945"/>
      <point x="779" y="1223"/>
      <point x="557" y="1226" type="qcurve" smooth="yes"/>
      <point x="300" y="1226" type="line"/>
      <point x="300" y="730" type="line"/>
      <point x="592" y="730" type="line"/>
    </contour>
  </outline>
</glyph>
<glyph name="multiply" format="1">
  <advance width="964"/>
  <unicode hex="00D7"/>
  <outline>
    <contour>
      <point x="84" y="308" type="line"/>
      <point x="409" y="639" type="line"/>
      <point x="99" y="956" type="line"/>
      <point x="167" y="1024" type="line"/>
      <point x="476" y="708" type="line"/>
      <point x="785" y="1024" type="line"/>
      <point x="854" y="956" type="line"/>
      <point x="544" y="639" type="line"/>
      <point x="869" y="308" type="line"/>
      <point x="800" y="241" type="line"/>
      <point x="476" y="570" type="line"/>
      <point x="153" y="241" type="line"/>
    </contour>
  </outline>
</glyph>
<glyph name="Oslash" format="1">
  <advance width="1245"/>
  <unicode hex="00D8"/>
  <outline>
    <contour>
      <point x="1130" y="573" type="line"/>
      <point x="1130" y="393"/>
      <point x="1005" y="121"/>
      <point x="890" y="47" type="qcurve" smooth="yes" name="inserted"/>
      <point x="832" y="10" name="inserted"/>
      <point x="699" y="-26"/>
      <point x="624" y="-26" type="qcurve" smooth="yes"/>
      <point x="540" y="-26" name="inserted"/>
      <point x="396" y="19"/>
      <point x="335" y="63" type="qcurve"/>
      <point x="243" y="-83" type="line"/>
      <point x="154" y="-83" type="line"/>
      <point x="276" y="112" type="line"/>
      <point x="195" y="194" name="inserted"/>
      <point x="114" y="429"/>
      <point x="114" y="582" type="qcurve" smooth="yes"/>
      <point x="114" y="721" type="line"/>
      <point x="114" y="898"/>
      <point x="240" y="1172"/>
      <point x="356" y="1246" type="qcurve" smooth="yes" name="inserted"/>
      <point x="414" y="1283" name="inserted"/>
      <point x="546" y="1320"/>
      <point x="622" y="1320" type="qcurve" smooth="yes"/>
      <point x="722" y="1320" name="inserted"/>
      <point x="890" y="1256"/>
      <point x="958" y="1191" type="qcurve"/>
      <point x="1054" y="1345" type="line"/>
      <point x="1142" y="1345" type="line"/>
      <point x="1009" y="1134" type="line"/>
      <point x="1069" y="1054" name="inserted"/>
      <point x="1129" y="849"/>
      <point x="1130" y="725" type="qcurve" smooth="yes"/>
    </contour>
    <contour>
      <point x="215" y="573" type="line"/>
      <point x="215" y="453" name="inserted"/>
      <point x="273" y="264"/>
      <point x="330" y="196" type="qcurve"/>
      <point x="906" y="1110" type="line"/>
      <point x="852" y="1169" name="inserted"/>
      <point x="710" y="1229"/>
      <point x="622" y="1229" type="qcurve" smooth="yes"/>
      <point x="435" y="1229"/>
      <point x="217" y="959"/>
      <point x="215" y="724" type="qcurve" smooth="yes"/>
    </contour>
    <contour>
      <point x="1029" y="723" type="line"/>
      <point x="1029" y="818" name="inserted"/>
      <point x="991" y="979"/>
      <point x="952" y="1043" type="qcurve"/>
      <point x="384" y="142" type="line"/>
      <point x="434" y="103" name="inserted"/>
      <point x="553" y="64"/>
      <point x="624" y="64" type="qcurve" smooth="yes"/>
      <point x="812" y="64"/>
      <point x="1028" y="332"/>
      <point x="1029" y="571" type="qcurve" smooth="yes"/>
    </contour>
  </outline>
</glyph>
<glyph name="Thorn" format="1">
  <advance width="1060"/>
  <unicode hex="00DE"/>
  <outline>
    <contour>
      <point x="264" y="1310" type="line"/>
      <point x="264" y="1029" type="line"/>
      <point x="553" y="1029" type="line"/>
      <point x="672" y="1030"/>
      <point x="854" y="939"/>
      <point x="905" y="856" type="qcurve" smooth="yes" name="inserted"/>
      <point x="931" y="814" name="inserted"/>
      <point x="954" y="718"/>
      <point x="954" y="664" type="qcurve" smooth="yes"/>
      <point x="954" y="498"/>
      <point x="735" y="299"/>
      <point x="545" y="300" type="qcurve" smooth="yes"/>
      <point x="264" y="300" type="line"/>
      <point x="264" y="0" type="line"/>
      <point x="175" y="0" type="line"/>
      <point x="175" y="1310" type="line"/>
    </contour>
    <contour>
      <point x="264" y="948" type="line"/>
      <point x="264" y="382" type="line"/>
      <point x="553" y="382" type="line"/>
      <point x="702" y="382"/>
      <point x="867" y="540"/>
      <point x="867" y="662" type="qcurve" smooth="yes"/>
      <point x="867" y="787"/>
      <point x="701" y="946"/>
      <point x="562" y="948" type="qcurve" smooth="yes"/>
    </contour>
  </outline>
</glyph>
<glyph name="germandbls" format="1">
  <advance width="1038"/>
  <unicode hex="00DF"/>
  <outline>
    <contour>
      <point x="216" y="-2" type="line"/>
      <point x="127" y="-2" type="line"/>
      <point x="127" y="1004" type="line"/>
      <point x="127" y="1184"/>
      <point x="282" y="1394"/>
      <point x="419" y="1394" type="qcurve" smooth="yes"/>
      <point x="573" y="1394"/>
      <point x="724" y="1248"/>
      <point x="724" y="1110" type="qcurve" smooth="yes"/>
      <point x="724" y="989"/>
      <point x="592" y="779"/>
      <point x="592" y="726" type="qcurve" smooth="yes"/>
      <point x="592" y="670"/>
      <point x="672" y="571"/>
      <point x="763" y="511" type="qcurve" smooth="yes" name="inserted"/>
      <point x="860" y="444"/>
      <point x="944" y="327"/>
      <point x="944" y="257" type="qcurve" smooth="yes"/>
      <point x="944" y="128"/>
      <point x="785" y="-20"/>
      <point x="646" y="-20" type="qcurve" smooth="yes"/>
      <point x="570" y="-20"/>
      <point x="391" y="29"/>
      <point x="360" y="56" type="qcurve"/>
      <point x="388" y="144" type="line"/>
      <point x="436" y="111"/>
      <point x="573" y="60"/>
      <point x="617" y="60" type="qcurve" smooth="yes"/>
      <point x="737" y="60"/>
      <point x="856" y="160"/>
      <point x="856" y="244" type="qcurve" smooth="yes"/>
      <point x="856" y="297"/>
      <point x="777" y="397"/>
      <point x="684" y="465" type="qcurve" smooth="yes" name="inserted"/>
      <point x="592" y="533"/>
      <point x="504" y="662"/>
      <point x="504" y="739" type="qcurve" smooth="yes"/>
      <point x="504" y="812"/>
      <point x="652" y="1018"/>
      <point x="652" y="1097" type="qcurve" smooth="yes"/>
      <point x="652" y="1200"/>
      <point x="545" y="1312"/>
      <point x="452" y="1312" type="qcurve" smooth="yes"/>
      <point x="337" y="1312" name="inserted"/>
      <point x="216" y="1158"/>
      <point x="216" y="1003" type="qcurve" smooth="yes"/>
    </contour>
  </outline>
</glyph>
<glyph name="ae" format="1">
  <advance width="1555"/>
  <unicode hex="00E6"/>
  <outline>
    <contour>
      <point x="1149" y="-20" type="qcurve" smooth="yes"/>
      <point x="1025" y="-20" name="inserted"/>
      <point x="843" y="73"/>
      <point x="783" y="166" type="qcurve"/>
      <point x="724" y="79"/>
      <point x="506" y="-20"/>
      <point x="364" y="-20" type="qcurve" smooth="yes"/>
      <point x="229" y="-20"/>
      <point x="79" y="131"/>
      <point x="79" y="262" type="qcurve" smooth="yes"/>
      <point x="79" y="402"/>
      <point x="268" y="560"/>
      <point x="447" y="560" type="qcurve" smooth="yes"/>
      <point x="691" y="560" type="line"/>
      <point x="691" y="656" type="line"/>
      <point x="691" y="773"/>
      <point x="570" y="909"/>
      <point x="457" y="909" type="qcurve" smooth="yes"/>
      <point x="344" y="909"/>
      <point x="186" y="783"/>
      <point x="186" y="691" type="qcurve"/>
      <point x="98" y="708" type="line"/>
      <point x="98" y="833"/>
      <point x="303" y="990"/>
      <point x="455" y="990" type="qcurve" smooth="yes"/>
      <point x="565" y="990"/>
      <point x="731" y="895"/>
      <point x="772" y="801" type="qcurve"/>
      <point x="829" y="890"/>
      <point x="993" y="989"/>
      <point x="1091" y="990" type="qcurve" smooth="yes"/>
      <point x="1279" y="990"/>
      <point x="1481" y="764"/>
      <point x="1481" y="551" type="qcurve" smooth="yes"/>
      <point x="1481" y="477" type="line"/>
      <point x="780" y="477" type="line"/>
      <point x="782" y="279"/>
      <point x="966" y="58"/>
      <point x="1125" y="58" type="qcurve" smooth="yes"/>
      <point x="1196" y="58" name="inserted"/>
      <point x="1329" y="101"/>
      <point x="1391" y="144" type="qcurve" smooth="yes"/>
      <point x="1425" y="175" type="line"/>
      <point x="1474" y="89" type="line"/>
      <point x="1397" y="29" name="inserted"/>
      <point x="1246" y="-20"/>
    </contour>
    <contour>
      <point x="381" y="72" type="qcurve" smooth="yes"/>
      <point x="461" y="72"/>
      <point x="641" y="162"/>
      <point x="691" y="221" type="qcurve"/>
      <point x="691" y="467" type="line"/>
      <point x="440" y="467" type="line"/>
      <point x="315" y="464"/>
      <point x="169" y="346"/>
      <point x="169" y="258" type="qcurve" smooth="yes"/>
      <point x="169" y="177"/>
      <point x="280" y="72"/>
    </contour>
    <contour>
      <point x="1091" y="909" type="qcurve" smooth="yes"/>
      <point x="971" y="909"/>
      <point x="806" y="716"/>
      <point x="786" y="571" type="qcurve"/>
      <point x="1390" y="571" type="line"/>
      <point x="1390" y="601" type="line"/>
      <point x="1390" y="747"/>
      <point x="1233" y="909"/>
    </contour>
  </outline>
</glyph>
<glyph name="divide" format="1">
  <advance width="1047"/>
  <unicode hex="00F7"/>
  <outline>
    <contour>
      <point x="963" y="605" type="line"/>
      <point x="65" y="605" type="line"/>
      <point x="65" y="704" type="line"/>
      <point x="963" y="704" type="line"/>
    </contour>
    <contour>
      <point x="583" y="931" type="line"/>
      <point x="458" y="931" type="line"/>
      <point x="458" y="1072" type="line"/>
      <point x="583" y="1072" type="line"/>
    </contour>
    <contour>
      <point x="583" y="215" type="line"/>
      <point x="458" y="215" type="line"/>
      <point x="458" y="356" type="line"/>
      <point x="583" y="356" type="line"/>
    </contour>
  </outline>
</glyph>
<glyph name="oslash" format="1">
  <advance width="1024"/>
  <unicode hex="00F8"/>
  <outline>
    <contour>
      <point x="0" y="0" type="line"/>
      <point x="1024" y="0" type="line"/>
      <point x="1024" y="20" type="line"/>
      <point x="0" y="20" type="line"/>
    </contour>
  </outline>
</glyph>
<glyph name="thorn" format="1">
  <advance width="1032"/>
  <unicode hex="00FE"/>
  <outline>
    <contour>
      <point x="924" y="436" type="line"/>
      <point x="924" y="210"/>
      <point x="724" y="-60"/>
      <point x="554" y="-60" type="qcurve" smooth="yes"/>
      <point x="452" y="-60"/>
      <point x="293" y="16"/>
      <point x="244" y="86" type="qcurve"/>
      <point x="244" y="-416" type="line"/>
      <point x="145" y="-416" type="line"/>
      <point x="145" y="1341" type="line"/>
      <point x="244" y="1341" type="line"/>
      <point x="244" y="790" type="line"/>
      <point x="294" y="868"/>
      <point x="451" y="950"/>
      <point x="551" y="950" type="qcurve" smooth="yes"/>
      <point x="724" y="950"/>
      <point x="924" y="687"/>
      <point x="924" y="451" type="qcurve" smooth="yes"/>
    </contour>
    <contour>
      <point x="825" y="454" type="qcurve" smooth="yes"/>
      <point x="825" y="645"/>
      <point x="669" y="862"/>
      <point x="530" y="862" type="qcurve" smooth="yes"/>
      <point x="428" y="862"/>
      <point x="281" y="761"/>
      <point x="244" y="664" type="qcurve"/>
      <point x="244" y="205" type="line"/>
      <point x="281" y="118"/>
      <point x="428" y="26"/>
      <point x="532" y="26" type="qcurve" smooth="yes"/>
      <point x="669" y="26"/>
      <point x="825" y="244"/>
    </contour>
  </outline>
</glyph>
<glyph name="dcroat" format="1">
  <advance width="1049"/>
  <unicode hex="0111"/>
  <outline>
    <contour>
      <point x="1032" y="1133" type="line"/>
      <point x="878" y="1133" type="line"/>
      <point x="878" y="-2" type="line"/>
      <point x="784" y="-2" type="line"/>
      <point x="781" y="132" type="line"/>
      <point x="732" y="58"/>
      <point x="573" y="-20"/>
      <point x="472" y="-20" type="qcurve" smooth="yes"/>
      <point x="303" y="-20"/>
      <point x="100" y="252"/>
      <point x="100" y="481" type="qcurve" smooth="yes"/>
      <point x="100" y="494" type="line"/>
      <point x="100" y="723"/>
      <point x="303" y="990"/>
      <point x="474" y="990" type="qcurve" smooth="yes"/>
      <point x="573" y="990"/>
      <point x="728" y="908"/>
      <point x="779" y="827" type="qcurve"/>
      <point x="779" y="1133" type="line"/>
      <point x="486" y="1133" type="line"/>
      <point x="486" y="1219" type="line"/>
      <point x="779" y="1219" type="line"/>
      <point x="779" y="1380" type="line"/>
      <point x="878" y="1380" type="line"/>
      <point x="878" y="1219" type="line"/>
      <point x="1032" y="1219" type="line"/>
    </contour>
    <contour>
      <point x="199" y="475" type="qcurve" smooth="yes"/>
      <point x="199" y="286"/>
      <point x="352" y="68"/>
      <point x="489" y="68" type="qcurve" smooth="yes"/>
      <point x="592" y="68"/>
      <point x="740" y="160"/>
      <point x="779" y="250" type="qcurve"/>
      <point x="779" y="702" type="line"/>
      <point x="739" y="802" name="inserted"/>
      <point x="595" y="902"/>
      <point x="491" y="902" type="qcurve" smooth="yes"/>
      <point x="353" y="902"/>
      <point x="199" y="686"/>
    </contour>
  </outline>
</glyph>
<glyph name="Eogonek" format="1">
  <advance width="1045"/>
  <unicode hex="0118"/>
  <outline>
    <contour>
      <point x="892" y="590" type="line"/>
      <point x="269" y="590" type="line"/>
      <point x="269" y="50" type="line"/>
      <point x="982" y="50" type="line"/>
      <point x="982" y="-40" type="line"/>
      <point x="903" y="-40" type="line"/>
      <point x="810" y="-109"/>
      <point x="742" y="-198"/>
      <point x="742" y="-245" type="qcurve" smooth="yes"/>
      <point x="742" y="-285" name="inserted"/>
      <point x="781" y="-324"/>
      <point x="820" y="-324" type="qcurve" smooth="yes"/>
      <point x="843" y="-324" name="inserted"/>
      <point x="889" y="-309"/>
      <point x="911" y="-294" type="qcurve"/>
      <point x="929" y="-360" type="line"/>
      <point x="903" y="-380" name="inserted"/>
      <point x="842" y="-400"/>
      <point x="809" y="-400" type="qcurve" smooth="yes"/>
      <point x="741" y="-400"/>
      <point x="658" y="-326"/>
      <point x="658" y="-253" type="qcurve" smooth="yes"/>
      <point x="658" y="-202" name="inserted"/>
      <point x="729" y="-96"/>
      <point x="800" y="-40" type="qcurve"/>
      <point x="163" y="-40" type="line"/>
      <point x="163" y="1271" type="line"/>
      <point x="983" y="1271" type="line"/>
      <point x="983" y="1180" type="line"/>
      <point x="269" y="1180" type="line"/>
      <point x="269" y="678" type="line"/>
      <point x="892" y="678" type="line"/>
    </contour>
  </outline>
</glyph>
<glyph name="eogonek" format="1">
  <advance width="949"/>
  <unicode hex="0119"/>
  <outline>
    <contour>
      <point x="0" y="0" type="line"/>
      <point x="949" y="0" type="line"/>
      <point x="949" y="20" type="line"/>
      <point x="0" y="20" type="line"/>
    </contour>
  </outline>
</glyph>
<glyph name="Lslash" format="1">
  <advance width="971"/>
  <unicode hex="0141"/>
  <outline>
    <contour>
      <point x="266" y="732" type="line"/>
      <point x="548" y="821" type="line"/>
      <point x="548" y="744" type="line"/>
      <point x="266" y="655" type="line"/>
      <point x="266" y="88" type="line"/>
      <point x="917" y="88" type="line"/>
      <point x="917" y="0" type="line"/>
      <point x="164" y="0" type="line"/>
      <point x="164" y="621" type="line"/>
      <point x="17" y="576" type="line"/>
      <point x="17" y="653" type="line"/>
      <point x="164" y="699" type="line"/>
      <point x="164" y="1310" type="line"/>
      <point x="266" y="1310" type="line"/>
    </contour>
  </outline>
</glyph>
<glyph name="lslash" format="1">
  <advance width="473"/>
  <unicode hex="0142"/>
  <outline>
    <contour>
      <point x="287" y="772" type="line"/>
      <point x="452" y="837" type="line"/>
      <point x="452" y="759" type="line"/>
      <point x="287" y="695" type="line"/>
      <point x="287" y="0" type="line"/>
      <point x="188" y="0" type="line"/>
      <point x="188" y="656" type="line"/>
      <point x="22" y="591" type="line"/>
      <point x="22" y="669" type="line"/>
      <point x="188" y="734" type="line"/>
      <point x="188" y="1382" type="line"/>
      <point x="287" y="1382" type="line"/>
    </contour>
  </outline>
</glyph>
<glyph name="OE" format="1">
  <advance width="1737"/>
  <unicode hex="0152"/>
  <outline>
    <contour>
      <point x="1561" y="-2" type="line"/>
      <point x="829" y="-2" type="line"/>
      <point x="746" y="-13" name="inserted"/>
      <point x="613" y="-22"/>
      <point x="563" y="-22" type="qcurve" smooth="yes"/>
      <point x="428" y="-22"/>
      <point x="218" y="113"/>
      <point x="160" y="235" type="qcurve" smooth="yes" name="inserted"/>
      <point x="130" y="296" name="inserted"/>
      <point x="100" y="433"/>
      <point x="100" y="510" type="qcurve" smooth="yes"/>
      <point x="100" y="790" type="line"/>
      <point x="100" y="944"/>
      <point x="216" y="1189"/>
      <point x="320" y="1257" type="qcurve" smooth="yes" name="inserted"/>
      <point x="373" y="1291" name="inserted"/>
      <point x="494" y="1326"/>
      <point x="561" y="1326" type="qcurve" smooth="yes"/>
      <point x="618" y="1326" name="inserted"/>
      <point x="751" y="1317"/>
      <point x="829" y="1308" type="qcurve"/>
      <point x="1545" y="1308" type="line"/>
      <point x="1545" y="1224" type="line"/>
      <point x="859" y="1224" type="line"/>
      <point x="859" y="720" type="line"/>
      <point x="1467" y="720" type="line"/>
      <point x="1467" y="633" type="line"/>
      <point x="859" y="633" type="line"/>
      <point x="859" y="80" type="line"/>
      <point x="1561" y="80" type="line"/>
    </contour>
    <contour>
      <point x="563" y="58" type="qcurve" smooth="yes"/>
      <point x="618" y="58" name="inserted"/>
      <point x="721" y="65"/>
      <point x="767" y="72" type="qcurve"/>
      <point x="767" y="1232" type="line"/>
      <point x="717" y="1240" name="inserted"/>
      <point x="614" y="1246"/>
      <point x="561" y="1246" type="qcurve" smooth="yes"/>
      <point x="385" y="1246"/>
      <point x="192" y="1008"/>
      <point x="189" y="801" type="qcurve"/>
      <point x="189" y="516" type="line"/>
      <point x="189" y="304"/>
      <point x="385" y="58"/>
    </contour>
  </outline>
</glyph>
<glyph name="oe" format="1">
  <advance width="1707"/>
  <unicode hex="0153"/>
  <outline>
    <contour>
      <point x="0" y="0" type="line"/>
      <point x="1707" y="0" type="line"/>
      <point x="1707" y="20" type="line"/>
      <point x="0" y="20" type="line"/>
    </contour>
  </outline>
</glyph>
<glyph name="Uogonek" format="1">
  <advance width="1215"/>
  <unicode hex="0172"/>
  <outline>
    <contour>
      <point x="0" y="0" type="line"/>
      <point x="1215" y="0" type="line"/>
      <point x="1215" y="20" type="line"/>
      <point x="0" y="20" type="line"/>
    </contour>
  </outline>
</glyph>
<glyph name="uogonek" format="1">
  <advance width="1016"/>
  <unicode hex="0173"/>
  <outline>
    <contour>
      <point x="870" y="-40" type="line"/>
      <point x="775" y="-109"/>
      <point x="709" y="-198"/>
      <point x="709" y="-245" type="qcurve" smooth="yes"/>
      <point x="709" y="-285" name="inserted"/>
      <point x="747" y="-324"/>
      <point x="786" y="-324" type="qcurve" smooth="yes"/>
      <point x="809" y="-324" name="inserted"/>
      <point x="855" y="-309"/>
      <point x="877" y="-294" type="qcurve"/>
      <point x="896" y="-360" type="line"/>
      <point x="869" y="-380" name="inserted"/>
      <point x="808" y="-400"/>
      <point x="774" y="-400" type="qcurve" smooth="yes"/>
      <point x="706" y="-400"/>
      <point x="624" y="-326"/>
      <point x="624" y="-253" type="qcurve" smooth="yes"/>
      <point x="624" y="-201" name="inserted"/>
      <point x="702" y="-90"/>
      <point x="779" y="-31" type="qcurve"/>
      <point x="777" y="107" type="line"/>
      <point x="733" y="30"/>
      <point x="575" y="-58"/>
      <point x="458" y="-58" type="qcurve" smooth="yes"/>
      <point x="298" y="-58"/>
      <point x="137" y="129"/>
      <point x="136" y="306" type="qcurve" smooth="yes"/>
      <point x="136" y="934" type="line"/>
      <point x="239" y="934" type="line"/>
      <point x="239" y="304" type="line"/>
      <point x="240" y="168"/>
      <point x="361" y="30"/>
      <point x="477" y="30" type="qcurve" smooth="yes"/>
      <point x="598" y="30"/>
      <point x="751" y="142"/>
      <point x="774" y="249" type="qcurve"/>
      <point x="774" y="934" type="line"/>
      <point x="879" y="934" type="line"/>
      <point x="879" y="-40" type="line"/>
    </contour>
  </outline>
</glyph>
<glyph name="florin" format="1">
  <advance width="600"/>
  <unicode hex="0192"/>
  <outline>
    <contour>
      <point x="540" y="847" type="line"/>
      <point x="314" y="847" type="line"/>
      <point x="314" y="-123" type="line"/>
      <point x="314" y="-275"/>
      <point x="172" y="-437"/>
      <point x="43" y="-437" type="qcurve" smooth="yes"/>
      <point x="17" y="-437" name="inserted"/>
      <point x="-33" y="-428"/>
      <point x="-57" y="-420" type="qcurve"/>
      <point x="-45" y="-337" type="line"/>
      <point x="-27" y="-343" name="inserted"/>
      <point x="17" y="-351"/>
      <point x="43" y="-351" type="qcurve" smooth="yes"/>
      <point x="126" y="-351"/>
      <point x="215" y="-233"/>
      <point x="215" y="-124" type="qcurve" smooth="yes"/>
      <point x="215" y="847" type="line"/>
      <point x="52" y="847" type="line"/>
      <point x="52" y="930" type="line"/>
      <point x="215" y="930" type="line"/>
      <point x="215" y="1058" type="line"/>
      <point x="216" y="1199"/>
      <point x="360" y="1358"/>
      <point x="490" y="1358" type="qcurve" smooth="yes"/>
      <point x="521" y="1358" name="inserted"/>
      <point x="581" y="1349"/>
      <point x="612" y="1341" type="qcurve"/>
      <point x="599" y="1258" type="line"/>
      <point x="578" y="1263" name="inserted"/>
      <point x="528" y="1269"/>
      <point x="500" y="1269" type="qcurve" smooth="yes"/>
      <point x="412" y="1269"/>
      <point x="314" y="1160"/>
      <point x="314" y="1057" type="qcurve" smooth="yes"/>
      <point x="314" y="930" type="line"/>
      <point x="540" y="930" type="line"/>
    </contour>
  </outline>
</glyph>
<glyph name="uni02BC" format="1">
  <advance width="650"/>
  <unicode hex="02BC"/>
  <outline>
    <contour>
      <point x="442" y="1461" type="line"/>
      <point x="304" y="1025" type="line"/>
      <point x="211" y="1025" type="line"/>
      <point x="303" y="1480" type="line"/>
      <point x="432" y="1480" type="line"/>
    </contour>
  </outline>
</glyph>
<glyph name="circumflex" format="1">
  <advance width="781"/>
  <unicode hex="02C6"/>
  <outline>
    <contour>
      <point x="635" y="1268" type="line"/>
      <point x="635" y="1259" type="line"/>
      <point x="542" y="1259" type="line"/>
      <point x="388" y="1425" type="line"/>
      <point x="235" y="1259" type="line"/>
      <point x="143" y="1259" type="line"/>
      <point x="143" y="1271" type="line"/>
      <point x="357" y="1499" type="line"/>
      <point x="420" y="1499" type="line"/>
    </contour>
  </outline>
</glyph>
<glyph name="caron" format="1">
  <advance width="743"/>
  <unicode hex="02C7"/>
  <outline>
    <contour>
      <point x="371" y="1314" type="line"/>
      <point x="529" y="1491" type="line"/>
      <point x="618" y="1491" type="line"/>
      <point x="618" y="1481" type="line"/>
      <point x="408" y="1246" type="line"/>
      <point x="334" y="1246" type="line"/>
      <point x="124" y="1482" type="line"/>
      <point x="124" y="1491" type="line"/>
      <point x="214" y="1491" type="line"/>
    </contour>
  </outline>
</glyph>
<glyph name="breve" format="1">
  <advance width="778"/>
  <unicode hex="02D8"/>
  <outline>
    <contour>
      <point x="643" y="1464" type="line"/>
      <point x="643" y="1360"/>
      <point x="502" y="1233"/>
      <point x="384" y="1233" type="qcurve" smooth="yes"/>
      <point x="267" y="1233"/>
      <point x="125" y="1360"/>
      <point x="125" y="1464" type="qcurve"/>
      <point x="211" y="1464" type="line"/>
      <point x="211" y="1390"/>
      <point x="299" y="1308"/>
      <point x="384" y="1308" type="qcurve" smooth="yes"/>
      <point x="467" y="1308"/>
      <point x="557" y="1391"/>
      <point x="557" y="1464" type="qcurve"/>
    </contour>
  </outline>
</glyph>
<glyph name="dotaccent" format="1">
  <advance width="408"/>
  <unicode hex="02D9"/>
  <outline>
    <contour>
      <point x="134" y="1377" type="qcurve" smooth="yes"/>
      <point x="134" y="1406"/>
      <point x="172" y="1447"/>
      <point x="205" y="1447" type="qcurve" smooth="yes" name="inserted"/>
      <point x="238" y="1447"/>
      <point x="276" y="1406"/>
      <point x="276" y="1377" type="qcurve" smooth="yes" name="inserted"/>
      <point x="276" y="1348"/>
      <point x="238" y="1308"/>
      <point x="205" y="1308" type="qcurve" smooth="yes" name="inserted"/>
      <point x="172" y="1308"/>
      <point x="134" y="1348"/>
    </contour>
  </outline>
</glyph>
<glyph name="ring" format="1">
  <advance width="565"/>
  <unicode hex="02DA"/>
  <outline>
    <contour>
      <point x="359" y="1465" type="qcurve" smooth="yes"/>
      <point x="395" y="1431"/>
      <point x="399" y="1334"/>
      <point x="364" y="1297" type="qcurve" smooth="yes" name="inserted"/>
      <point x="329" y="1259"/>
      <point x="231" y="1254"/>
      <point x="194" y="1287" type="qcurve" smooth="yes"/>
      <point x="158" y="1320"/>
      <point x="153" y="1416"/>
      <point x="188" y="1454" type="qcurve" smooth="yes" name="inserted"/>
      <point x="223" y="1493"/>
      <point x="322" y="1498"/>
    </contour>
    <contour>
      <point x="171" y="1375" type="qcurve" smooth="yes"/>
      <point x="171" y="1329"/>
      <point x="231" y="1271"/>
      <point x="276" y="1271" type="qcurve" smooth="yes" name="inserted"/>
      <point x="321" y="1271"/>
      <point x="381" y="1329"/>
      <point x="381" y="1375" type="qcurve" smooth="yes"/>
      <point x="381" y="1422"/>
      <point x="321" y="1482"/>
      <point x="276" y="1482" type="qcurve" smooth="yes" name="inserted"/>
      <point x="231" y="1482"/>
      <point x="171" y="1421"/>
    </contour>
  </outline>
</glyph>
<glyph name="ogonek" format="1">
  <advance width="457"/>
  <unicode hex="02DB"/>
  <outline>
    <contour>
      <point x="301" y="-40" type="line"/>
      <point x="207" y="-101"/>
      <point x="140" y="-191"/>
      <point x="140" y="-237" type="qcurve" smooth="yes"/>
      <point x="140" y="-277" name="inserted"/>
      <point x="178" y="-316"/>
      <point x="217" y="-316" type="qcurve" smooth="yes"/>
      <point x="240" y="-316" name="inserted"/>
      <point x="285" y="-301"/>
      <point x="308" y="-286" type="qcurve"/>
      <point x="327" y="-352" type="line"/>
      <point x="300" y="-372" name="inserted"/>
      <point x="240" y="-392"/>
      <point x="206" y="-392" type="qcurve" smooth="yes"/>
      <point x="137" y="-392"/>
      <point x="55" y="-318"/>
      <point x="55" y="-245" type="qcurve" smooth="yes"/>
      <point x="55" y="-187" name="inserted"/>
      <point x="145" y="-71"/>
      <point x="235" y="-14" type="qcurve"/>
    </contour>
  </outline>
</glyph>
<glyph name="hungarumlaut" format="1">
  <advance width="698"/>
  <unicode hex="02DD"/>
  <outline>
    <contour>
      <point x="574" y="1506" type="line"/>
      <point x="695" y="1506" type="line"/>
      <point x="443" y="1232" type="line"/>
      <point x="340" y="1232" type="line"/>
    </contour>
    <contour>
      <point x="299" y="1506" type="line"/>
      <point x="414" y="1506" type="line"/>
      <point x="205" y="1232" type="line"/>
      <point x="111" y="1232" type="line"/>
    </contour>
  </outline>
</glyph>
<glyph name="pi" format="1">
  <advance width="1097"/>
  <unicode hex="03C0"/>
  <outline>
    <contour>
      <point x="1020" y="886" type="line"/>
      <point x="849" y="886" type="line"/>
      <point x="849" y="244" type="line"/>
      <point x="849" y="161"/>
      <point x="908" y="79"/>
      <point x="979" y="79" type="qcurve" smooth="yes"/>
      <point x="999" y="79" name="inserted"/>
      <point x="1044" y="84"/>
      <point x="1067" y="88" type="qcurve"/>
      <point x="1072" y="4" type="line"/>
      <point x="1051" y="-3" name="inserted"/>
      <point x="994" y="-10"/>
      <point x="959" y="-10" type="qcurve" smooth="yes"/>
      <point x="850" y="-10"/>
      <point x="750" y="114"/>
      <point x="749" y="244" type="qcurve" smooth="yes"/>
      <point x="749" y="886" type="line"/>
      <point x="312" y="886" type="line"/>
      <point x="312" y="-1" type="line"/>
      <point x="213" y="-1" type="line"/>
      <point x="213" y="886" type="line"/>
      <point x="48" y="886" type="line"/>
      <point x="48" y="973" type="line"/>
      <point x="1020" y="973" type="line"/>
    </contour>
  </outline>
</glyph>
<glyph name="anusvaradeva" format="1">
  <unicode hex="0902"/>
  <outline>
    <contour>
      <point x="-223" y="1478" type="line"/>
      <point x="-340" y="1478" type="line"/>
      <point x="-340" y="1641" type="line"/>
      <point x="-223" y="1641" type="line"/>
    </contour>
    <contour>
      <point x="-345" y="1271" type="move" name="_top"/>
    </contour>
  </outline>
</glyph>
<glyph name="adeva" format="1">
  <advance width="1391"/>
  <unicode hex="0905"/>
  <outline>
    <contour>
      <point x="225" y="672" type="qcurve"/>
      <point x="225" y="760" type="line"/>
      <point x="437" y="762"/>
      <point x="590" y="911"/>
      <point x="590" y="1006" type="qcurve" smooth="yes"/>
      <point x="590" y="1088"/>
      <point x="473" y="1195"/>
      <point x="371" y="1195" type="qcurve" smooth="yes"/>
      <point x="314" y="1195"/>
      <point x="218" y="1172"/>
      <point x="157" y="1138" type="qcurve"/>
      <point x="143" y="1227" type="line"/>
      <point x="200" y="1258"/>
      <point x="313" y="1284"/>
      <point x="371" y="1284" type="qcurve" smooth="yes"/>
      <point x="512" y="1284"/>
      <point x="694" y="1131"/>
      <point x="694" y="1003" type="qcurve" smooth="yes"/>
      <point x="694" y="863"/>
      <point x="465" y="674"/>
    </contour>
    <contour>
      <point x="369" y="771" type="line"/>
      <point x="527" y="768"/>
      <point x="724" y="569"/>
      <point x="724" y="433" type="qcurve" smooth="yes"/>
      <point x="724" y="284"/>
      <point x="531" y="111"/>
      <point x="380" y="111" type="qcurve" smooth="yes"/>
      <point x="306" y="111"/>
      <point x="157" y="146"/>
      <point x="83" y="175" type="qcurve"/>
      <point x="98" y="265" type="line"/>
      <point x="168" y="233"/>
      <point x="299" y="199"/>
      <point x="368" y="199" type="qcurve" smooth="yes"/>
      <point x="483" y="199"/>
      <point x="622" y="333"/>
      <point x="622" y="440" type="qcurve" smooth="yes"/>
      <point x="622" y="533"/>
      <point x="486" y="694"/>
      <point x="352" y="694" type="qcurve"/>
    </contour>
    <contour>
      <point x="1047" y="1231" type="line"/>
      <point x="1150" y="1231" type="line"/>
      <point x="1150" y="0" type="line"/>
      <point x="1047" y="0" type="line"/>
    </contour>
    <contour>
      <point x="1421" y="1188" type="line"/>
      <point x="811" y="1188" type="line"/>
      <point x="811" y="1276" type="line"/>
      <point x="1421" y="1276" type="line"/>
    </contour>
    <contour>
      <point x="619" y="657" type="line"/>
      <point x="1098" y="657" type="line"/>
      <point x="1098" y="569" type="line"/>
      <point x="632" y="569" type="line"/>
    </contour>
  </outline>
</glyph>
<glyph name="uudeva" format="1">
  <advance width="1343"/>
  <unicode hex="090A"/>
  <outline>
    <contour>
      <point x="797" y="1188" type="line"/>
      <point x="797" y="1276" type="line"/>
      <point x="1373" y="1276" type="line"/>
      <point x="1373" y="1188" type="line"/>
    </contour>
    <contour>
      <point x="574" y="678" type="line"/>
      <point x="633" y="731"/>
      <point x="801" y="798"/>
      <point x="903" y="798" type="qcurve" smooth="yes"/>
      <point x="1043" y="798"/>
      <point x="1231" y="619"/>
      <point x="1231" y="473" type="qcurve" smooth="yes"/>
      <point x="1231" y="378"/>
      <point x="1157" y="212"/>
      <point x="1103" y="140" type="qcurve"/>
      <point x="1002" y="160" type="line"/>
      <point x="1064" y="242"/>
      <point x="1127" y="393"/>
      <point x="1127" y="475" type="qcurve" smooth="yes"/>
      <point x="1127" y="582"/>
      <point x="996" y="711"/>
      <point x="898" y="711" type="qcurve" smooth="yes"/>
      <point x="813" y="711"/>
      <point x="681" y="650"/>
      <point x="620" y="591" type="qcurve"/>
    </contour>
    <component base="udeva"/>
    <contour>
      <point x="583" y="1271" type="move" name="top"/>
    </contour>
  </outline>
</glyph>
<glyph name="rvocalicdeva" format="1">
  <advance width="1540"/>
  <unicode hex="090B"/>
  <outline>
    <contour>
      <point x="942" y="1188" type="line"/>
      <point x="942" y="1276" type="line"/>
      <point x="1570" y="1276" type="line"/>
      <point x="1570" y="1188" type="line"/>
    </contour>
    <contour>
      <point x="1193" y="750" type="line"/>
      <point x="1300" y="653"/>
      <point x="1396" y="477"/>
      <point x="1396" y="396" type="qcurve" smooth="yes"/>
      <point x="1396" y="290"/>
      <point x="1259" y="161"/>
      <point x="1160" y="161" type="qcurve" smooth="yes"/>
      <point x="1125" y="161"/>
      <point x="1088" y="165"/>
      <point x="1064" y="170" type="qcurve"/>
      <point x="1056" y="248" type="line"/>
      <point x="1074" y="245"/>
      <point x="1103" y="242"/>
      <point x="1125" y="242" type="qcurve" smooth="yes"/>
      <point x="1205" y="242"/>
      <point x="1297" y="325"/>
      <point x="1297" y="399" type="qcurve" smooth="yes"/>
      <point x="1297" y="462"/>
      <point x="1206" y="618"/>
      <point x="1116" y="687" type="qcurve"/>
    </contour>
    <contour>
      <point x="1244" y="728" type="qcurve" smooth="yes"/>
      <point x="1177" y="661"/>
      <point x="923" y="579"/>
      <point x="779" y="579" type="qcurve"/>
      <point x="782" y="673" type="line"/>
      <point x="896" y="673"/>
      <point x="1071" y="721"/>
      <point x="1128" y="764" type="qcurve"/>
      <point x="1097" y="720" type="line"/>
      <point x="1071" y="751"/>
      <point x="1051" y="786"/>
      <point x="1051" y="808" type="qcurve" smooth="yes"/>
      <point x="1051" y="839"/>
      <point x="1108" y="884"/>
      <point x="1157" y="884" type="qcurve" smooth="yes"/>
      <point x="1210" y="884"/>
      <point x="1276" y="833"/>
      <point x="1276" y="799" type="qcurve" smooth="yes"/>
      <point x="1276" y="778"/>
      <point x="1261" y="745"/>
    </contour>
    <contour>
      <point x="785" y="560" type="line"/>
      <point x="234" y="227" type="line"/>
      <point x="179" y="310" type="line"/>
      <point x="745" y="647" type="line"/>
    </contour>
    <contour>
      <point x="-30" y="1188" type="line"/>
      <point x="-30" y="1276" type="line"/>
      <point x="1092" y="1276" type="line"/>
      <point x="1092" y="1188" type="line"/>
    </contour>
    <contour>
      <point x="56" y="853" type="line"/>
      <point x="105" y="880"/>
      <point x="222" y="915"/>
      <point x="292" y="915" type="qcurve" smooth="yes"/>
      <point x="355" y="915"/>
      <point x="499" y="858"/>
      <point x="577" y="807" type="qcurve" smooth="yes"/>
      <point x="760" y="686" type="line"/>
      <point x="760" y="574" type="line"/>
      <point x="536" y="720" type="line"/>
      <point x="461" y="770"/>
      <point x="342" y="821"/>
      <point x="291" y="821" type="qcurve" smooth="yes"/>
      <point x="235" y="821"/>
      <point x="132" y="787"/>
      <point x="75" y="758" type="qcurve"/>
    </contour>
    <contour>
      <point x="714" y="1230" type="line"/>
      <point x="817" y="1230" type="line"/>
      <point x="817" y="0" type="line"/>
      <point x="714" y="0" type="line"/>
    </contour>
    <contour>
      <point x="724" y="1265" type="move" name="mark0"/>
    </contour>
  </outline>
</glyph>
<glyph name="edeva" format="1">
  <advance width="1093"/>
  <unicode hex="090F"/>
  <outline>
    <contour>
      <point x="863" y="1236" type="line"/>
      <point x="863" y="834" type="line"/>
      <point x="863" y="705"/>
      <point x="778" y="532"/>
      <point x="684" y="474" type="qcurve"/>
      <point x="617" y="539" type="line"/>
      <point x="693" y="591"/>
      <point x="760" y="734"/>
      <point x="760" y="850" type="qcurve" smooth="yes"/>
      <point x="760" y="1236" type="line"/>
    </contour>
    <contour>
      <point x="-30" y="1188" type="line"/>
      <point x="-30" y="1276" type="line"/>
      <point x="1123" y="1276" type="line"/>
      <point x="1123" y="1188" type="line"/>
    </contour>
    <contour>
      <point x="180" y="1236" type="line"/>
      <point x="283" y="1236" type="line"/>
      <point x="283" y="729" type="line"/>
      <point x="283" y="445"/>
      <point x="547" y="128"/>
      <point x="857" y="100" type="qcurve"/>
      <point x="832" y="12" type="line"/>
      <point x="486" y="44"/>
      <point x="180" y="420"/>
      <point x="180" y="733" type="qcurve" smooth="yes"/>
    </contour>
    <contour>
      <point x="-40" y="3" type="move" name="x44"/>
    </contour>
  </outline>
</glyph>
<glyph name="kadeva" format="1">
  <advance width="1495"/>
  <unicode hex="0915"/>
  <outline>
    <contour>
      <point x="-30" y="1188" type="line"/>
      <point x="-30" y="1276" type="line"/>
      <point x="1525" y="1276" type="line"/>
      <point x="1525" y="1188" type="line"/>
    </contour>
    <contour>
      <point x="692" y="1217" type="line"/>
      <point x="796" y="1217" type="line"/>
      <point x="796" y="0" type="line"/>
      <point x="692" y="0" type="line"/>
    </contour>
    <contour>
      <point x="708" y="342" type="line"/>
      <point x="670" y="299"/>
      <point x="522" y="232"/>
      <point x="418" y="232" type="qcurve" smooth="yes"/>
      <point x="283" y="232"/>
      <point x="76" y="412"/>
      <point x="76" y="579" type="qcurve" smooth="yes"/>
      <point x="76" y="729"/>
      <point x="264" y="898"/>
      <point x="401" y="898" type="qcurve" smooth="yes"/>
      <point x="501" y="898"/>
      <point x="645" y="853"/>
      <point x="708" y="818" type="qcurve"/>
      <point x="708" y="717" type="line"/>
      <point x="641" y="762"/>
      <point x="502" y="810"/>
      <point x="411" y="810" type="qcurve" smooth="yes"/>
      <point x="310" y="810"/>
      <point x="179" y="685"/>
      <point x="179" y="574" type="qcurve" smooth="yes"/>
      <point x="179" y="449"/>
      <point x="324" y="320"/>
      <point x="415" y="320" type="qcurve" smooth="yes"/>
      <point x="508" y="320"/>
      <point x="654" y="390"/>
      <point x="708" y="455" type="qcurve"/>
    </contour>
    <contour>
      <point x="769" y="780" type="line"/>
      <point x="819" y="816"/>
      <point x="955" y="862"/>
      <point x="1043" y="862" type="qcurve" smooth="yes"/>
      <point x="1184" y="862"/>
      <point x="1377" y="683"/>
      <point x="1377" y="536" type="qcurve" smooth="yes"/>
      <point x="1377" y="441"/>
      <point x="1302" y="259"/>
      <point x="1254" y="197" type="qcurve"/>
      <point x="1153" y="218" type="line"/>
      <point x="1210" y="289"/>
      <point x="1272" y="457"/>
      <point x="1272" y="539" type="qcurve" smooth="yes"/>
      <point x="1272" y="645"/>
      <point x="1139" y="774"/>
      <point x="1042" y="774" type="qcurve" smooth="yes"/>
      <point x="964" y="774"/>
      <point x="830" y="720"/>
      <point x="769" y="669" type="qcurve"/>
    </contour>
    <contour>
      <point x="677" y="-10" type="move" name="btm"/>
    </contour>
    <contour>
      <point x="687" y="1271" type="move" name="top"/>
    </contour>
  </outline>
</glyph>
<glyph name="khadeva" format="1">
  <advance width="1661"/>
  <unicode hex="0916"/>
  <outline>
    <contour>
      <point x="1333" y="413" type="line"/>
      <point x="1289" y="375"/>
      <point x="1172" y="334"/>
      <point x="1092" y="334" type="qcurve" smooth="yes"/>
      <point x="969" y="334"/>
      <point x="765" y="502"/>
      <point x="765" y="651" type="qcurve" smooth="yes"/>
      <point x="765" y="787"/>
      <point x="957" y="946"/>
      <point x="1080" y="946" type="qcurve" smooth="yes"/>
      <point x="1165" y="946"/>
      <point x="1292" y="905"/>
      <point x="1338" y="872" type="qcurve"/>
      <point x="1338" y="771" type="line"/>
      <point x="1284" y="816"/>
      <point x="1165" y="858"/>
      <point x="1092" y="858" type="qcurve" smooth="yes"/>
      <point x="1000" y="858"/>
      <point x="869" y="743"/>
      <point x="868" y="643" type="qcurve" smooth="yes"/>
      <point x="867" y="535"/>
      <point x="1008" y="423"/>
      <point x="1094" y="423" type="qcurve" smooth="yes"/>
      <point x="1164" y="423"/>
      <point x="1281" y="466"/>
      <point x="1333" y="517" type="qcurve"/>
    </contour>
    <contour>
      <point x="632" y="1188" type="line"/>
      <point x="632" y="1276" type="line"/>
      <point x="1691" y="1276" type="line"/>
      <point x="1691" y="1188" type="line"/>
    </contour>
    <contour>
      <point x="1317" y="1220" type="line"/>
      <point x="1421" y="1220" type="line"/>
      <point x="1421" y="0" type="line"/>
      <point x="1317" y="0" type="line"/>
    </contour>
    <component base="radeva"/>
    <contour>
      <point x="1314" y="1271" type="move" name="top"/>
    </contour>
  </outline>
</glyph>
<glyph name="gadeva" format="1">
  <advance width="1171"/>
  <unicode hex="0917"/>
  <outline>
    <contour>
      <point x="827" y="1220" type="line"/>
      <point x="931" y="1220" type="line"/>
      <point x="931" y="0" type="line"/>
      <point x="827" y="0" type="line"/>
    </contour>
    <contour>
      <point x="1201" y="1188" type="line"/>
      <point x="-30" y="1188" type="line"/>
      <point x="-30" y="1276" type="line"/>
      <point x="1201" y="1276" type="line"/>
    </contour>
    <contour>
      <point x="383" y="1235" type="line"/>
      <point x="383" y="544" type="line"/>
      <point x="383" y="489"/>
      <point x="346" y="441"/>
      <point x="314" y="441" type="qcurve" smooth="yes"/>
      <point x="255" y="441"/>
      <point x="156" y="559"/>
      <point x="156" y="627" type="qcurve" smooth="yes"/>
      <point x="156" y="662"/>
      <point x="202" y="701"/>
      <point x="247" y="701" type="qcurve" smooth="yes"/>
      <point x="295" y="701" type="line"/>
      <point x="280" y="651" type="line"/>
      <point x="280" y="1235" type="line"/>
    </contour>
    <contour>
      <point x="822" y="1271" type="move" name="top"/>
    </contour>
  </outline>
</glyph>
<glyph name="ghadeva" format="1">
  <advance width="1235"/>
  <unicode hex="0918"/>
  <outline>
    <contour>
      <point x="-30" y="1188" type="line"/>
      <point x="-30" y="1276" type="line"/>
      <point x="1265" y="1276" type="line"/>
      <point x="1265" y="1188" type="line"/>
    </contour>
    <contour>
      <point x="891" y="1228" type="line"/>
      <point x="994" y="1228" type="line"/>
      <point x="994" y="0" type="line"/>
      <point x="891" y="0" type="line"/>
    </contour>
    <contour>
      <point x="594" y="753" type="line"/>
      <point x="503" y="753" type="line"/>
      <point x="371" y="753"/>
      <point x="182" y="903"/>
      <point x="182" y="1030" type="qcurve" smooth="yes"/>
      <point x="182" y="1135"/>
      <point x="342" y="1272"/>
      <point x="485" y="1272" type="qcurve" smooth="yes"/>
      <point x="583" y="1272" type="line"/>
      <point x="583" y="1188" type="line"/>
      <point x="494" y="1188" type="line"/>
      <point x="391" y="1188"/>
      <point x="286" y="1098"/>
      <point x="286" y="1023" type="qcurve" smooth="yes"/>
      <point x="286" y="940"/>
      <point x="407" y="835"/>
      <point x="505" y="835" type="qcurve" smooth="yes"/>
      <point x="594" y="835" type="line"/>
    </contour>
    <contour>
      <point x="917" y="323" type="line"/>
      <point x="849" y="275"/>
      <point x="649" y="213"/>
      <point x="541" y="213" type="qcurve" smooth="yes"/>
      <point x="368" y="213"/>
      <point x="152" y="387"/>
      <point x="152" y="532" type="qcurve" smooth="yes"/>
      <point x="152" y="665"/>
      <point x="362" y="835"/>
      <point x="547" y="835" type="qcurve" smooth="yes"/>
      <point x="649" y="835" type="line"/>
      <point x="655" y="747" type="line"/>
      <point x="547" y="747" type="line"/>
      <point x="409" y="747"/>
      <point x="255" y="627"/>
      <point x="255" y="526" type="qcurve" smooth="yes"/>
      <point x="255" y="426"/>
      <point x="411" y="301"/>
      <point x="539" y="301" type="qcurve" smooth="yes"/>
      <point x="646" y="301"/>
      <point x="840" y="372"/>
      <point x="919" y="438" type="qcurve"/>
    </contour>
    <contour>
      <point x="886" y="1271" type="move" name="top"/>
    </contour>
  </outline>
</glyph>
<glyph name="chadeva" format="1">
  <advance width="1407"/>
  <unicode hex="091B"/>
  <outline>
    <contour>
      <point x="1436" y="1188" type="line"/>
      <point x="-30" y="1188" type="line"/>
      <point x="-30" y="1276" type="line"/>
      <point x="1436" y="1276" type="line"/>
    </contour>
    <contour>
      <point x="589" y="691" type="line"/>
      <point x="516" y="691" type="line"/>
      <point x="363" y="691"/>
      <point x="166" y="867"/>
      <point x="167" y="997" type="qcurve" smooth="yes"/>
      <point x="168" y="1115"/>
      <point x="340" y="1270"/>
      <point x="473" y="1270" type="qcurve" smooth="yes"/>
      <point x="568" y="1270" type="line"/>
      <point x="571" y="1188" type="line"/>
      <point x="491" y="1188" type="line"/>
      <point x="389" y="1188"/>
      <point x="270" y="1072"/>
      <point x="270" y="989" type="qcurve" smooth="yes"/>
      <point x="270" y="900"/>
      <point x="396" y="775"/>
      <point x="521" y="775" type="qcurve" smooth="yes"/>
      <point x="589" y="775" type="line"/>
    </contour>
    <contour>
      <point x="1255" y="600" type="qcurve" smooth="yes"/>
      <point x="1255" y="365"/>
      <point x="917" y="53"/>
      <point x="650" y="52" type="qcurve" smooth="yes"/>
      <point x="445" y="52"/>
      <point x="174" y="270"/>
      <point x="173" y="441" type="qcurve" smooth="yes"/>
      <point x="172" y="591"/>
      <point x="382" y="775"/>
      <point x="558" y="775" type="qcurve" smooth="yes"/>
      <point x="640" y="775" type="line"/>
      <point x="647" y="687" type="line"/>
      <point x="562" y="687" type="line"/>
      <point x="426" y="687"/>
      <point x="276" y="552"/>
      <point x="277" y="433" type="qcurve" smooth="yes"/>
      <point x="278" y="308"/>
      <point x="486" y="140"/>
      <point x="645" y="140" type="qcurve" smooth="yes"/>
      <point x="864" y="140"/>
      <point x="1155" y="397"/>
      <point x="1155" y="608" type="qcurve" smooth="yes"/>
      <point x="1155" y="715"/>
      <point x="1057" y="846"/>
      <point x="988" y="846" type="qcurve" smooth="yes"/>
      <point x="941" y="846"/>
      <point x="866" y="823"/>
      <point x="827" y="798" type="qcurve"/>
      <point x="803" y="881" type="line"/>
      <point x="843" y="907"/>
      <point x="936" y="935"/>
      <point x="988" y="935" type="qcurve" smooth="yes"/>
      <point x="1103" y="935"/>
      <point x="1255" y="753"/>
    </contour>
    <contour>
      <point x="1063" y="1235" type="line"/>
      <point x="1166" y="1235" type="line"/>
      <point x="1166" y="845" type="line"/>
      <point x="1063" y="845" type="line"/>
    </contour>
    <contour>
      <point x="619" y="64" type="move" name="btm"/>
    </contour>
    <contour>
      <point x="979" y="1271" type="move" name="top"/>
    </contour>
  </outline>
</glyph>
<glyph name="jhadeva" format="1">
  <advance width="1554"/>
  <unicode hex="091D"/>
  <outline>
    <contour>
      <point x="810" y="483" type="line"/>
      <point x="1263" y="483" type="line"/>
      <point x="1263" y="394" type="line"/>
      <point x="834" y="394" type="line"/>
    </contour>
    <component base="ideva" xOffset="11"/>
    <component base="aavowelsigndeva" xOffset="1026"/>
    <contour>
      <point x="1208" y="1271" type="move" name="top"/>
    </contour>
  </outline>
</glyph>
<glyph name="nyadeva" format="1">
  <advance width="1424"/>
  <unicode hex="091E"/>
  <outline>
    <contour>
      <point x="710" y="663" type="line"/>
      <point x="1107" y="663" type="line"/>
      <point x="1107" y="573" type="line"/>
      <point x="710" y="573" type="line"/>
    </contour>
    <contour>
      <point x="-30" y="1188" type="line"/>
      <point x="-30" y="1276" type="line"/>
      <point x="1454" y="1276" type="line"/>
      <point x="1454" y="1188" type="line"/>
    </contour>
    <contour>
      <point x="1080" y="1225" type="line"/>
      <point x="1183" y="1225" type="line"/>
      <point x="1183" y="0" type="line"/>
      <point x="1080" y="0" type="line"/>
    </contour>
    <contour>
      <point x="756" y="581" type="qcurve" smooth="yes"/>
      <point x="756" y="422"/>
      <point x="559" y="225"/>
      <point x="396" y="225" type="qcurve" smooth="yes"/>
      <point x="318" y="225"/>
      <point x="159" y="272"/>
      <point x="57" y="338" type="qcurve"/>
      <point x="81" y="424" type="line"/>
      <point x="192" y="355"/>
      <point x="321" y="319"/>
      <point x="386" y="319" type="qcurve" smooth="yes"/>
      <point x="508" y="319"/>
      <point x="653" y="462"/>
      <point x="653" y="585" type="qcurve" smooth="yes"/>
      <point x="653" y="701"/>
      <point x="504" y="845"/>
      <point x="379" y="846" type="qcurve" smooth="yes"/>
      <point x="315" y="846"/>
      <point x="199" y="817"/>
      <point x="148" y="786" type="qcurve"/>
      <point x="126" y="872" type="line"/>
      <point x="178" y="902"/>
      <point x="308" y="937"/>
      <point x="378" y="937" type="qcurve" smooth="yes"/>
      <point x="543" y="937"/>
      <point x="756" y="737"/>
    </contour>
    <contour>
      <point x="1071" y="1271" type="move" name="top"/>
    </contour>
  </outline>
</glyph>
<glyph name="tthadeva" format="1">
  <advance width="1154"/>
  <unicode hex="0920"/>
  <outline>
    <contour>
      <point x="1184" y="1188" type="line"/>
      <point x="-30" y="1188" type="line"/>
      <point x="-30" y="1276" type="line"/>
      <point x="1184" y="1276" type="line"/>
    </contour>
    <contour>
      <point x="860" y="799" type="line"/>
      <point x="559" y="799" type="line"/>
      <point x="393" y="799"/>
      <point x="193" y="645"/>
      <point x="193" y="504" type="qcurve" smooth="yes"/>
      <point x="193" y="364"/>
      <point x="399" y="184"/>
      <point x="562" y="184" type="qcurve" smooth="yes"/>
      <point x="737" y="184"/>
      <point x="938" y="356"/>
      <point x="938" y="496" type="qcurve" smooth="yes"/>
      <point x="938" y="592"/>
      <point x="864" y="748"/>
      <point x="786" y="810" type="qcurve"/>
      <point x="874" y="865" type="line"/>
      <point x="947" y="797"/>
      <point x="1038" y="612"/>
      <point x="1038" y="494" type="qcurve" smooth="yes"/>
      <point x="1039" y="319"/>
      <point x="785" y="93"/>
      <point x="571" y="93" type="qcurve" smooth="yes"/>
      <point x="353" y="93"/>
      <point x="91" y="329"/>
      <point x="91" y="510" type="qcurve" smooth="yes"/>
      <point x="91" y="689"/>
      <point x="350" y="887"/>
      <point x="535" y="887" type="qcurve" smooth="yes"/>
      <point x="840" y="887" type="line"/>
      <point x="810" y="853" type="line"/>
      <point x="810" y="1217" type="line"/>
      <point x="913" y="1217" type="line"/>
      <point x="913" y="799" type="line"/>
    </contour>
    <contour>
      <point x="510" y="52" type="move" name="btm"/>
    </contour>
    <contour>
      <point x="773" y="1271" type="move" name="top"/>
    </contour>
  </outline>
</glyph>
<glyph name="ddhadeva" format="1">
  <advance width="1049"/>
  <unicode hex="0922"/>
  <outline>
    <contour>
      <point x="1079" y="1188" type="line"/>
      <point x="-30" y="1188" type="line"/>
      <point x="-30" y="1276" type="line"/>
      <point x="1079" y="1276" type="line"/>
    </contour>
    <contour>
      <point x="703" y="1215" type="line"/>
      <point x="808" y="1215" type="line"/>
      <point x="808" y="804" type="line"/>
      <point x="534" y="804" type="line"/>
      <point x="377" y="804"/>
      <point x="177" y="643"/>
      <point x="177" y="498" type="qcurve" smooth="yes"/>
      <point x="177" y="336"/>
      <point x="419" y="152"/>
      <point x="590" y="152" type="qcurve" smooth="yes"/>
      <point x="706" y="152"/>
      <point x="845" y="251"/>
      <point x="845" y="325" type="qcurve" smooth="yes"/>
      <point x="845" y="382"/>
      <point x="762" y="459"/>
      <point x="681" y="459" type="qcurve" smooth="yes"/>
      <point x="619" y="459"/>
      <point x="506" y="400"/>
      <point x="458" y="335" type="qcurve"/>
      <point x="409" y="405" type="line"/>
      <point x="460" y="478"/>
      <point x="603" y="548"/>
      <point x="683" y="548" type="qcurve" smooth="yes"/>
      <point x="797" y="548"/>
      <point x="944" y="422"/>
      <point x="944" y="324" type="qcurve" smooth="yes"/>
      <point x="944" y="221"/>
      <point x="763" y="63"/>
      <point x="596" y="63" type="qcurve" smooth="yes"/>
      <point x="369" y="63"/>
      <point x="75" y="307"/>
      <point x="75" y="510" type="qcurve" smooth="yes"/>
      <point x="75" y="685"/>
      <point x="316" y="893"/>
      <point x="520" y="893" type="qcurve" smooth="yes"/>
      <point x="749" y="893" type="line"/>
      <point x="703" y="861" type="line"/>
    </contour>
    <contour>
      <point x="520" y="50" type="move" name="btm"/>
    </contour>
    <contour>
      <point x="683" y="1271" type="move" name="top"/>
    </contour>
  </outline>
</glyph>
<glyph name="tadeva" format="1">
  <advance width="1104"/>
  <unicode hex="0924"/>
  <outline>
    <contour>
      <point x="802" y="861" type="line"/>
      <point x="802" y="772" type="line"/>
      <point x="522" y="772" type="line"/>
      <point x="374" y="772"/>
      <point x="217" y="624"/>
      <point x="217" y="505" type="qcurve" smooth="yes"/>
      <point x="217" y="388"/>
      <point x="308" y="178"/>
      <point x="417" y="43" type="qcurve"/>
      <point x="331" y="6" type="line"/>
      <point x="219" y="142"/>
      <point x="113" y="387"/>
      <point x="114" y="519" type="qcurve" smooth="yes"/>
      <point x="114" y="672"/>
      <point x="322" y="861"/>
      <point x="498" y="861" type="qcurve" smooth="yes"/>
    </contour>
    <contour>
      <point x="-30" y="1276" type="line"/>
      <point x="1134" y="1276" type="line"/>
      <point x="1134" y="1188" type="line"/>
      <point x="-30" y="1188" type="line"/>
    </contour>
    <contour>
      <point x="760" y="1220" type="line"/>
      <point x="864" y="1220" type="line"/>
      <point x="864" y="0" type="line"/>
      <point x="760" y="0" type="line"/>
    </contour>
    <contour>
      <point x="754" y="1271" type="move" name="top"/>
    </contour>
  </outline>
</glyph>
<glyph name="thadeva" format="1">
  <advance width="1242"/>
  <unicode hex="0925"/>
  <outline>
    <contour>
      <point x="245" y="924" type="qcurve"/>
      <point x="165" y="911" type="line"/>
      <point x="154" y="943"/>
      <point x="145" y="998"/>
      <point x="145" y="1034" type="qcurve" smooth="yes"/>
      <point x="146" y="1132"/>
      <point x="275" y="1263"/>
      <point x="383" y="1263" type="qcurve" smooth="yes"/>
      <point x="506" y="1263"/>
      <point x="648" y="1103"/>
      <point x="648" y="996" type="qcurve" smooth="yes"/>
      <point x="648" y="837"/>
      <point x="396" y="628"/>
      <point x="175" y="625" type="qcurve"/>
      <point x="180" y="676" type="line"/>
      <point x="221" y="515"/>
      <point x="457" y="349"/>
      <point x="593" y="349" type="qcurve" smooth="yes"/>
      <point x="692" y="349"/>
      <point x="870" y="422"/>
      <point x="923" y="483" type="qcurve"/>
      <point x="923" y="367" type="line"/>
      <point x="882" y="327"/>
      <point x="708" y="261"/>
      <point x="601" y="261" type="qcurve" smooth="yes"/>
      <point x="432" y="261"/>
      <point x="144" y="466"/>
      <point x="76" y="676" type="qcurve"/>
      <point x="80" y="699" type="line"/>
      <point x="337" y="705"/>
      <point x="558" y="874"/>
      <point x="558" y="997" type="qcurve" smooth="yes"/>
      <point x="558" y="1073"/>
      <point x="468" y="1179"/>
      <point x="387" y="1179" type="qcurve" smooth="yes"/>
      <point x="314" y="1179"/>
      <point x="233" y="1084"/>
      <point x="233" y="1015" type="qcurve" smooth="yes"/>
      <point x="233" y="990"/>
      <point x="240" y="949"/>
    </contour>
    <contour>
      <point x="898" y="1225" type="line"/>
      <point x="1002" y="1225" type="line"/>
      <point x="1002" y="0" type="line"/>
      <point x="898" y="0" type="line"/>
    </contour>
    <contour>
      <point x="1272" y="1188" type="line"/>
      <point x="763" y="1188" type="line"/>
      <point x="763" y="1276" type="line"/>
      <point x="1272" y="1276" type="line"/>
    </contour>
    <contour>
      <point x="893" y="1271" type="move" name="top"/>
    </contour>
  </outline>
</glyph>
<glyph name="dadeva" format="1">
  <advance width="1013"/>
  <unicode hex="0926"/>
  <outline>
    <contour>
      <point x="1043" y="1188" type="line"/>
      <point x="-30" y="1188" type="line"/>
      <point x="-30" y="1276" type="line"/>
      <point x="1043" y="1276" type="line"/>
    </contour>
    <contour>
      <point x="644" y="210" type="line"/>
      <point x="729" y="243" type="line"/>
      <point x="870" y="-112" type="line"/>
      <point x="776" y="-134" type="line"/>
    </contour>
    <contour>
      <point x="102" y="550" type="qcurve" smooth="yes"/>
      <point x="102" y="702"/>
      <point x="328" y="893"/>
      <point x="519" y="893" type="qcurve" smooth="yes"/>
      <point x="713" y="893" type="line"/>
      <point x="669" y="844" type="line"/>
      <point x="669" y="1232" type="line"/>
      <point x="773" y="1232" type="line"/>
      <point x="773" y="805" type="line"/>
      <point x="533" y="805" type="line"/>
      <point x="373" y="805"/>
      <point x="204" y="657"/>
      <point x="204" y="541" type="qcurve" smooth="yes"/>
      <point x="204" y="417"/>
      <point x="392" y="258"/>
      <point x="535" y="258" type="qcurve" smooth="yes"/>
      <point x="565" y="258"/>
      <point x="644" y="266"/>
      <point x="677" y="274" type="qcurve"/>
      <point x="637" y="227" type="line"/>
      <point x="630" y="245"/>
      <point x="617" y="279"/>
      <point x="617" y="309" type="qcurve" smooth="yes"/>
      <point x="618" y="345"/>
      <point x="675" y="403"/>
      <point x="733" y="403" type="qcurve" smooth="yes"/>
      <point x="789" y="403"/>
      <point x="855" y="341"/>
      <point x="855" y="304" type="qcurve" smooth="yes"/>
      <point x="854" y="249"/>
      <point x="698" y="169"/>
      <point x="552" y="169" type="qcurve" smooth="yes"/>
      <point x="356" y="169"/>
      <point x="102" y="377"/>
    </contour>
    <contour>
      <point x="773" y="-124" type="move" name="btm"/>
    </contour>
    <contour>
      <point x="649" y="1271" type="move" name="top"/>
    </contour>
  </outline>
</glyph>
<glyph name="nadeva" format="1">
  <advance width="1082"/>
  <unicode hex="0928"/>
  <outline>
    <contour>
      <point x="785" y="785" type="line"/>
      <point x="785" y="695" type="line"/>
      <point x="247" y="695" type="line"/>
      <point x="293" y="736" type="line"/>
      <point x="293" y="552" type="line"/>
      <point x="293" y="500"/>
      <point x="259" y="456"/>
      <point x="227" y="456" type="qcurve" smooth="yes"/>
      <point x="185" y="456"/>
      <point x="107" y="593"/>
      <point x="107" y="687" type="qcurve" smooth="yes"/>
      <point x="107" y="733"/>
      <point x="164" y="785"/>
      <point x="229" y="785" type="qcurve" smooth="yes"/>
    </contour>
    <contour>
      <point x="-30" y="1276" type="line"/>
      <point x="1112" y="1276" type="line"/>
      <point x="1112" y="1188" type="line"/>
      <point x="-30" y="1188" type="line"/>
    </contour>
    <contour>
      <point x="738" y="1220" type="line"/>
      <point x="841" y="1220" type="line"/>
      <point x="841" y="0" type="line"/>
      <point x="738" y="0" type="line"/>
    </contour>
    <contour>
      <point x="732" y="1271" type="move" name="top"/>
    </contour>
  </outline>
</glyph>
<glyph name="phadeva" format="1">
  <advance width="1517"/>
  <unicode hex="092B"/>
  <outline>
    <contour>
      <point x="916" y="1276" type="line"/>
      <point x="1547" y="1276" type="line"/>
      <point x="1547" y="1188" type="line"/>
      <point x="916" y="1188" type="line"/>
    </contour>
    <contour>
      <point x="776" y="722" type="line"/>
      <point x="824" y="766"/>
      <point x="972" y="824"/>
      <point x="1061" y="824" type="qcurve" smooth="yes"/>
      <point x="1201" y="824"/>
      <point x="1377" y="646"/>
      <point x="1377" y="500" type="qcurve" smooth="yes"/>
      <point x="1377" y="404"/>
      <point x="1309" y="234"/>
      <point x="1267" y="172" type="qcurve"/>
      <point x="1166" y="192" type="line"/>
      <point x="1216" y="264"/>
      <point x="1273" y="420"/>
      <point x="1273" y="502" type="qcurve" smooth="yes"/>
      <point x="1273" y="609"/>
      <point x="1153" y="737"/>
      <point x="1055" y="737" type="qcurve" smooth="yes"/>
      <point x="978" y="737"/>
      <point x="835" y="668"/>
      <point x="776" y="609" type="qcurve"/>
    </contour>
    <component base="padeva"/>
    <contour>
      <point x="700" y="-5" type="move" name="btm"/>
    </contour>
    <contour>
      <point x="696" y="1271" type="move" name="top"/>
    </contour>
  </outline>
</glyph>
<glyph name="badeva" format="1">
  <advance width="1078"/>
  <unicode hex="092C"/>
  <outline>
    <contour>
      <point x="655" y="360" type="line"/>
      <point x="591" y="310" type="line"/>
      <point x="294" y="849" type="line"/>
      <point x="357" y="896" type="line"/>
    </contour>
    <component base="vadeva"/>
    <contour>
      <point x="749" y="1291" type="move" name="top"/>
    </contour>
  </outline>
</glyph>
<glyph name="madeva" format="1">
  <advance width="1143"/>
  <unicode hex="092E"/>
  <outline>
    <contour>
      <point x="799" y="1220" type="line"/>
      <point x="902" y="1220" type="line"/>
      <point x="902" y="0" type="line"/>
      <point x="799" y="0" type="line"/>
    </contour>
    <contour>
      <point x="1173" y="1188" type="line"/>
      <point x="-30" y="1188" type="line"/>
      <point x="-30" y="1276" type="line"/>
      <point x="1173" y="1276" type="line"/>
    </contour>
    <contour>
      <point x="306" y="688" type="line"/>
      <point x="853" y="688" type="line"/>
      <point x="853" y="598" type="line"/>
      <point x="306" y="598" type="line"/>
    </contour>
    <contour>
      <point x="371" y="1209" type="line"/>
      <point x="371" y="531" type="line"/>
      <point x="371" y="477"/>
      <point x="335" y="428"/>
      <point x="302" y="428" type="qcurve" smooth="yes"/>
      <point x="244" y="428"/>
      <point x="145" y="546"/>
      <point x="145" y="614" type="qcurve" smooth="yes"/>
      <point x="145" y="649"/>
      <point x="190" y="688"/>
      <point x="236" y="688" type="qcurve" smooth="yes"/>
      <point x="283" y="688" type="line"/>
      <point x="268" y="639" type="line"/>
      <point x="268" y="1209" type="line"/>
    </contour>
    <contour>
      <point x="793" y="1271" type="move" name="top"/>
    </contour>
  </outline>
</glyph>
<glyph name="yadeva" format="1">
  <advance width="1150"/>
  <unicode hex="092F"/>
  <outline>
    <contour>
      <point x="-30" y="1276" type="line"/>
      <point x="1180" y="1276" type="line"/>
      <point x="1180" y="1188" type="line"/>
      <point x="-30" y="1188" type="line"/>
    </contour>
    <contour>
      <point x="226" y="1213" type="qcurve"/>
      <point x="352" y="1213" type="line"/>
      <point x="403" y="1172"/>
      <point x="484" y="1021"/>
      <point x="484" y="937" type="qcurve" smooth="yes"/>
      <point x="483" y="826"/>
      <point x="321" y="669"/>
      <point x="186" y="656" type="qcurve"/>
      <point x="191" y="694" type="line"/>
      <point x="239" y="567"/>
      <point x="434" y="422"/>
      <point x="546" y="422" type="qcurve" smooth="yes"/>
      <point x="635" y="422"/>
      <point x="769" y="477"/>
      <point x="822" y="530" type="qcurve"/>
      <point x="822" y="417" type="line"/>
      <point x="788" y="389"/>
      <point x="649" y="331"/>
      <point x="549" y="331" type="qcurve" smooth="yes"/>
      <point x="408" y="331"/>
      <point x="143" y="529"/>
      <point x="83" y="697" type="qcurve"/>
      <point x="87" y="715" type="line"/>
      <point x="244" y="740"/>
      <point x="377" y="856"/>
      <point x="379" y="944" type="qcurve" smooth="yes"/>
      <point x="381" y="1017"/>
      <point x="307" y="1155"/>
    </contour>
    <contour>
      <point x="806" y="1225" type="line"/>
      <point x="909" y="1225" type="line"/>
      <point x="909" y="0" type="line"/>
      <point x="806" y="0" type="line"/>
    </contour>
    <contour>
      <point x="800" y="1271" type="move" name="top"/>
    </contour>
  </outline>
</glyph>
<glyph name="radeva" format="1">
  <advance width="812"/>
  <unicode hex="0930"/>
  <outline>
    <contour>
      <point x="725" y="46" type="line"/>
      <point x="646" y="-7" type="line"/>
      <point x="27" y="751" type="line"/>
      <point x="102" y="805" type="line"/>
      <point x="280" y="605" type="line"/>
      <point x="280" y="585" type="line"/>
    </contour>
    <contour>
      <point x="245" y="624" type="line"/>
      <point x="367" y="624"/>
      <point x="481" y="756"/>
      <point x="481" y="888" type="qcurve" smooth="yes"/>
      <point x="481" y="1230" type="line"/>
      <point x="584" y="1230" type="line"/>
      <point x="584" y="877" type="line"/>
      <point x="584" y="710"/>
      <point x="420" y="521"/>
      <point x="245" y="521" type="qcurve"/>
    </contour>
    <contour>
      <point x="-30" y="1188" type="line"/>
      <point x="-30" y="1276" type="line"/>
      <point x="842" y="1276" type="line"/>
      <point x="842" y="1188" type="line"/>
    </contour>
    <contour>
      <point x="324" y="-18" type="move" name="btm"/>
    </contour>
    <contour>
      <point x="501" y="1271" type="move" name="top"/>
    </contour>
  </outline>
</glyph>
<glyph name="lladeva" format="1">
  <advance width="1529"/>
  <unicode hex="0933"/>
  <outline>
    <contour>
      <point x="1559" y="1188" type="line"/>
      <point x="-30" y="1188" type="line"/>
      <point x="-30" y="1276" type="line"/>
      <point x="1559" y="1276" type="line"/>
    </contour>
    <contour>
      <point x="1289" y="809" type="line"/>
      <point x="1185" y="809" type="line"/>
      <point x="1185" y="1230" type="line"/>
      <point x="1289" y="1230" type="line"/>
    </contour>
    <contour>
      <point x="694" y="505" type="qcurve" smooth="yes"/>
      <point x="694" y="653"/>
      <point x="559" y="816"/>
      <point x="441" y="816" type="qcurve" smooth="yes"/>
      <point x="339" y="816"/>
      <point x="203" y="664"/>
      <point x="203" y="501" type="qcurve" smooth="yes"/>
      <point x="203" y="348"/>
      <point x="344" y="192"/>
      <point x="445" y="192" type="qcurve" smooth="yes"/>
      <point x="549" y="192"/>
      <point x="694" y="345"/>
    </contour>
    <contour>
      <point x="787" y="587" type="qcurve"/>
      <point x="726" y="583" type="line"/>
      <point x="739" y="721"/>
      <point x="931" y="901"/>
      <point x="1060" y="901" type="qcurve" smooth="yes"/>
      <point x="1224" y="901"/>
      <point x="1404" y="685"/>
      <point x="1404" y="505" type="qcurve" smooth="yes"/>
      <point x="1404" y="323"/>
      <point x="1214" y="108"/>
      <point x="1070" y="108" type="qcurve" smooth="yes"/>
      <point x="945" y="108"/>
      <point x="754" y="260"/>
      <point x="732" y="398" type="qcurve"/>
      <point x="781" y="402" type="line"/>
      <point x="769" y="268"/>
      <point x="589" y="111"/>
      <point x="446" y="109" type="qcurve" smooth="yes"/>
      <point x="301" y="108"/>
      <point x="105" y="323"/>
      <point x="105" y="505" type="qcurve" smooth="yes"/>
      <point x="105" y="694"/>
      <point x="290" y="901"/>
      <point x="443" y="901" type="qcurve" smooth="yes"/>
      <point x="586" y="901"/>
      <point x="774" y="715"/>
    </contour>
    <contour>
      <point x="821" y="509" type="qcurve" smooth="yes"/>
      <point x="821" y="346"/>
      <point x="966" y="194"/>
      <point x="1067" y="194" type="qcurve" smooth="yes"/>
      <point x="1169" y="194"/>
      <point x="1304" y="353"/>
      <point x="1304" y="503" type="qcurve" smooth="yes"/>
      <point x="1304" y="665"/>
      <point x="1167" y="816"/>
      <point x="1065" y="816" type="qcurve" smooth="yes"/>
      <point x="955" y="816"/>
      <point x="821" y="652"/>
    </contour>
    <contour>
      <point x="1049" y="13" type="move" name="btm"/>
    </contour>
    <contour>
      <point x="1268" y="1291" type="move" name="top"/>
    </contour>
  </outline>
</glyph>
<glyph name="vadeva" format="1">
  <advance width="1067"/>
  <unicode hex="0935"/>
  <outline>
    <contour>
      <point x="1108" y="1188" type="line"/>
      <point x="-30" y="1188" type="line"/>
      <point x="-30" y="1276" type="line"/>
      <point x="1108" y="1276" type="line"/>
    </contour>
    <contour>
      <point x="759" y="362" type="line"/>
      <point x="715" y="315"/>
      <point x="548" y="253"/>
      <point x="455" y="253" type="qcurve" smooth="yes"/>
      <point x="297" y="253"/>
      <point x="84" y="451"/>
      <point x="84" y="608" type="qcurve" smooth="yes"/>
      <point x="84" y="753"/>
      <point x="289" y="938"/>
      <point x="449" y="938" type="qcurve" smooth="yes"/>
      <point x="548" y="938"/>
      <point x="703" y="890"/>
      <point x="762" y="848" type="qcurve"/>
      <point x="762" y="741" type="line"/>
      <point x="697" y="796"/>
      <point x="552" y="849"/>
      <point x="461" y="849" type="qcurve" smooth="yes"/>
      <point x="345" y="849"/>
      <point x="188" y="714"/>
      <point x="188" y="600" type="qcurve" smooth="yes"/>
      <point x="188" y="479"/>
      <point x="341" y="342"/>
      <point x="454" y="342" type="qcurve" smooth="yes"/>
      <point x="539" y="342"/>
      <point x="703" y="405"/>
      <point x="759" y="473" type="qcurve"/>
    </contour>
    <contour>
      <point x="734" y="1220" type="line"/>
      <point x="838" y="1220" type="line"/>
      <point x="838" y="0" type="line"/>
      <point x="734" y="0" type="line"/>
    </contour>
    <contour>
      <point x="729" y="1271" type="move" name="top"/>
    </contour>
  </outline>
</glyph>
<glyph name="ssadeva" format="1">
  <advance width="1055"/>
  <unicode hex="0937"/>
  <outline>
    <contour>
      <point x="747" y="615" type="line"/>
      <point x="687" y="565" type="line"/>
      <point x="230" y="1202" type="line"/>
      <point x="290" y="1249" type="line"/>
    </contour>
    <component base="padeva"/>
    <contour>
      <point x="719" y="1291" type="move" name="top"/>
    </contour>
  </outline>
</glyph>
<glyph name="sadeva" format="1">
  <advance width="1313"/>
  <unicode hex="0938"/>
  <outline>
    <contour>
      <point x="-30" y="1188" type="line"/>
      <point x="-30" y="1276" type="line"/>
      <point x="1343" y="1276" type="line"/>
      <point x="1343" y="1188" type="line"/>
    </contour>
    <contour>
      <point x="443" y="661" type="line"/>
      <point x="1007" y="661" type="line"/>
      <point x="1007" y="573" type="line"/>
      <point x="419" y="573" type="line"/>
    </contour>
    <contour>
      <point x="969" y="1220" type="line"/>
      <point x="1072" y="1220" type="line"/>
      <point x="1072" y="0" type="line"/>
      <point x="969" y="0" type="line"/>
    </contour>
    <contour>
      <point x="640" y="43" type="line"/>
      <point x="558" y="-4" type="line"/>
      <point x="33" y="760" type="line"/>
      <point x="107" y="810" type="line"/>
      <point x="272" y="594" type="line"/>
      <point x="273" y="576" type="line"/>
    </contour>
    <contour>
      <point x="232" y="604" type="line"/>
      <point x="338" y="604"/>
      <point x="446" y="737"/>
      <point x="446" y="871" type="qcurve" smooth="yes"/>
      <point x="446" y="1230" type="line"/>
      <point x="550" y="1230" type="line"/>
      <point x="550" y="860" type="line"/>
      <point x="550" y="692"/>
      <point x="396" y="504"/>
      <point x="232" y="504" type="qcurve"/>
    </contour>
    <contour>
      <point x="965" y="1271" type="move" name="top"/>
    </contour>
  </outline>
</glyph>
<glyph name="hadeva" format="1">
  <advance width="1044"/>
  <unicode hex="0939"/>
  <outline>
    <contour>
      <point x="401" y="946" type="qcurve" smooth="yes"/>
      <point x="725" y="946" type="line"/>
      <point x="700" y="912" type="line"/>
      <point x="700" y="1217" type="line"/>
      <point x="804" y="1217" type="line"/>
      <point x="804" y="858" type="line"/>
      <point x="411" y="858" type="line"/>
      <point x="306" y="858"/>
      <point x="212" y="776"/>
      <point x="212" y="710" type="qcurve" smooth="yes"/>
      <point x="212" y="645"/>
      <point x="285" y="554"/>
      <point x="374" y="514" type="qcurve"/>
      <point x="305" y="451" type="line"/>
      <point x="213" y="497"/>
      <point x="109" y="632"/>
      <point x="109" y="720" type="qcurve" smooth="yes"/>
      <point x="109" y="819"/>
      <point x="262" y="946"/>
    </contour>
    <contour>
      <point x="883" y="305" type="qcurve" smooth="yes"/>
      <point x="883" y="257"/>
      <point x="872" y="202"/>
      <point x="858" y="158" type="qcurve"/>
      <point x="761" y="168" type="line"/>
      <point x="772" y="209"/>
      <point x="781" y="257"/>
      <point x="781" y="300" type="qcurve" smooth="yes"/>
      <point x="781" y="375"/>
      <point x="659" y="497"/>
      <point x="533" y="498" type="qcurve" smooth="yes"/>
      <point x="415" y="498"/>
      <point x="258" y="347"/>
      <point x="258" y="228" type="qcurve" smooth="yes"/>
      <point x="258" y="77"/>
      <point x="510" y="-104"/>
      <point x="786" y="-104" type="qcurve"/>
      <point x="775" y="-192" type="line"/>
      <point x="465" y="-192"/>
      <point x="154" y="48"/>
      <point x="154" y="238" type="qcurve" smooth="yes"/>
      <point x="154" y="385"/>
      <point x="363" y="588"/>
      <point x="527" y="588" type="qcurve" smooth="yes"/>
      <point x="693" y="588"/>
      <point x="883" y="415"/>
    </contour>
    <contour>
      <point x="1074" y="1188" type="line"/>
      <point x="-30" y="1188" type="line"/>
      <point x="-30" y="1276" type="line"/>
      <point x="1074" y="1276" type="line"/>
    </contour>
    <contour>
      <point x="694" y="1271" type="move" name="top"/>
    </contour>
  </outline>
</glyph>
<glyph name="oevowelsigndevaKSH" format="1">
  <unicode hex="093A"/>
  <outline>
    <contour>
      <point x="-229" y="1471" type="line"/>
      <point x="-229" y="1207" type="line"/>
      <point x="-333" y="1207" type="line"/>
      <point x="-333" y="1471" type="line"/>
    </contour>
    <contour>
      <point x="-371" y="1278" type="move" name="_top"/>
    </contour>
  </outline>
</glyph>
<glyph name="iivowelsigndeva" format="1">
  <advance width="528"/>
  <unicode hex="0940"/>
  <outline>
    <contour>
      <point x="184" y="1245" type="line"/>
      <point x="111" y="1425"/>
      <point x="-72" y="1624"/>
      <point x="-176" y="1624" type="qcurve" smooth="yes"/>
      <point x="-244" y="1624"/>
      <point x="-320" y="1548"/>
      <point x="-320" y="1479" type="qcurve" smooth="yes"/>
      <point x="-320" y="1422"/>
      <point x="-276" y="1306"/>
      <point x="-238" y="1253" type="qcurve"/>
      <point x="-344" y="1253" type="line"/>
      <point x="-376" y="1302"/>
      <point x="-419" y="1428"/>
      <point x="-419" y="1494" type="qcurve" smooth="yes"/>
      <point x="-419" y="1590"/>
      <point x="-296" y="1711"/>
      <point x="-186" y="1711" type="qcurve" smooth="yes"/>
      <point x="-40" y="1711"/>
      <point x="197" y="1476"/>
      <point x="291" y="1245" type="qcurve"/>
    </contour>
    <component base="aavowelsigndeva"/>
  </outline>
</glyph>
<glyph name="rvocalicvowelsigndeva" format="1">
  <unicode hex="0943"/>
  <outline>
    <contour>
      <point x="-150" y="-421" type="line"/>
      <point x="-180" y="-433"/>
      <point x="-262" y="-447"/>
      <point x="-304" y="-447" type="qcurve" smooth="yes"/>
      <point x="-439" y="-447"/>
      <point x="-593" y="-312"/>
      <point x="-593" y="-206" type="qcurve" smooth="yes"/>
      <point x="-593" y="-106"/>
      <point x="-446" y="27"/>
      <point x="-317" y="27" type="qcurve" smooth="yes"/>
      <point x="-229" y="27" type="line"/>
      <point x="-229" y="-54" type="line"/>
      <point x="-298" y="-54" type="line"/>
      <point x="-403" y="-54"/>
      <point x="-496" y="-147"/>
      <point x="-496" y="-213" type="qcurve" smooth="yes"/>
      <point x="-496" y="-282"/>
      <point x="-391" y="-370"/>
      <point x="-306" y="-370" type="qcurve" smooth="yes"/>
      <point x="-269" y="-370"/>
      <point x="-194" y="-357"/>
      <point x="-162" y="-347" type="qcurve"/>
    </contour>
    <contour>
      <point x="-342" y="-5" type="move" name="_btm"/>
    </contour>
  </outline>
</glyph>
<glyph name="rrvocalicvowelsigndeva" format="1">
  <unicode hex="0944"/>
  <outline>
    <contour>
      <point x="-149" y="-575" type="line"/>
      <point x="-178" y="-586"/>
      <point x="-243" y="-601"/>
      <point x="-284" y="-601" type="qcurve" smooth="yes"/>
      <point x="-382" y="-601"/>
      <point x="-494" y="-506"/>
      <point x="-494" y="-433" type="qcurve" smooth="yes"/>
      <point x="-494" y="-366"/>
      <point x="-383" y="-283"/>
      <point x="-299" y="-283" type="qcurve" smooth="yes"/>
      <point x="-260" y="-283" type="line"/>
      <point x="-260" y="-347" type="line"/>
      <point x="-266" y="-347" type="line"/>
      <point x="-339" y="-347"/>
      <point x="-408" y="-397"/>
      <point x="-408" y="-439" type="qcurve" smooth="yes"/>
      <point x="-408" y="-479"/>
      <point x="-344" y="-530"/>
      <point x="-283" y="-530" type="qcurve" smooth="yes"/>
      <point x="-249" y="-530"/>
      <point x="-196" y="-519"/>
      <point x="-164" y="-508" type="qcurve"/>
    </contour>
    <contour>
      <point x="-173" y="-330" type="line"/>
      <point x="-201" y="-339"/>
      <point x="-273" y="-351"/>
      <point x="-312" y="-351" type="qcurve" smooth="yes"/>
      <point x="-425" y="-351"/>
      <point x="-559" y="-241"/>
      <point x="-559" y="-159" type="qcurve" smooth="yes"/>
      <point x="-559" y="-76"/>
      <point x="-422" y="27"/>
      <point x="-317" y="27" type="qcurve" smooth="yes"/>
      <point x="-228" y="27" type="line"/>
      <point x="-228" y="-54" type="line"/>
      <point x="-293" y="-54" type="line"/>
      <point x="-384" y="-54"/>
      <point x="-464" y="-113"/>
      <point x="-464" y="-162" type="qcurve" smooth="yes"/>
      <point x="-464" y="-215"/>
      <point x="-382" y="-275"/>
      <point x="-310" y="-275" type="qcurve" smooth="yes"/>
      <point x="-277" y="-275"/>
      <point x="-222" y="-269"/>
      <point x="-190" y="-262" type="qcurve"/>
    </contour>
    <contour>
      <point x="-342" y="-5" type="move" name="_btm"/>
    </contour>
  </outline>
</glyph>
<glyph name="ecandravowelsigndeva" format="1">
  <unicode hex="0945"/>
  <outline>
    <contour>
      <point x="-552" y="1518" type="qcurve" smooth="yes"/>
      <point x="-466" y="1518"/>
      <point x="-326" y="1577"/>
      <point x="-267" y="1640" type="qcurve"/>
      <point x="-244" y="1561" type="line"/>
      <point x="-292" y="1504"/>
      <point x="-442" y="1428"/>
      <point x="-550" y="1428" type="qcurve" smooth="yes"/>
      <point x="-647" y="1428"/>
      <point x="-817" y="1505"/>
      <point x="-880" y="1567" type="qcurve"/>
      <point x="-858" y="1649" type="line"/>
      <point x="-791" y="1585"/>
      <point x="-634" y="1518"/>
    </contour>
    <contour>
      <point x="-371" y="1291" type="move" name="_top"/>
    </contour>
  </outline>
</glyph>
<glyph name="eshortvowelsigndeva" format="1">
  <unicode hex="0946"/>
  <outline>
    <contour>
      <point x="-332" y="1245" type="line"/>
      <point x="-332" y="1335" type="line"/>
      <point x="-332" y="1422"/>
      <point x="-400" y="1492"/>
      <point x="-457" y="1492" type="qcurve" smooth="yes"/>
      <point x="-495" y="1492"/>
      <point x="-645" y="1452"/>
      <point x="-703" y="1452" type="qcurve" smooth="yes"/>
      <point x="-755" y="1452"/>
      <point x="-856" y="1487"/>
      <point x="-915" y="1532" type="qcurve"/>
      <point x="-886" y="1602" type="line"/>
      <point x="-842" y="1569"/>
      <point x="-755" y="1534"/>
      <point x="-704" y="1534" type="qcurve" smooth="yes"/>
      <point x="-651" y="1534"/>
      <point x="-489" y="1583"/>
      <point x="-434" y="1583" type="qcurve" smooth="yes"/>
      <point x="-342" y="1583"/>
      <point x="-229" y="1463"/>
      <point x="-229" y="1343" type="qcurve" smooth="yes"/>
      <point x="-229" y="1245" type="line"/>
    </contour>
    <contour>
      <point x="-371" y="1291" type="move" name="_top"/>
    </contour>
  </outline>
</glyph>
<glyph name="evowelsigndeva" format="1">
  <unicode hex="0947"/>
  <outline>
    <contour>
      <point x="-338" y="1245" type="line"/>
      <point x="-732" y="1708" type="line"/>
      <point x="-652" y="1754" type="line"/>
      <point x="-221" y="1245" type="line"/>
    </contour>
    <contour>
      <point x="-345" y="1271" type="move" name="_top"/>
    </contour>
  </outline>
</glyph>
<glyph name="aivowelsigndeva" format="1">
  <unicode hex="0948"/>
  <outline>
    <contour>
      <point x="-394" y="1245" type="line"/>
      <point x="-910" y="1608" type="line"/>
      <point x="-856" y="1679" type="line"/>
      <point x="-251" y="1245" type="line"/>
    </contour>
    <contour>
      <point x="-320" y="1245" type="line"/>
      <point x="-562" y="1778" type="line"/>
      <point x="-480" y="1807" type="line"/>
      <point x="-230" y="1245" type="line"/>
    </contour>
    <contour>
      <point x="-345" y="1271" type="move" name="_top"/>
    </contour>
  </outline>
</glyph>
<glyph name="viramadeva" format="1">
  <unicode hex="094D"/>
  <outline>
    <contour>
      <point x="-334" y="-87" type="line"/>
      <point x="69" y="-298" type="line"/>
      <point x="26" y="-375" type="line"/>
      <point x="-378" y="-165" type="line"/>
    </contour>
    <contour>
      <point x="-342" y="-5" type="move" name="_btm"/>
    </contour>
  </outline>
</glyph>
<glyph name="prishthaevowelsign" format="1">
  <advance width="528"/>
  <unicode hex="094E"/>
  <outline>
    <contour>
      <point x="184" y="1231" type="line"/>
      <point x="288" y="1231" type="line"/>
      <point x="288" y="0" type="line"/>
      <point x="184" y="0" type="line"/>
    </contour>
    <contour>
      <point x="563" y="1188" type="line"/>
      <point x="185" y="1188" type="line"/>
      <point x="185" y="1276" type="line"/>
      <point x="563" y="1276" type="line"/>
    </contour>
  </outline>
</glyph>
<glyph name="awvowelsigndevaKSH" format="1">
  <advance width="528"/>
  <unicode hex="094F"/>
  <outline>
    <contour>
      <point x="192" y="1241" type="line"/>
      <point x="192" y="1502" type="line"/>
      <point x="192" y="1550"/>
      <point x="141" y="1606"/>
      <point x="99" y="1606" type="qcurve" smooth="yes"/>
      <point x="61" y="1606"/>
      <point x="-44" y="1577"/>
      <point x="-92" y="1577" type="qcurve" smooth="yes"/>
      <point x="-146" y="1577"/>
      <point x="-237" y="1609"/>
      <point x="-291" y="1658" type="qcurve"/>
      <point x="-261" y="1723" type="line"/>
      <point x="-205" y="1679"/>
      <point x="-135" y="1656"/>
      <point x="-97" y="1656" type="qcurve" smooth="yes"/>
      <point x="-48" y="1656"/>
      <point x="77" y="1691"/>
      <point x="122" y="1691" type="qcurve" smooth="yes"/>
      <point x="194" y="1691"/>
      <point x="288" y="1597"/>
      <point x="288" y="1508" type="qcurve" smooth="yes"/>
      <point x="288" y="1241" type="line"/>
    </contour>
    <contour>
      <point x="155" y="1230" type="line"/>
      <point x="110" y="1302" type="line"/>
      <point x="84" y="1345"/>
      <point x="9" y="1401"/>
      <point x="-40" y="1401" type="qcurve" smooth="yes"/>
      <point x="-85" y="1401"/>
      <point x="-209" y="1362"/>
      <point x="-254" y="1362" type="qcurve" smooth="yes"/>
      <point x="-302" y="1362"/>
      <point x="-397" y="1401"/>
      <point x="-443" y="1435" type="qcurve"/>
      <point x="-416" y="1500" type="line"/>
      <point x="-376" y="1471"/>
      <point x="-302" y="1442"/>
      <point x="-264" y="1442" type="qcurve" smooth="yes"/>
      <point x="-220" y="1442"/>
      <point x="-79" y="1486"/>
      <point x="-33" y="1486" type="qcurve" smooth="yes"/>
      <point x="38" y="1486"/>
      <point x="149" y="1409"/>
      <point x="186" y="1340" type="qcurve" smooth="yes"/>
      <point x="247" y="1230" type="line"/>
    </contour>
    <component base="aavowelsigndeva"/>
  </outline>
</glyph>
<glyph name="omdeva" format="1">
  <advance width="1843"/>
  <unicode hex="0950"/>
  <outline>
    <contour>
      <point x="1260" y="292" type="qcurve"/>
      <point x="1271" y="373" type="line"/>
      <point x="1299" y="364"/>
      <point x="1352" y="356"/>
      <point x="1381" y="356" type="qcurve" smooth="yes"/>
      <point x="1471" y="356"/>
      <point x="1577" y="478"/>
      <point x="1577" y="599" type="qcurve" smooth="yes"/>
      <point x="1577" y="737"/>
      <point x="1469" y="879"/>
      <point x="1394" y="879" type="qcurve" smooth="yes"/>
      <point x="1322" y="879"/>
      <point x="1218" y="760"/>
      <point x="1185" y="621" type="qcurve" smooth="yes"/>
      <point x="1147" y="450"/>
      <point x="1002" y="324"/>
      <point x="895" y="324" type="qcurve" smooth="yes"/>
      <point x="853" y="324"/>
      <point x="806" y="334"/>
      <point x="775" y="342" type="qcurve"/>
      <point x="775" y="431" type="line"/>
      <point x="804" y="421"/>
      <point x="844" y="412"/>
      <point x="885" y="412" type="qcurve" smooth="yes"/>
      <point x="955" y="412"/>
      <point x="1055" y="504"/>
      <point x="1086" y="632" type="qcurve" smooth="yes"/>
      <point x="1132" y="821"/>
      <point x="1284" y="964"/>
      <point x="1389" y="964" type="qcurve" smooth="yes"/>
      <point x="1515" y="964"/>
      <point x="1676" y="764"/>
      <point x="1676" y="593" type="qcurve" smooth="yes"/>
      <point x="1676" y="451"/>
      <point x="1526" y="272"/>
      <point x="1391" y="272" type="qcurve" smooth="yes"/>
      <point x="1352" y="272"/>
      <point x="1298" y="282"/>
    </contour>
    <contour>
      <point x="321" y="672" type="qcurve"/>
      <point x="321" y="760" type="line"/>
      <point x="533" y="762"/>
      <point x="686" y="911"/>
      <point x="686" y="1006" type="qcurve" smooth="yes"/>
      <point x="686" y="1088"/>
      <point x="569" y="1195"/>
      <point x="467" y="1195" type="qcurve" smooth="yes"/>
      <point x="410" y="1195"/>
      <point x="314" y="1172"/>
      <point x="253" y="1138" type="qcurve"/>
      <point x="239" y="1227" type="line"/>
      <point x="296" y="1258"/>
      <point x="408" y="1284"/>
      <point x="467" y="1284" type="qcurve" smooth="yes"/>
      <point x="608" y="1284"/>
      <point x="790" y="1131"/>
      <point x="790" y="1003" type="qcurve" smooth="yes"/>
      <point x="790" y="863"/>
      <point x="561" y="674"/>
    </contour>
    <contour>
      <point x="465" y="771" type="line"/>
      <point x="623" y="768"/>
      <point x="820" y="569"/>
      <point x="820" y="433" type="qcurve" smooth="yes"/>
      <point x="820" y="284"/>
      <point x="626" y="111"/>
      <point x="475" y="111" type="qcurve" smooth="yes"/>
      <point x="402" y="111"/>
      <point x="253" y="146"/>
      <point x="179" y="175" type="qcurve"/>
      <point x="194" y="265" type="line"/>
      <point x="264" y="233"/>
      <point x="395" y="199"/>
      <point x="464" y="199" type="qcurve" smooth="yes"/>
      <point x="579" y="199"/>
      <point x="718" y="333"/>
      <point x="718" y="440" type="qcurve" smooth="yes"/>
      <point x="718" y="533"/>
      <point x="582" y="694"/>
      <point x="448" y="694" type="qcurve"/>
    </contour>
    <component base="candrabindudeva" xOffset="1699" yOffset="-318"/>
  </outline>
</glyph>
<glyph name="uni0954" format="1">
  <unicode hex="0954"/>
  <outline>
    <contour>
      <point x="-219" y="1790" type="line"/>
      <point x="-77" y="1790" type="line"/>
      <point x="-262" y="1437" type="line"/>
      <point x="-352" y="1437" type="line"/>
    </contour>
    <contour>
      <point x="10" y="-9" type="move" name="x4"/>
    </contour>
  </outline>
</glyph>
<glyph name="candralongevowelsigndeva" format="1">
  <unicode hex="0955"/>
  <outline>
    <component base="ecandravowelsigndeva" yScale="0.888837277889" xOffset="-1" yOffset="319"/>
    <component base="anudattadeva" xOffset="8" yOffset="1564"/>
    <contour>
      <point x="-371" y="1279" type="move" name="_top"/>
    </contour>
  </outline>
</glyph>
